<?xml version="1.0" encoding="UTF-8"?>
<svg version="1.1" xmlns="http://www.w3.org/2000/svg" width="1252" height="1252">
<path d="M0 0 C413.16 0 826.32 0 1252 0 C1252 413.16 1252 826.32 1252 1252 C838.84 1252 425.68 1252 0 1252 C0 838.84 0 425.68 0 0 Z " fill="#59C176" transform="translate(0,0)"/>
<path d="M0 0 C4.51288397 2.93236574 7.94595618 5.7162663 10.87109375 10.265625 C11.37125 11.03003906 11.87140625 11.79445313 12.38671875 12.58203125 C14.27120806 15.8202518 14.74850612 18.40724124 14.75390625 22.08203125 C14.75583984 23.33983398 14.75583984 23.33983398 14.7578125 24.62304688 C14.75394531 25.49509766 14.75007812 26.36714844 14.74609375 27.265625 C14.75189453 28.57950195 14.75189453 28.57950195 14.7578125 29.91992188 C14.75652344 30.75716797 14.75523437 31.59441406 14.75390625 32.45703125 C14.75277832 33.22345947 14.75165039 33.9898877 14.75048828 34.77954102 C14.62109375 36.703125 14.62109375 36.703125 13.62109375 38.703125 C12.96109375 38.703125 12.30109375 38.703125 11.62109375 38.703125 C11.37359375 39.59 11.12609375 40.476875 10.87109375 41.390625 C8.21243355 48.43607453 3.04757527 52.15712144 -3.37890625 55.703125 C-11.13700423 58.8255463 -19.72456393 59.07618301 -27.7421875 56.7109375 C-35.26938592 53.32513288 -39.88539205 48.53543214 -44.37890625 41.703125 C-44.93449219 40.96707031 -45.49007812 40.23101563 -46.0625 39.47265625 C-47.96224237 35.47586889 -47.91167538 31.82886767 -47.87890625 27.453125 C-47.87463623 26.60282715 -47.87036621 25.7525293 -47.8659668 24.87646484 C-47.64132131 16.61617903 -45.30918487 11.99968845 -39.87890625 5.890625 C-39.05390625 5.16875 -38.22890625 4.446875 -37.37890625 3.703125 C-36.63640625 3.0225 -35.89390625 2.341875 -35.12890625 1.640625 C-23.83370939 -6.31735461 -12.14156837 -6.66860066 0 0 Z " fill="#1E1F1E" transform="translate(718.37890625,818.296875)"/>
<path d="M0 0 C2.30078125 1.390625 2.30078125 1.390625 4.3125 2.8125 C4.90417969 3.21984375 5.49585938 3.6271875 6.10546875 4.046875 C9.68269776 6.76733558 12.14780022 9.89938886 14.3125 13.8125 C14.3125 15.1325 14.3125 16.4525 14.3125 17.8125 C14.9725 17.8125 15.6325 17.8125 16.3125 17.8125 C18.2992052 26.57643341 18.08726103 34.63385111 14.3125 42.8125 C13.6525 42.8125 12.9925 42.8125 12.3125 42.8125 C12.06371094 43.55371094 11.81492187 44.29492188 11.55859375 45.05859375 C8.62182167 51.54895211 2.33954097 55.73219316 -4.125 58.3125 C-13.59133531 61.26578567 -20.88808207 60.2045573 -29.6875 55.8125 C-36.61649952 52.14420614 -41.77555198 45.86085036 -44.625 38.5625 C-46.78057714 30.79428805 -47.0098787 22.72692258 -43.5 15.375 C-34.78464621 0.38943334 -16.61278395 -8.10317749 0 0 Z " fill="#1D1F1E" transform="translate(507.6875,744.1875)"/>
<path d="M0 0 C6.12554754 4.35572642 11.93994771 9.57981165 14 17 C15.10781783 27.02692987 15.20314413 36.1814794 8.875 44.4375 C2.54190478 52.30152939 -4.51167467 56.98501614 -14.59375 58.3515625 C-23.02801901 58.8120542 -30.92546467 56.54835361 -37.359375 50.9453125 C-39.40473037 48.72310309 -41.20615364 46.4276997 -43 44 C-43.52722656 43.43023438 -44.05445313 42.86046875 -44.59765625 42.2734375 C-49.6622727 36.09432328 -48.92266093 27.63311407 -48.27783203 20.07617188 C-47.20226031 12.03868339 -42.49641861 6.65898491 -36.3671875 1.6953125 C-25.69296739 -5.94926098 -11.45028744 -6.97230196 0 0 Z " fill="#FCFDFC" transform="translate(566,932)"/>
<path d="M0 0 C0.60972656 0.391875 1.21945312 0.78375 1.84765625 1.1875 C2.77771484 1.7134375 2.77771484 1.7134375 3.7265625 2.25 C9.87235043 6.07286593 14.21241024 12.18051379 16.22265625 19.125 C17.94400948 28.05119252 17.28159748 35.74344683 12.40625 43.47265625 C7.41573869 50.40842487 1.04736876 55.54204531 -7.15234375 58.1875 C-17.85132722 59.23905723 -26.39831614 58.0604032 -35.40234375 52 C-42.91194836 44.31972256 -46.16111648 37.00792595 -46.52734375 26.25 C-46.41192344 20.18402146 -45.76857671 16.07043603 -42.15234375 11.1875 C-41.31316406 10.04667969 -41.31316406 10.04667969 -40.45703125 8.8828125 C-30.78743604 -3.05737592 -14.06616724 -7.80550321 0 0 Z " fill="#1E1F1E" transform="translate(402.15234375,590.8125)"/>
<path d="M0 0 C7.40302176 4.63693146 13.33652393 10.48871425 16 19 C16.13760722 21.80993945 16.19011573 24.51001924 16.125 27.3125 C16.11597656 28.05306641 16.10695313 28.79363281 16.09765625 29.55664062 C16.07424213 31.37123467 16.03837615 33.18566071 16 35 C15.34 35 14.68 35 14 35 C13.9175 35.86625 13.835 36.7325 13.75 37.625 C12.23949302 44.4222814 7.34772054 49.72802982 2 54 C-5.91405135 58.98833921 -14.98473322 59.01800062 -24 58 C-32.33871257 55.79040772 -38.15541423 49.93634175 -43 43 C-47.38696779 34.59263046 -48.19934509 26.96970284 -45.8125 17.875 C-42.76181937 8.75120516 -37.04842828 3.19745063 -28.61328125 -1.26171875 C-18.5899442 -5.7462573 -9.75944927 -4.84410621 0 0 Z " fill="#1E1F1E" transform="translate(359,504)"/>
<path d="M0 0 C6.39933462 3.9625019 10.28186834 7.93285769 13 15 C13.66 15.99 14.32 16.98 15 18 C16.58656417 26.05744207 16.60808079 35.56012416 12.23291016 42.67700195 C6.68499104 50.4295072 0.16460887 55.44112397 -9 58 C-19.17349715 59.19959604 -27.63634416 58.17257834 -36 52 C-43 44.89285714 -43 44.89285714 -43 41 C-43.66 41 -44.32 41 -45 41 C-47.36651117 36.33297597 -47.3331204 32.04723567 -47.3125 26.9375 C-47.32861328 26.13505859 -47.34472656 25.33261719 -47.36132812 24.50585938 C-47.3650512 20.01955737 -47.25015991 17.37421182 -44 14 C-43.71125 13.195625 -43.4225 12.39125 -43.125 11.5625 C-41.66749296 8.24262285 -39.67568517 6.42678423 -37 4 C-36.2575 3.319375 -35.515 2.63875 -34.75 1.9375 C-23.67338134 -5.86648133 -12.08685767 -6.04342884 0 0 Z " fill="#FCFEFC" transform="translate(1170,1071)"/>
<path d="M0 0 C6.68510081 4.82008542 12.31906252 10.06378546 15 18 C15.44898935 21.13218726 15.43019408 24.15568316 15.3125 27.3125 C15.29799805 28.50842773 15.29799805 28.50842773 15.28320312 29.72851562 C15.21905058 33.04492334 15.054217 35.83734901 14 39 C13.34 39 12.68 39 12 39 C11.79375 39.845625 11.5875 40.69125 11.375 41.5625 C8.24765759 49.38085601 2.58415063 53.66297372 -5 57 C-13.26324418 59.7254818 -23.12986899 58.86637338 -30.8984375 55.171875 C-38.46791598 50.95097622 -44.05755638 44.2484895 -47 36 C-48.60479515 28.14348112 -48.46523835 19.50986532 -44.5625 12.375 C-33.34717952 -2.85892478 -17.44878834 -8.75807909 0 0 Z " fill="#FCFEFC" transform="translate(213,1062)"/>
<path d="M0 0 C7.73800023 6.01346761 7.73800023 6.01346761 10.26171875 10.16015625 C10.26171875 11.48015625 10.26171875 12.80015625 10.26171875 14.16015625 C10.92171875 14.16015625 11.58171875 14.16015625 12.26171875 14.16015625 C13.02969671 16.89307485 13.38977207 19.32793411 13.39453125 22.1640625 C13.39646484 23.27491211 13.39646484 23.27491211 13.3984375 24.40820312 C13.39457031 25.17197266 13.39070312 25.93574219 13.38671875 26.72265625 C13.39251953 27.87411133 13.39251953 27.87411133 13.3984375 29.04882812 C13.39269975 32.33942764 13.30918906 35.01774532 12.26171875 38.16015625 C11.60171875 38.16015625 10.94171875 38.16015625 10.26171875 38.16015625 C10.01421875 39.04703125 9.76671875 39.93390625 9.51171875 40.84765625 C6.88738831 47.80213192 1.79035052 51.93572069 -4.734375 55.140625 C-12.23177106 58.07079997 -20.36495681 58.62485636 -28.02734375 56.05859375 C-34.40651364 53.09853229 -38.61548071 49.77968305 -42.73828125 44.16015625 C-43.269375 43.67289063 -43.80046875 43.185625 -44.34765625 42.68359375 C-46.59668582 40.21976922 -46.43473705 37.37772474 -46.73828125 34.16015625 C-47.39828125 34.16015625 -48.05828125 34.16015625 -48.73828125 34.16015625 C-49.3751133 22.75378665 -49.10553369 14.54283483 -41.42578125 5.41015625 C-29.19575956 -4.82893168 -14.56434497 -9.78574391 0 0 Z " fill="#1D1F1E" transform="translate(934.73828125,515.83984375)"/>
<path d="M0 0 C9.45542301 7.04882717 9.45542301 7.04882717 10.77734375 11.78515625 C10.85082031 12.51605469 10.92429687 13.24695313 11 14 C11.66 14 12.32 14 13 14 C15.08606496 18.27931903 15.23915367 21.83384149 15.1875 26.5625 C15.18105469 27.86316406 15.17460937 29.16382813 15.16796875 30.50390625 C15.03722463 33.22520835 14.81823822 35.42745903 14 38 C13.34 38 12.68 38 12 38 C12 39.32 12 40.64 12 42 C11.34 42 10.68 42 10 42 C9.835 42.680625 9.67 43.36125 9.5 44.0625 C6.11847721 50.68464879 -0.26792013 54.90717594 -7.171875 57.33203125 C-16.74931436 59.59410602 -24.85969667 58.61205575 -33.421875 53.79296875 C-37.09829314 51.23618704 -39.45128781 48.68147316 -42 45 C-42 44.34 -42 43.68 -42 43 C-42.66 43 -43.32 43 -44 43 C-48.73721926 34.90725043 -48.14749299 24.53570141 -46 15.625 C-43.06332731 7.37761549 -36.75093415 1.86338032 -29.17578125 -2.125 C-19.79696322 -5.89673293 -8.6384298 -5.14746372 0 0 Z " fill="#FCFEFC" transform="translate(480,977)"/>
<path d="M0 0 C2.34375 1.40234375 2.34375 1.40234375 4.625 3 C5.4396875 3.55816406 6.254375 4.11632812 7.09375 4.69140625 C13.51635852 9.68560995 16.29635438 15.01004947 17.625 23 C18.00547413 28.33903114 17.86905293 33.6579525 17.625 39 C16.965 39 16.305 39 15.625 39 C15.295 40.98 14.965 42.96 14.625 45 C13.965 45 13.305 45 12.625 45 C12.398125 45.556875 12.17125 46.11375 11.9375 46.6875 C7.99715305 53.63001606 0.98931792 57.48772171 -6.375 60 C-15.79018303 61.06121329 -23.67225027 59.84604052 -31.55859375 54.52734375 C-37.59157504 49.70323961 -41.93130333 43.33109001 -44.375 36 C-45.28464727 25.27915723 -44.50546873 17.2900203 -37.54296875 8.75390625 C-28.10137666 -1.39533968 -13.12152147 -6.15781637 0 0 Z " fill="#1D1F1E" transform="translate(320.375,416)"/>
<path d="M0 0 C3.30335894 2.38976622 6.3867286 4.85762179 9 8 C9 8.99 9 9.98 9 11 C9.66 11 10.32 11 11 11 C14.49409003 19.65203245 14.30659554 27.84755529 14 37 C13.34 37 12.68 37 12 37 C11.95875 37.66 11.9175 38.32 11.875 39 C9.75420334 46.27130282 4.52193482 50.76657126 -1.65625 54.7734375 C-9.65135771 58.95754387 -18.67456134 59.65946726 -27.296875 56.97265625 C-36.39524746 52.80449323 -43.70584377 46.03703007 -47.3671875 36.5703125 C-49.65954651 27.25937282 -48.61821424 19.00477859 -43.8984375 10.6953125 C-33.48309844 -4.09189728 -16.19242755 -8.81669132 0 0 Z " fill="#1D1F1E" transform="translate(786,750)"/>
<path d="M0 0 C8.13051579 4.85098001 14.35331183 10.68805653 17.4375 19.875 C18.67207239 31.63214869 16.48898098 40.91616358 9.0625 50.125 C2.8203716 56.84729212 -4.88835964 59.92695809 -14 60.3125 C-23.71176086 59.98696612 -30.9897343 55.85764864 -37.5625 48.875 C-43.17353179 42.17888318 -44.88832866 36.78269417 -44.75 28.25 C-44.74935547 27.486875 -44.74871094 26.72375 -44.74804688 25.9375 C-44.72225172 22.67011421 -44.60205395 19.99366185 -43.5625 16.875 C-42.9025 16.875 -42.2425 16.875 -41.5625 16.875 C-41.45550781 16.13121094 -41.34851563 15.38742187 -41.23828125 14.62109375 C-39.84106716 8.94339718 -35.61722061 5.35202561 -30.9921875 2.02734375 C-21.52624084 -3.42782715 -10.10107868 -4.71998653 0 0 Z " fill="#1D1F1E" transform="translate(892.5625,596.125)"/>
<path d="M0 0 C8.55344564 5.05307059 13.71476268 10.90800663 16.453125 20.44921875 C16.948125 21.93421875 16.948125 21.93421875 17.453125 23.44921875 C17.52282552 25.84412861 17.53760503 28.24089566 17.515625 30.63671875 C17.50660156 31.90902344 17.49757813 33.18132813 17.48828125 34.4921875 C17.47667969 35.46800781 17.46507812 36.44382812 17.453125 37.44921875 C16.793125 37.44921875 16.133125 37.44921875 15.453125 37.44921875 C15.123125 39.75921875 14.793125 42.06921875 14.453125 44.44921875 C13.793125 44.44921875 13.133125 44.44921875 12.453125 44.44921875 C12.1746875 45.50109375 12.1746875 45.50109375 11.890625 46.57421875 C8.73449621 52.88647633 2.81954045 56.40095866 -3.67578125 58.75390625 C-13.03312549 61.0200386 -22.14596399 60.14935669 -30.546875 55.44921875 C-33.1405811 53.78924685 -34.56636776 52.67473719 -36.546875 50.44921875 C-37.25328125 49.6603125 -37.9596875 48.87140625 -38.6875 48.05859375 C-44.94597862 40.04949174 -45.92468831 33.17059218 -44.83007812 23.36279297 C-43.55328857 14.73565801 -39.42111114 8.7190761 -32.546875 3.44921875 C-22.1889246 -2.71951616 -11.40549418 -5.24284813 0 0 Z " fill="#FCFEFD" transform="translate(803.546875,974.55078125)"/>
<path d="M0 0 C1.50930304 0.91013249 2.99198387 1.86662511 4.4375 2.875 C5.08074219 3.2978125 5.72398437 3.720625 6.38671875 4.15625 C11.77689301 8.17841908 15.28379394 13.54280085 17.4375 19.875 C18.96577224 30.82397898 17.32511715 39.02263352 10.86328125 48.08203125 C6.14785203 54.00654489 -0.01150132 58.45380443 -7.5625 59.875 C-17.34065762 60.67573102 -25.80085566 59.15037202 -33.5625 52.875 C-40.91321385 45.87633183 -44.56079018 39.70014286 -44.9375 29.5 C-44.59822268 20.15682456 -42.68318525 12.66204809 -35.97265625 5.890625 C-25.81202556 -2.6067582 -12.38571218 -5.78753979 0 0 Z " fill="#1D1F1E" transform="translate(990.5625,334.125)"/>
<path d="M0 0 C4.61760243 3.51394471 8.77187935 7.15781902 12 12 C12 13.32 12 14.64 12 16 C12.66 16 13.32 16 14 16 C16.47056837 24.14675023 16.30692 33.59705462 12.3125 41.125 C7.49530158 48.73347226 0.70682448 55.19737409 -8 58 C-18.90596178 59.07190024 -28.22348982 58.02256033 -37 51.0625 C-39.60965445 48.64933718 -41.07365168 46.49953808 -42 43 C-42.66 43 -43.32 43 -44 43 C-47.57781489 33.18230558 -48.62802872 23.01032007 -45 13 C-40.85512593 4.82771793 -33.05552651 -0.23954081 -24.6328125 -3.3046875 C-16.07230601 -5.56547408 -7.73517672 -4.20100115 0 0 Z " fill="#FCFEFD" transform="translate(118,1071)"/>
<path d="M0 0 C7.87643824 4.26064642 13.62612928 10.19140026 16.890625 18.5625 C19.54788661 28.36779535 17.530758 36.69436506 12.671875 45.4453125 C8.12660403 52.62587356 1.7262264 56.87239469 -6.328125 59.4453125 C-16.51092389 61.04176826 -24.9181834 59.46298332 -33.328125 53.4453125 C-39.47342594 47.95630583 -43.93495524 42.35993446 -44.6015625 34.02734375 C-44.86584482 23.89313309 -44.29696653 15.66834178 -37.765625 7.6328125 C-27.72375646 -2.87395736 -13.34635877 -5.51598065 0 0 Z " fill="#1D1F1E" transform="translate(571.328125,816.5546875)"/>
<path d="M0 0 C2.01601395 1.70906446 3.86860495 3.48548888 5.703125 5.38671875 C6.2084375 5.87140625 6.71375 6.35609375 7.234375 6.85546875 C12.67857783 12.55289031 13.1028973 20.21579281 12.97265625 27.74609375 C12.49271629 32.44811423 11.13705017 36.89716732 9.703125 41.38671875 C9.043125 41.38671875 8.383125 41.38671875 7.703125 41.38671875 C7.45949219 42.13695312 7.21585938 42.8871875 6.96484375 43.66015625 C5.53953219 46.7402413 4.20548784 47.98390476 1.515625 50.01171875 C0.77957031 50.58148437 0.04351563 51.15125 -0.71484375 51.73828125 C-8.79342808 56.89586459 -16.98026821 57.69901366 -26.296875 56.38671875 C-36.299269 53.65565034 -42.18990402 47.18078538 -47.296875 38.38671875 C-50.38406402 30.96158246 -50.68051428 22.19406081 -48.45703125 14.46875 C-44.36477535 5.5815276 -37.45815364 -1.16033745 -28.296875 -4.61328125 C-18.77907432 -7.61890252 -8.09907307 -5.68863466 0 0 Z " fill="#FCFEFD" transform="translate(985.296875,1042.61328125)"/>
<path d="M0 0 C5.25882204 2.97012343 9.42484153 6.54351229 12.7734375 11.56640625 C12.7734375 12.88640625 12.7734375 14.20640625 12.7734375 15.56640625 C13.4334375 15.56640625 14.0934375 15.56640625 14.7734375 15.56640625 C17.93116145 21.88185414 16.16886697 32.45237301 14.2109375 39.00390625 C10.68470577 48.09401919 5.07016088 53.44031901 -3.77734375 57.4921875 C-11.86635136 60.01141411 -20.88776757 60.07797602 -28.7265625 56.62890625 C-37.20936355 51.60788911 -43.6663465 43.04515944 -46.2265625 33.56640625 C-47.38312786 23.2912361 -46.012646 15.76159048 -39.6875 7.57421875 C-29.13765153 -4.07561392 -13.98524371 -6.44202171 0 0 Z " fill="#1D1F1E" transform="translate(841.2265625,680.43359375)"/>
<path d="M0 0 C6.28032737 3.51985668 12.62308607 7.85189511 15.33984375 14.75 C18.11472207 24.71900731 19.00370563 34.75763935 14.390625 44.33984375 C9.66447675 51.29593519 3.59052332 56.27321098 -4.42578125 58.9453125 C-13.29825329 60.54838884 -22.94373823 60.45026826 -30.609375 55.33984375 C-33.234375 53.15234375 -33.234375 53.15234375 -35.609375 50.33984375 C-36.19847656 49.64375 -36.78757812 48.94765625 -37.39453125 48.23046875 C-44.58148281 39.43493872 -45.73418339 31.63479466 -44.609375 20.33984375 C-42.25783587 12.40339918 -37.16404923 6.00886899 -30.04296875 1.8359375 C-20.06205082 -3.26348345 -10.52815401 -4.77163109 0 0 Z " fill="#FCFEFD" transform="translate(390.609375,1011.66015625)"/>
<path d="M0 0 C6.12050533 4.67987283 12.79998112 9.93240319 14 18 C14.12041097 20.63784028 14.18508041 23.23765018 14.1875 25.875 C14.19974609 26.56980469 14.21199219 27.26460937 14.22460938 27.98046875 C14.24856505 36.46077673 11.24069465 42.53029289 6 49 C-0.73075408 55.42481071 -7.52395426 58.10626697 -16.75 58.5625 C-25.06143224 58.36630739 -31.89250683 55.72917143 -38.078125 50.11328125 C-42 45.74240654 -42 45.74240654 -42 43 C-42.66 43 -43.32 43 -44 43 C-48.13814297 34.75681921 -48.22818687 26.06518884 -47 17 C-44.18683593 8.51928927 -37.34414812 2.55538125 -29.8125 -1.875 C-20.16218504 -5.73512598 -8.95459938 -5.35282888 0 0 Z " fill="#1D1F1E" transform="translate(453,670)"/>
<path d="M0 0 C7.38308495 4.53022923 13.02864694 10.23428112 15.6015625 18.5859375 C17.43870072 27.27843714 17.21129104 35.42651585 12.65234375 43.1640625 C12.16765625 43.88207031 11.68296875 44.60007812 11.18359375 45.33984375 C10.76078125 45.98566406 10.33796875 46.63148437 9.90234375 47.296875 C5.03585765 53.79023873 -2.82504615 58.16539466 -10.81640625 59.33984375 C-19.74738054 60.42332417 -27.55255357 58.01184488 -34.921875 52.87109375 C-40.87658899 47.50790764 -45.152347 39.95559987 -46.29296875 32.02734375 C-46.54560725 22.28927811 -45.06608503 14.58857557 -38.75390625 7.02734375 C-28.34450591 -3.56555564 -13.73413881 -6.50808264 0 0 Z " fill="#FCFEFD" transform="translate(302.81640625,1039.66015625)"/>
<path d="M0 0 C8.18799541 4.90175104 13.1430535 9.54905777 16.05078125 18.6640625 C17.84563286 27.74757241 17.12828268 37.47150708 13.5 45.9375 C12.84 45.9375 12.18 45.9375 11.5 45.9375 C11.23058594 46.535625 10.96117187 47.13375 10.68359375 47.75 C7.24649813 54.10238794 0.95787845 57.07977709 -5.66796875 59.24609375 C-14.76298212 61.4665315 -22.60525491 59.62481103 -30.6875 55.1875 C-34.12729498 52.43566402 -36.77092202 49.3750112 -39.5 45.9375 C-40.11875 45.215625 -40.7375 44.49375 -41.375 43.75 C-42.5 41.9375 -42.5 41.9375 -42.5 37.9375 C-43.16 37.9375 -43.82 37.9375 -44.5 37.9375 C-44.60901505 35.10310863 -44.68777904 32.27299797 -44.75 29.4375 C-44.78351563 28.64601563 -44.81703125 27.85453125 -44.8515625 27.0390625 C-44.9926875 18.43043753 -41.4686515 12.05803416 -35.65234375 5.8359375 C-25.87766217 -2.78565097 -12.05664402 -5.56460493 0 0 Z " fill="#FCFEFD" transform="translate(1075.5,1059.0625)"/>
<path d="M0 0 C0.70326416 0.00829834 1.40652832 0.01659668 2.13110352 0.02514648 C12.06920786 0.34750679 18.91914895 4.8458691 26.125 11.4375 C30.98462658 17.55122376 31.47137924 25.5277564 31.4375 33.0625 C31.45361328 33.78695312 31.46972656 34.51140625 31.48632812 35.2578125 C31.49067431 40.05599711 30.6443426 43.2230852 28.125 47.4375 C27.465 47.4375 26.805 47.4375 26.125 47.4375 C25.96 48.13875 25.795 48.84 25.625 49.5625 C22.57703663 55.40442979 16.05700543 58.93287548 10.125 61.4375 C1.52402612 64.06557535 -6.24387968 62.52002974 -14.25 58.84375 C-21.2090989 55.1156613 -26.37438427 47.43873145 -29.875 40.4375 C-30.45355665 30.42712441 -31.01088204 19.24812937 -24.421875 11.03125 C-17.63628444 4.04003549 -9.9034919 -0.15144413 0 0 Z " fill="#1D1F1E" transform="translate(628.875,876.5625)"/>
<path d="M0 0 C8.17951896 4.89667661 13.15897825 9.54655991 16.046875 18.6640625 C17.6460091 26.68730428 17.79371853 36.72266198 13.81640625 43.984375 C8.17834939 52.34944452 2.09597511 56.73884163 -7.5 59.9375 C-17.31835898 60.77447486 -25.67471798 59.16215616 -33.5 52.9375 C-35.28201386 51.00825423 -36.8718688 49.00566665 -38.5 46.9375 C-39.00789062 46.44765625 -39.51578125 45.9578125 -40.0390625 45.453125 C-45.13034276 40.17126206 -44.9787961 32.6903549 -44.91894531 25.80200195 C-44.7175712 20.22302359 -43.85825216 16.36838793 -40.5 11.9375 C-40.03722656 11.26460938 -39.57445312 10.59171875 -39.09765625 9.8984375 C-29.99765309 -1.98274021 -13.71877969 -6.33174447 0 0 Z " fill="#1D1F1E" transform="translate(967.5,425.0625)"/>
<path d="M0 0 C8.36932417 4.84835849 13.04706359 9.54404914 15.85546875 18.94921875 C17.0512363 25.42085765 16.7992481 31.88729156 16.5 38.4375 C15.84 38.4375 15.18 38.4375 14.5 38.4375 C14.17 40.4175 13.84 42.3975 13.5 44.4375 C12.84 44.4375 12.18 44.4375 11.5 44.4375 C11.273125 44.994375 11.04625 45.55125 10.8125 46.125 C6.86695983 53.07666602 -0.13383174 56.90946592 -7.5 59.4375 C-17.56421491 60.51982479 -26.5051291 58.83339672 -34.5 52.4375 C-39.76805593 47.14303777 -44.6362545 41.45043334 -44.92578125 33.73828125 C-44.90871707 32.07517967 -44.87061795 30.41217338 -44.8125 28.75 C-44.80283203 27.90888672 -44.79316406 27.06777344 -44.78320312 26.20117188 C-44.71459846 22.43984646 -44.51922096 19.07479031 -43.5 15.4375 C-42.84 15.4375 -42.18 15.4375 -41.5 15.4375 C-41.40847656 14.69628906 -41.31695313 13.95507812 -41.22265625 13.19140625 C-39.80120384 7.77452003 -34.93954625 3.95140282 -30.296875 1.0703125 C-20.66967251 -3.81460136 -9.862351 -4.68804548 0 0 Z " fill="#FDFEFD" transform="translate(890.5,1013.5625)"/>
<path d="M0 0 C6.18261197 4.60901254 12.76590011 9.95657245 14 18 C14.77370804 29.49146691 14.2726711 38.79019309 7 48.25 C0.39672565 55.13307411 -7.19783565 58.33945343 -16.6875 58.625 C-27.38507364 58.14421017 -34.30915604 54.14369627 -41.47265625 46.41015625 C-47.18217737 39.33567673 -47.83646644 29.78975386 -47 21 C-45.74295008 12.92252078 -42.21118164 7.29255309 -36 2 C-24.6075757 -5.15656039 -12.11886027 -6.55639059 0 0 Z " fill="#FDFEFD" transform="translate(726,931)"/>
<path d="M0 0 C5.65885268 4.15949855 11.85045627 9.13809573 13.921875 16.11328125 C14.44700785 19.82309071 14.59885018 23.49810977 14.66015625 27.2421875 C14.6744165 27.96277344 14.68867676 28.68335938 14.70336914 29.42578125 C14.6241684 37.96772731 10.91456212 44.38799859 5.28515625 50.6796875 C-1.28973742 56.78156724 -9.3547409 59.29061094 -18.2421875 58.9609375 C-26.74176513 57.9941609 -35.04431477 54.12667454 -40.54296875 47.46484375 C-46.92454876 38.15579135 -47.79942791 30.08521471 -46.35546875 18.89453125 C-44.50074213 10.98687923 -39.20052277 4.66227057 -32.48828125 0.19921875 C-22.69957474 -4.87844362 -9.64682771 -5.70113023 0 0 Z " fill="#1D1E1D" transform="translate(299.71484375,328.3203125)"/>
<path d="M0 0 C0.66 0.33 1.32 0.66 2 1 C-1.3 4.3 -4.6 7.6 -8 11 C-8 7.0234755 -6.61988497 5.9109833 -4 3 C-1.75 1.1875 -1.75 1.1875 0 0 Z " fill="#27392C" transform="translate(476,746)"/>
<path d="M0 0 C0.66 0.33 1.32 0.66 2 1 C-1.3 4.3 -4.6 7.6 -8 11 C-8 8 -8 8 -5.6875 5.5 C-4.800625 4.675 -3.91375 3.85 -3 3 C-2.401875 2.401875 -1.80375 1.80375 -1.1875 1.1875 C-0.795625 0.795625 -0.40375 0.40375 0 0 Z " fill="#293D2E" transform="translate(684,819)"/>
<path d="M0 0 C0.66 0.33 1.32 0.66 2 1 C-0.97 3.97 -3.94 6.94 -7 10 C-7 7 -7 7 -4.625 4.4375 C-3.75875 3.633125 -2.8925 2.82875 -2 2 C-1.34 1.34 -0.68 0.68 0 0 Z " fill="#27392C" transform="translate(899,516)"/>
</svg>
