<?xml version="1.0" encoding="UTF-8"?>
<svg version="1.1" xmlns="http://www.w3.org/2000/svg" width="538" height="538">
<path d="M0 0 C177.54 0 355.08 0 538 0 C538 177.54 538 355.08 538 538 C360.46 538 182.92 538 0 538 C0 360.46 0 182.92 0 0 Z " fill="#E85443" transform="translate(0,0)"/>
<path d="M0 0 C0.86625 0.5775 1.7325 1.155 2.625 1.75 C3.49125 2.28625 4.3575 2.8225 5.25 3.375 C9.58195477 7.70695477 11.79702009 13.06998138 12.1875 19.1875 C11.81131918 25.70796762 9.30955496 31.32134686 4.453125 35.71484375 C-0.77609079 39.25372386 -5.45351526 40.65289385 -11.765625 40.26953125 C-18.7184558 38.88521015 -23.44052279 34.42027598 -27.375 28.75 C-29.89233913 23.23582858 -30.45850564 17.91828659 -28.5 12.19140625 C-25.79889473 6.21165676 -23.05636302 3.01152322 -17.375 -0.25 C-11.72822655 -2.13225782 -5.56950016 -2.06277784 0 0 Z " fill="#BA4335" transform="translate(327.375,150.25)"/>
<path d="M0 0 C6.21518888 3.1544426 10.16056078 7.41918234 12.39453125 14.12109375 C13.01510882 20.27913273 12.19131136 24.635102 9.39453125 30.12109375 C9.08515625 30.90484375 8.77578125 31.68859375 8.45703125 32.49609375 C7.39453125 34.12109375 7.39453125 34.12109375 5.26953125 34.87109375 C4.65078125 34.95359375 4.03203125 35.03609375 3.39453125 35.12109375 C3.39453125 35.78109375 3.39453125 36.44109375 3.39453125 37.12109375 C-2.23445613 40.05795673 -7.26402898 41.31192901 -13.60546875 40.12109375 C-19.45055304 37.4255002 -24.0035397 33.41142705 -27.60546875 28.12109375 C-29.57016892 22.22699324 -29.23270179 15.7182424 -26.60546875 10.12109375 C-19.64083212 0.71524429 -11.86836704 -4.00357209 0 0 Z " fill="#BA4335" transform="translate(426.60546875,149.87890625)"/>
<path d="M0 0 C4.1980958 3.05703122 8.24225493 6.83023026 9.6015625 11.9453125 C10.60109585 19.52008937 9.32127954 24.53269266 5.30078125 31.02734375 C0.66072107 35.66740393 -4.42580441 38.66489125 -11.07421875 39.02734375 C-17.30095637 38.66904003 -22.48536656 36.22598444 -26.7109375 31.6171875 C-31.43872526 25.23670603 -32.08130305 19.13291467 -31.07421875 11.40234375 C-28.547629 5.47491173 -24.7458965 1.36147997 -19.07421875 -1.59765625 C-12.44907675 -3.58519885 -6.07938272 -3.42346001 0 0 Z " fill="#BA4335" transform="translate(280.07421875,151.59765625)"/>
<path d="M0 0 C4.46026538 2.54742799 8.04218349 6.18794213 10.8125 10.5 C12.46267806 16.66445827 12.49253311 22.65265503 9.8125 28.5 C6.2531604 33.86242611 2.02233324 37.5962555 -4.1875 39.5 C-10.27950115 40.42430362 -14.76473573 39.26907112 -20.1875 36.5 C-20.1875 35.84 -20.1875 35.18 -20.1875 34.5 C-20.765 34.479375 -21.3425 34.45875 -21.9375 34.4375 C-25.45183341 32.97319441 -26.71630866 29.83608177 -28.1875 26.5 C-30.04866891 20.28788654 -30.10165545 14.59595611 -27.125 8.75 C-21.31391269 -0.71992007 -10.35036982 -4.58893349 0 0 Z " fill="#BA4335" transform="translate(128.1875,150.5)"/>
<path d="M0 0 C5.48627519 2.78900946 8.4959529 5.75158896 11.5859375 11.0625 C13.48943791 17.24269613 13.48391326 22.99831973 10.5234375 28.8125 C7.34759786 33.98794237 3.40445864 37.12299295 -2.4140625 39.0625 C-9.87274315 39.72767474 -15.39955616 39.72681104 -21.4140625 35.0625 C-25.9585509 30.40865226 -28.72703421 26.53024713 -28.9140625 19.9375 C-28.79306515 13.14652351 -27.19655837 8.89533794 -22.4140625 4.0625 C-15.2355865 -1.56131547 -8.7043393 -3.38032594 0 0 Z " fill="#BA4335" transform="translate(277.4140625,349.9375)"/>
<path d="M0 0 C7.31599719 2.56701656 13.49642032 5.86307844 17 13 C18.57656897 19.95418092 18.61787107 26.69631956 15 33 C11.26919865 37.18928537 6.89971637 40.72537505 1.1953125 41.265625 C-9.01930502 41.21364221 -9.01930502 41.21364221 -14 39 C-14 38.34 -14 37.68 -14 37 C-14.5775 36.79375 -15.155 36.5875 -15.75 36.375 C-19.25528354 34.23288228 -21.39166553 30.99420904 -22.58984375 27.06640625 C-23.93289431 20.29998961 -23.325124 15.02502386 -19.703125 9.08203125 C-14.58893598 2.83005248 -7.96010028 -0.52197379 0 0 Z " fill="#BA4335" transform="translate(122,348)"/>
<path d="M0 0 C5.79759646 2.4108817 10.38865314 6.23327569 13 12 C14.28107419 18.3097684 14.53389256 23.96692248 12 30 C10 32.9375 10 32.9375 8 35 C7.34 35 6.68 35 6 35 C6 35.66 6 36.32 6 37 C-0.60229248 40.74697631 -6.54865791 41.17521167 -14 40 C-19.2679017 37.38072297 -23.6351258 33.46877158 -26 28 C-27.77875027 21.78726354 -27.95187612 16.17662973 -25 10.3125 C-18.80480748 0.53061707 -11.45957318 -1.96449826 0 0 Z " fill="#EA7965" transform="translate(126,249)"/>
<path d="M0 0 C4.5842999 2.71696797 8.4121917 5.65587327 10.8125 10.5 C11.82319453 16.85293705 12.19172893 23.83283568 9.125 29.6875 C4.99897375 34.70564004 0.08781288 38.9124984 -6.546875 39.82421875 C-13.8408745 40.14471267 -17.95423207 38.37401594 -23.4375 33.5 C-28.38108337 27.85019044 -29.6269601 23.66849413 -29.52734375 16.1640625 C-28.84646492 10.82659859 -26.35311724 6.48554404 -22.40234375 2.86328125 C-15.7232398 -2.08577879 -7.74186655 -3.43242912 0 0 Z " fill="#BA4335" transform="translate(378.1875,150.5)"/>
<path d="M0 0 C2.3220804 1.46678078 4.34161483 3.04785959 6.40625 4.85546875 C7.416875 5.65984375 8.4275 6.46421875 9.46875 7.29296875 C12.67858823 11.53534236 12.13116263 17.0797957 11.95703125 22.14453125 C11.04569761 28.28472247 8.42901967 32.21054529 3.8125 36.25 C-1.40366755 40.01575362 -7.3376718 40.72631484 -13.59375 39.85546875 C-20.23463006 37.45528033 -24.03854025 33.85488521 -27.59375 27.85546875 C-29.48297532 22.1877928 -29.8016825 15.83741281 -27.53515625 10.2421875 C-21.44210289 0.41734537 -11.3594094 -5.01251047 0 0 Z " fill="#BA4335" transform="translate(178.59375,150.14453125)"/>
<path d="M0 0 C2.734375 1.42578125 2.734375 1.42578125 5 3 C6.2684375 3.8353125 6.2684375 3.8353125 7.5625 4.6875 C11.9555356 8.85525173 14.20898487 13.47568797 14.4375 19.5625 C14.14155965 25.29387817 12.37689689 29.48541342 8.5 33.75 C7.675 34.4925 6.85 35.235 6 36 C5.46375 36.5775 4.9275 37.155 4.375 37.75 C0.61511505 41.16807723 -5.07609141 40.25551968 -9.8125 40.234375 C-13.69266774 39.94906855 -15.83107942 39.17297411 -19 37 C-19 36.34 -19 35.68 -19 35 C-19.598125 34.773125 -20.19625 34.54625 -20.8125 34.3125 C-23.81574602 32.51055239 -24.60642503 31.25167492 -26 28 C-27.41911984 20.47401197 -27.52050883 14.07159119 -23.375 7.375 C-16.39457545 0.39457545 -9.93909301 -1.52713337 0 0 Z " fill="#EA7965" transform="translate(425,249)"/>
<path d="M0 0 C1.65234375 0.80859375 1.65234375 0.80859375 3.90234375 2.30859375 C3.90234375 2.96859375 3.90234375 3.62859375 3.90234375 4.30859375 C4.50046875 4.55609375 5.09859375 4.80359375 5.71484375 5.05859375 C8.74329229 6.78913577 10.43418309 8.79110746 11.46875 12.14453125 C12.81399136 18.85861877 12.72566659 26.42849988 8.90234375 32.30859375 C2.97379443 37.97281284 -2.45309594 40.74266997 -10.6328125 40.5625 C-16.08249223 40.00112253 -20.15757814 36.92920606 -24.09765625 33.30859375 C-28.42469097 27.12711558 -28.96989093 20.70719619 -28.09765625 13.30859375 C-26.06248112 7.50089888 -21.86764505 3.54692718 -16.69921875 0.375 C-11.39332252 -1.79993945 -5.44124385 -1.79348261 0 0 Z " fill="#BA4335" transform="translate(227.09765625,149.69140625)"/>
<path d="M0 0 C5.60736218 3.17713364 9.55524632 7.19029236 11.75 13.3125 C12.95016303 20.92232494 11.14447301 27.0313946 6.75 33.3125 C3.75 35.8125 3.75 35.8125 0.75 37.3125 C-0.013125 37.725 -0.77625 38.1375 -1.5625 38.5625 C-7.07318406 40.10036532 -12.191046 40.09966276 -17.4375 37.6875 C-22.62682782 34.72512923 -26.91905937 31.39089824 -28.6875 25.5 C-29.82163357 19.52002297 -29.28030972 12.65161712 -26.25 7.3125 C-19.63820467 -0.97343581 -9.9285745 -4.59967858 0 0 Z " fill="#BA4335" transform="translate(427.25,399.6875)"/>
<path d="M0 0 C5.97676009 3.40852853 9.41864535 7.76591285 11.6875 14.25 C12.91279388 20.48888166 11.31526322 25.50956642 8.3203125 31.01171875 C5.09370718 35.43479255 0.78088515 37.55220495 -4.3125 39.25 C-11.82949284 40.15441137 -17.07767578 38.4237707 -23.07421875 33.9296875 C-28.1262067 29.45262312 -28.94947199 24.7350689 -29.625 18.25 C-28.95549759 11.82277686 -26.80645409 6.86263796 -21.97265625 2.50390625 C-15.28296405 -2.54877892 -7.5429756 -3.54716139 0 0 Z " fill="#BA4335" transform="translate(427.3125,100.75)"/>
<path d="M0 0 C4.22795745 2.77082212 7.09306899 5.80757634 9.1875 10.43359375 C10.33302136 17.90038627 9.9432787 23.81579117 6.1875 30.43359375 C5.5275 30.43359375 4.8675 30.43359375 4.1875 30.43359375 C3.94257813 31.0471875 3.69765625 31.66078125 3.4453125 32.29296875 C1.19791722 36.11772842 -2.7267591 37.14612556 -6.8125 38.43359375 C-12.97933245 39.60599536 -18.6439311 37.88566376 -23.8125 34.43359375 C-29.62564153 28.27993347 -31.11121907 23.78082685 -31.03125 15.4140625 C-30.76256799 11.75327015 -29.87995371 9.46093668 -27.8125 6.43359375 C-27.27625 5.56734375 -26.74 4.70109375 -26.1875 3.80859375 C-18.79515925 -3.583747 -9.13973404 -4.58573461 0 0 Z " fill="#BA4335" transform="translate(180.8125,101.56640625)"/>
<path d="M0 0 C4.26710306 2.66787354 7.59838747 4.98338203 9.25 9.875 C10.10823548 16.70541953 10.96140027 24.43999008 6.875 30.375 C4.25 32.875 4.25 32.875 2.25 32.875 C2.25 33.535 2.25 34.195 2.25 34.875 C-4.36251691 38.64353167 -10.28677852 38.89852752 -17.75 37.875 C-23.55022344 35.49357078 -27.17229209 30.82334665 -29.8984375 25.296875 C-31.70873556 20.14832089 -31.7169077 15.55422884 -29.86328125 10.41796875 C-27.19265117 5.06783607 -23.94866735 1.76449185 -18.75 -1.125 C-17.96625 -1.57875 -17.1825 -2.0325 -16.375 -2.5 C-10.52497648 -3.89286274 -5.30564525 -2.67935085 0 0 Z " fill="#BA4335" transform="translate(379.75,351.125)"/>
<path d="M0 0 C4.74186192 2.35510365 9.72902539 4.87449496 12.55078125 9.51171875 C14.60502969 16.02753802 14.78359651 24.19706699 12.2265625 30.56640625 C9.02607925 35.22245174 4.76767803 38.43035207 -0.69921875 39.890625 C-6.12999362 40.58483856 -11.58742172 40.88233811 -16.57421875 38.328125 C-21.01264116 34.86615552 -24.89269438 31.31019812 -26.69921875 25.890625 C-26.84401505 23.93587491 -26.91989377 21.9755112 -26.94921875 20.015625 C-26.98789063 18.47261719 -26.98789063 18.47261719 -27.02734375 16.8984375 C-26.6540478 13.47655793 -25.64804895 11.69116618 -23.69921875 8.890625 C-23.18359375 8.065625 -22.66796875 7.240625 -22.13671875 6.390625 C-16.22915284 0.33158304 -8.15020423 -3.34972214 0 0 Z " fill="#BA4335" transform="translate(176.69921875,349.109375)"/>
<path d="M0 0 C3.6340479 2.5893524 5.60317222 5.12007754 7.4375 9.1875 C8.3307723 15.24190111 8.16885787 21.17013358 5.8125 26.875 C1.6140442 31.79732749 -3.50123735 36.21119961 -10.02734375 37.35546875 C-16.45103615 37.7731781 -21.88671351 35.89073806 -27 32 C-29.13536047 29.16588313 -30.62292677 26.26014082 -32 23 C-32.33 22.34 -32.66 21.68 -33 21 C-33.86789285 14.44120978 -32.99961725 9.52798865 -29.4921875 3.91015625 C-21.67307707 -6.09912385 -10.23799554 -5.44789548 0 0 Z " fill="#BA4335" transform="translate(132,402)"/>
<path d="M0 0 C4.83067183 2.57052224 7.564715 5.47366153 9.80859375 10.44921875 C10.70150976 16.50120504 10.58479547 22.4702048 8.12109375 28.13671875 C3.58371332 33.64639499 -0.43747082 37.38197829 -7.7265625 38.6171875 C-14.15064872 39.03639595 -19.45652183 37.03494159 -24.62890625 33.26171875 C-29.06546781 28.04342895 -31.07620461 22.6311081 -30.96484375 15.8046875 C-30.23325882 10.2667597 -27.90879826 5.20007052 -23.62109375 1.5546875 C-15.56674786 -3.60187712 -8.74884296 -3.79516019 0 0 Z " fill="#BA4335" transform="translate(129.62890625,101.73828125)"/>
<path d="M0 0 C2.21934004 1.49183854 2.90337381 2.81187333 3.8828125 5.265625 C4.5428125 5.265625 5.2028125 5.265625 5.8828125 5.265625 C9.81727307 11.00337999 9.74604668 17.50362395 8.8828125 24.265625 C7.49609375 26.97265625 7.49609375 26.97265625 5.8828125 29.265625 C5.1609375 30.296875 4.4390625 31.328125 3.6953125 32.390625 C-0.26721107 36.99379609 -5.15693708 38.01268946 -10.9921875 38.765625 C-16.92269776 38.49658805 -22.73349672 35.75271789 -26.828125 31.48046875 C-31.49483741 25.12780532 -32.12405529 18.93111842 -31.1171875 11.265625 C-28.79481204 5.91169232 -25.56033677 1.63827981 -20.1171875 -0.734375 C-19.3540625 -1.12625 -18.5909375 -1.518125 -17.8046875 -1.921875 C-11.10402036 -3.94765809 -6.20913508 -2.72596174 0 0 Z " fill="#BA4335" transform="translate(181.1171875,400.734375)"/>
<path d="M0 0 C6.22929933 3.12503183 10.17454366 7.41816223 12.40625 14.11328125 C13.14020373 21.3963606 11.6849981 26.61377524 7.65625 32.80078125 C2.53572525 38.06354279 -1.26194391 39.40397092 -8.53125 39.73828125 C-14.28164014 39.56717506 -17.79883117 38.72165388 -22.04296875 34.8046875 C-27.46019887 28.89622241 -28.69747234 24.03075329 -28.59375 16.11328125 C-27.39453563 9.35407295 -24.54055898 5.33503604 -19.09375 1.30078125 C-13.14357794 -2.18954314 -6.45267303 -2.205959 0 0 Z " fill="#BA4335" transform="translate(426.59375,349.88671875)"/>
<path d="M0 0 C6.10936328 3.47371352 9.61159977 7.55965716 11.75 14.3125 C12.71690591 20.85680222 11.46445882 25.86691993 7.75 31.3125 C4.36090196 35.60599218 1.24711797 38.23463373 -4.25 39.3125 C-11.1014889 40.0026683 -16.62060236 39.23967203 -22.16796875 34.765625 C-26.55970128 30.67271139 -28.9273097 27.28517619 -29.42578125 21.1484375 C-29.57458061 16.46517353 -29.05094496 12.70230333 -27.25 8.3125 C-26.59 8.3125 -25.93 8.3125 -25.25 8.3125 C-24.981875 7.714375 -24.71375 7.11625 -24.4375 6.5 C-22.228097 2.4300471 -19.62063931 0.61274777 -15.26953125 -1.109375 C-9.9177403 -2.64141574 -5.04768816 -2.338477 0 0 Z " fill="#BA4335" transform="translate(327.25,100.6875)"/>
<path d="M0 0 C5.12204812 3.97711972 8.3555583 8.59233702 9.31640625 15.1640625 C9.70093146 22.38321331 7.19832913 27.32635646 2.6875 32.8125 C-2.37914074 36.9365099 -7.26633974 38.58697844 -13.7265625 38.35546875 C-19.40768686 37.46718298 -24.41096739 34.48629077 -28 30 C-28 29.34 -28 28.68 -28 28 C-28.66 28 -29.32 28 -30 28 C-32.61887033 21.61650357 -32.86572936 15.95366486 -30.9375 9.375 C-27.97174295 4.20884257 -24.49588245 0.24794122 -19.125 -2.4375 C-12.05744581 -3.70965975 -6.40978607 -3.6281808 0 0 Z " fill="#BA4335" transform="translate(330,401)"/>
<path d="M0 0 C1.8691531 0.94303425 3.27288339 1.99713114 4.8515625 3.37109375 C5.82802734 4.12326172 5.82802734 4.12326172 6.82421875 4.890625 C10.27716445 8.04152376 11.68860277 10.34378679 12.4296875 15.015625 C12.62628321 22.17030467 12.41526646 26.63176659 7.8515625 32.37109375 C6 34.234375 6 34.234375 4.2265625 35.68359375 C3.63617188 36.17472656 3.04578125 36.66585937 2.4375 37.171875 C-2.52900556 40.9273361 -9.24426025 40.0386352 -15.1484375 39.37109375 C-18.54061604 37.95025853 -20.71372361 36.09914666 -23.1484375 33.37109375 C-23.67308594 32.80261719 -24.19773438 32.23414063 -24.73828125 31.6484375 C-28.55185631 26.67283125 -28.95150838 21.64479497 -28.6953125 15.49609375 C-27.8329406 10.56825432 -25.72400873 7.75511652 -22.1484375 4.37109375 C-21.6534375 3.84515625 -21.1584375 3.31921875 -20.6484375 2.77734375 C-15.06844964 -2.24464532 -6.92245461 -2.02639126 0 0 Z " fill="#EDA188" transform="translate(178.1484375,249.62890625)"/>
<path d="M0 0 C4.56028919 2.50466649 7.49946437 6.40908499 9.78515625 10.98046875 C10.18359375 14.35546875 10.18359375 14.35546875 10.16015625 17.98046875 C10.17175781 19.77484375 10.17175781 19.77484375 10.18359375 21.60546875 C9.75677791 25.22084999 8.86632302 27.04204718 6.78515625 29.98046875 C6.01171875 31.24890625 6.01171875 31.24890625 5.22265625 32.54296875 C1.17944102 36.58618398 -3.85647754 38.74809415 -9.5859375 39.14453125 C-14.74875295 38.76872839 -20.12746047 37.26497317 -24.21484375 33.98046875 C-24.93359375 31.84375 -24.93359375 31.84375 -25.21484375 29.98046875 C-25.87484375 29.98046875 -26.53484375 29.98046875 -27.21484375 29.98046875 C-30.95208569 24.37460585 -31.25484516 18.56714437 -30.21484375 11.98046875 C-27.64968049 6.03034779 -23.88565387 2.00490082 -18.21484375 -1.01953125 C-12.06514167 -3.06943194 -5.93780964 -2.51442038 0 0 Z " fill="#BA4335" transform="translate(279.21484375,201.01953125)"/>
<path d="M0 0 C2.5076337 1.485326 2.93531436 2.68444178 4.13671875 5.265625 C5.12671875 5.595625 6.11671875 5.925625 7.13671875 6.265625 C10.89587549 11.52844444 9.93742694 19.16258937 9.13671875 25.265625 C6.66190466 31.05875895 2.82958999 34.30376314 -2.86328125 36.828125 C-9.29023228 38.91881991 -13.77460111 38.97087043 -19.98828125 36.203125 C-25.6987495 33.15232689 -28.78962912 29.4865814 -30.86328125 23.265625 C-31.37888979 16.94942043 -31.48251706 11.69447871 -27.86328125 6.265625 C-27.32703125 5.399375 -26.79078125 4.533125 -26.23828125 3.640625 C-18.43510943 -4.16254682 -9.69681336 -3.74210868 0 0 Z " fill="#BA4335" transform="translate(279.86328125,400.734375)"/>
<path d="M0 0 C1.83526264 1.21677104 3.17845671 2.47903326 4.6484375 4.11328125 C5.14988281 4.5515625 5.65132813 4.98984375 6.16796875 5.44140625 C10.42006698 9.89263856 10.33430902 15.41817029 10.23803711 21.26220703 C9.98625906 25.91602255 9.48791012 29.36449429 6.23828125 32.78515625 C5.71363281 33.2234375 5.18898438 33.66171875 4.6484375 34.11328125 C4.11347656 34.6134375 3.57851563 35.11359375 3.02734375 35.62890625 C-2.15833764 39.68823534 -7.57619807 39.90478313 -14 39.6640625 C-19.79959776 38.71098175 -23.04877422 35.92930094 -26.68359375 31.484375 C-30.74848771 25.75330543 -31.300196 19.93614526 -30.3515625 13.11328125 C-28.85026042 9.61739212 -26.8784567 6.9404566 -24.3515625 4.11328125 C-23.87976563 3.56285156 -23.40796875 3.01242188 -22.921875 2.4453125 C-17.16881066 -2.8755268 -6.9896115 -2.63561762 0 0 Z " fill="#F3EFCE" transform="translate(279.3515625,249.88671875)"/>
<path d="M0 0 C4.48369882 2.62862215 7.34558095 5.66208841 9.4453125 10.43359375 C10.58307561 17.90434713 10.20339444 23.81173279 6.4453125 30.43359375 C5.7853125 30.43359375 5.1253125 30.43359375 4.4453125 30.43359375 C4.20039063 31.0471875 3.95546875 31.66078125 3.703125 32.29296875 C1.45343202 36.12163879 -2.4687363 37.13740633 -6.5546875 38.43359375 C-13.55408247 39.43350732 -18.75175355 37.43183518 -24.5546875 33.43359375 C-29.88322631 27.87390828 -30.85169827 22.5812408 -30.7734375 15.15625 C-30.49009461 11.62964295 -29.51135895 9.36860093 -27.5546875 6.43359375 C-27.0184375 5.56734375 -26.4821875 4.70109375 -25.9296875 3.80859375 C-18.51046881 -3.61062494 -9.29820645 -4.10884046 0 0 Z " fill="#BA4335" transform="translate(279.5546875,101.56640625)"/>
<path d="M0 0 C0 0.66 0 1.32 0 2 C0.99 2.33 1.98 2.66 3 3 C7.01101698 7.96010269 8.83447885 13.15755931 8.48828125 19.5078125 C7.38402043 25.14395974 4.56748929 29.47169794 0.5 33.4375 C-5.97111228 37.48194517 -12.64939311 38.18791459 -20.09375 36.53515625 C-25.8011738 34.41990489 -28.58973433 30.13971343 -31.8125 25.25 C-33.88328571 19.58258648 -33.87447417 14.24864787 -31.6875 8.625 C-28.56818182 3.77272727 -28.56818182 3.77272727 -27 2 C-26.34 2 -25.68 2 -25 2 C-25 1.34 -25 0.68 -25 0 C-16.33841565 -4.51908749 -8.79780524 -3.91013566 0 0 Z " fill="#BA4335" transform="translate(331,202)"/>
<path d="M0 0 C4.26823071 2.42194012 7.19439534 5.98644693 9.375 10.34765625 C9.4985718 12.4282605 9.55060367 14.51341958 9.5625 16.59765625 C9.57667969 17.7165625 9.59085937 18.83546875 9.60546875 19.98828125 C9.36967313 23.42530209 8.60346663 26.1429607 7.375 29.34765625 C6.715 29.34765625 6.055 29.34765625 5.375 29.34765625 C5.12878906 29.9509375 4.88257813 30.55421875 4.62890625 31.17578125 C2.35449046 35.1152678 -1.50556941 36.70763216 -5.625 38.34765625 C-11.72027575 39.68564361 -16.94811788 38.06348314 -22.31640625 35.08203125 C-27.26644642 31.36321934 -29.94190772 26.63211363 -31.1953125 20.60546875 C-31.6012976 14.37448007 -30.07193792 9.67756644 -26.59765625 4.51953125 C-19.07243587 -3.76566188 -9.79661915 -4.16654991 0 0 Z " fill="#BA4335" transform="translate(379.625,400.65234375)"/>
<path d="M0 0 C0.86625 0.5775 1.7325 1.155 2.625 1.75 C3.49125 2.28625 4.3575 2.8225 5.25 3.375 C9.41333263 7.53833263 11.28428868 12.40760966 12.125 18.1875 C11.44885457 23.00503616 10.11611529 27.54432079 7.625 31.75 C6.30891337 32.45009871 4.97648898 33.1209533 3.625 33.75 C3.295 34.74 2.965 35.73 2.625 36.75 C-3.06826452 39.59663226 -10.5553853 39.88929887 -16.640625 38.07421875 C-18.5625 37.25 -18.5625 37.25 -21.375 35.75 C-21.375 35.09 -21.375 34.43 -21.375 33.75 C-21.98859375 33.51667969 -22.6021875 33.28335938 -23.234375 33.04296875 C-27.22597826 30.63198211 -28.10440989 26.04148292 -29.375 21.75 C-30.21786475 15.74458863 -28.66553511 10.7723957 -25.375 5.75 C-18.20108713 -1.16409309 -9.56650337 -3.5431494 0 0 Z " fill="#BA4335" transform="translate(327.375,350.25)"/>
<path d="M0 0 C2.44629443 1.77965022 4.01572424 3.65944256 5.6484375 6.19921875 C6.2259375 7.08609375 6.8034375 7.97296875 7.3984375 8.88671875 C9.5285302 14.5314644 9.86145173 19.47642839 7.37109375 25.06640625 C5.9126422 27.58392897 4.49546784 29.95024398 2.6484375 32.19921875 C1.9884375 32.19921875 1.3284375 32.19921875 0.6484375 32.19921875 C0.6484375 32.85921875 0.6484375 33.51921875 0.6484375 34.19921875 C-5.77057776 37.62269356 -12.51776094 38.65186378 -19.61328125 36.51953125 C-21.5390625 35.69921875 -21.5390625 35.69921875 -24.3515625 34.19921875 C-24.3515625 33.53921875 -24.3515625 32.87921875 -24.3515625 32.19921875 C-25.3415625 31.86921875 -26.3315625 31.53921875 -27.3515625 31.19921875 C-30.90891675 26.14877778 -33.21888492 20.65642004 -32.84375 14.43359375 C-31.57190101 8.65980312 -28.07519973 2.7777318 -23.3515625 -0.80078125 C-16.0064191 -4.38377803 -7.03075105 -4.08931439 0 0 Z " fill="#BA4335" transform="translate(330.3515625,301.80078125)"/>
<path d="M0 0 C3.5625 1.6875 3.5625 1.6875 6 4 C7.36125 5.2684375 7.36125 5.2684375 8.75 6.5625 C12.82590237 10.9780609 13.36448464 14.01328021 13.375 19.8125 C13.39949219 20.51181641 13.42398438 21.21113281 13.44921875 21.93164062 C13.48342333 28.02575735 11.43829256 31.52089919 7.1328125 35.8984375 C1.4292804 40.09286383 -3.5774927 40.97142852 -10.6171875 40.64453125 C-16.91767047 39.44409281 -20.60178169 36.11049569 -24.43359375 31.140625 C-27.60462776 25.82996597 -28.12197832 20.02099818 -27 14 C-25.47609489 10.51601906 -23.53001262 7.82433176 -21 5 C-20.51660156 4.44957031 -20.03320312 3.89914063 -19.53515625 3.33203125 C-14.13395383 -1.57440454 -6.83732276 -0.88753709 0 0 Z " fill="#EDA188" transform="translate(376,249)"/>
<path d="M0 0 C5.35704296 2.26439547 9.68462649 5.55206234 12 11 C12.61875 12.299375 12.61875 12.299375 13.25 13.625 C14.60911739 19.74102826 14.08592001 25.60192664 11.5 31.3125 C6.15198746 37.06161348 1.54470118 40.3548217 -6.5 40.75 C-12.96281388 40.41741075 -17.46163288 38.65599219 -22 34 C-25.78236392 28.40547286 -27.54580558 22.76798922 -27 16 C-25.01824004 8.74196194 -21.35064912 4.84887826 -15 1 C-10.5130082 -1.2434959 -4.85456753 -0.58944348 0 0 Z " fill="#F3EFCE" transform="translate(325,249)"/>
<path d="M0 0 C2.2308632 1.16613303 3.65645782 2.2160647 5.234375 4.16796875 C5.234375 4.82796875 5.234375 5.48796875 5.234375 6.16796875 C5.894375 6.16796875 6.554375 6.16796875 7.234375 6.16796875 C9.63527445 12.54475768 9.93968038 18.41595989 9.234375 25.16796875 C7.484375 28.73046875 7.484375 28.73046875 5.234375 31.16796875 C4.63625 31.88984375 4.038125 32.61171875 3.421875 33.35546875 C-1.3461092 37.30608423 -6.24343568 38.83810855 -12.3671875 38.56640625 C-18.12174052 37.61043816 -22.79926073 35.34152448 -26.73046875 30.99609375 C-30.21689694 25.84438339 -31.74191927 21.14109389 -31.3359375 14.91015625 C-30.07889714 8.86603067 -27.41036508 4.09615363 -22.38671875 0.43359375 C-14.20513556 -4.0131904 -8.42766115 -3.41555832 0 0 Z " fill="#BA4335" transform="translate(379.765625,101.83203125)"/>
<path d="M0 0 C1.796875 1.48046875 1.796875 1.48046875 3 3 C3 3.66 3 4.32 3 5 C3.66 5 4.32 5 5 5 C8.53073514 11.76724235 8.88983229 17.7935201 7.3125 25.25 C4.30847712 31.54414318 0.81847092 34.77859668 -5.609375 37.30078125 C-11.55438399 39.03959924 -16.19190551 38.71654724 -21.75 35.9375 C-26.92544237 32.76166036 -30.06049295 28.81852114 -32 23 C-32.90591038 15.10563808 -31.84457718 9.37095081 -27 3 C-19.04055965 -4.76045434 -9.76424906 -4.14809881 0 0 Z " fill="#BA4335" transform="translate(231,401)"/>
<path d="M0 0 C4.66186742 2.70916069 9.52687841 6.68283691 11.24609375 11.9609375 C12.49783437 18.81390128 12.12016302 24.94519822 8.6328125 31.078125 C4.72542247 35.72475098 0.96646845 38.74338376 -5.20703125 39.36328125 C-12.69869879 39.57627056 -17.21876188 38.71401621 -23.0546875 33.828125 C-27.81474596 28.16751494 -29.01992438 23.1508229 -28.76953125 15.859375 C-27.95980034 10.2620118 -25.71830108 6.12695255 -21.453125 2.41015625 C-15.01843593 -1.76654193 -7.22628766 -2.81419783 0 0 Z " fill="#BA4335" transform="translate(227.3671875,349.921875)"/>
<path d="M0 0 C4.2713106 2.59628684 8.13459939 5.94902761 9.83984375 10.7890625 C10.27937877 13.50529015 10.35765028 16.12333494 10.375 18.875 C10.38917969 19.89464844 10.40335937 20.91429687 10.41796875 21.96484375 C10.03231417 26.93913419 8.15518195 30.74037711 4.87109375 34.51171875 C0.73308215 38.01606732 -4.56587845 39.51625846 -9.8125 40.5 C-16.61094352 39.22529184 -22.17817112 36.30194953 -26.375 30.75 C-30.14905585 25.15841017 -30.6026865 20.66740303 -29.8125 13.9375 C-27.80148737 8.4134736 -24.85139795 4.08681122 -19.8125 0.9375 C-13.32854812 -2.07524532 -6.81534797 -1.89935927 0 0 Z " fill="#BA4335" transform="translate(378.8125,200.0625)"/>
<path d="M0 0 C4.39781647 2.51094029 7.4212736 5.90828782 9.21484375 10.6484375 C9.25609375 11.5353125 9.29734375 12.4221875 9.33984375 13.3359375 C9.38882813 14.09003906 9.4378125 14.84414062 9.48828125 15.62109375 C9.71345818 21.36310555 8.99678412 25.24346845 6.33984375 30.3359375 C5.67984375 30.3359375 5.01984375 30.3359375 4.33984375 30.3359375 C4.09363281 30.94953125 3.84742188 31.563125 3.59375 32.1953125 C1.34498268 36.0343296 -2.55123717 37.07758103 -6.66015625 38.3359375 C-13.1127601 39.42590437 -18.31171502 38.06769081 -23.66015625 34.3359375 C-25.97265625 31.9609375 -25.97265625 31.9609375 -27.66015625 29.3359375 C-28.52640625 28.0365625 -28.52640625 28.0365625 -29.41015625 26.7109375 C-31.50022335 21.06775634 -31.78094241 15.48754986 -29.74609375 9.765625 C-27.2375121 4.86175249 -24.60604366 1.96672867 -19.66015625 -0.6640625 C-18.73203125 -1.2828125 -18.73203125 -1.2828125 -17.78515625 -1.9140625 C-11.54795382 -4.11542806 -5.84623549 -2.5402749 0 0 Z " fill="#BA4335" transform="translate(229.66015625,101.6640625)"/>
<path d="M0 0 C1.97059707 1.46356388 3.68933672 2.9495285 5.390625 4.71484375 C6.050625 5.37484375 6.710625 6.03484375 7.390625 6.71484375 C7.390625 7.70484375 7.390625 8.69484375 7.390625 9.71484375 C8.050625 9.71484375 8.710625 9.71484375 9.390625 9.71484375 C11.17631516 16.10876659 11.14455563 22.61176943 8.58203125 28.7890625 C5.97663516 33.00040766 1.81012382 36.50509434 -2.609375 38.71484375 C-10.54158412 39.54704099 -17.39339679 39.73719231 -23.83203125 34.60546875 C-28.33003479 29.82077927 -29.80965158 24.68958735 -30.171875 18.21484375 C-29.88337115 11.5699487 -27.60270726 6.7947302 -22.98828125 2.046875 C-16.70508035 -2.77700182 -7.06712176 -3.48066326 0 0 Z " fill="#F3EFCE" transform="translate(228.609375,250.28515625)"/>
<path d="M0 0 C5.23730487 1.95953583 8.58847966 4.84725832 11.44921875 9.65234375 C13.50417533 15.15032193 13.31031744 20.67557459 12.484375 26.421875 C10.796875 29.984375 10.796875 29.984375 8.484375 32.421875 C7.700625 33.329375 6.916875 34.236875 6.109375 35.171875 C1.23475567 39.35012014 -3.75379947 39.89516758 -9.9921875 39.7265625 C-15.11380363 39.10816303 -18.83630907 37.27314703 -22.30859375 33.4453125 C-27.47293118 26.69855339 -28.18161566 21.94655546 -27.515625 13.421875 C-26.76418052 11.04521339 -25.90787833 9.51025499 -24.515625 7.421875 C-23.855625 7.421875 -23.195625 7.421875 -22.515625 7.421875 C-22.28875 6.82375 -22.061875 6.225625 -21.828125 5.609375 C-17.35150062 -1.85166564 -7.54866666 -1.73478675 0 0 Z " fill="#BA4335" transform="translate(276.515625,299.578125)"/>
<path d="M0 0 C3.92529182 2.79943293 6.29797505 5.93517514 8.015625 10.4375 C8.97633608 17.13045387 9.11609472 23.7816797 5.015625 29.4375 C0.80823068 34.60658445 -3.71940683 36.82608848 -10.21875 37.7578125 C-15.88158081 38.05071754 -20.44037513 36.89323099 -24.984375 33.4375 C-30.70265859 27.14738805 -32.25935016 22.88233295 -32.21875 14.4375 C-31.92402906 10.66507194 -31.05985106 8.55071409 -28.984375 5.4375 C-28.324375 5.4375 -27.664375 5.4375 -26.984375 5.4375 C-26.88898438 4.82390625 -26.79359375 4.2103125 -26.6953125 3.578125 C-25.81218497 0.91903772 -25.06849375 0.45218964 -22.609375 -0.8125 C-15.27879046 -4.11716423 -7.11528131 -3.68561334 0 0 Z " fill="#BA4335" transform="translate(181.984375,301.5625)"/>
<path d="M0 0 C5.56792745 3.07286562 8.65432505 6.83797515 10.6875 12.9375 C11.42096789 21.13259316 9.95522281 26.19388187 4.875 32.6875 C1.23154778 36.7032758 -1.71842705 37.74455243 -7.1484375 38.1484375 C-14.02399617 38.36913445 -18.75331915 37.90348404 -24.1875 33.375 C-25.3125 31.9375 -25.3125 31.9375 -25.3125 29.9375 C-25.9725 29.9375 -26.6325 29.9375 -27.3125 29.9375 C-29.59025126 26.31298311 -29.58052235 23.22173665 -29.5625 19 C-29.56765625 17.79472656 -29.5728125 16.58945313 -29.578125 15.34765625 C-29.11231526 9.36748126 -26.71325914 5.01054303 -22.3125 0.9375 C-14.99833663 -3.36494904 -7.64362016 -3.44645373 0 0 Z " fill="#BA4335" transform="translate(428.3125,201.0625)"/>
<path d="M0 0 C4.27370264 2.6538898 6.58677788 5.72195808 8.30859375 10.43359375 C9.46000668 17.26320744 9.44367012 23.50679079 5.80859375 29.55859375 C1.77885733 34.59107854 -2.19095498 36.98542276 -8.58984375 37.8046875 C-14.73451825 38.0600707 -20.88640727 37.69885312 -25.69140625 33.43359375 C-26.3984375 31.29296875 -26.3984375 31.29296875 -26.69140625 29.43359375 C-27.35140625 29.43359375 -28.01140625 29.43359375 -28.69140625 29.43359375 C-32.42864819 23.82773085 -32.73140766 18.02026937 -31.69140625 11.43359375 C-29.12624299 5.48347279 -25.36221637 1.45802582 -19.69140625 -1.56640625 C-12.94015761 -3.81682246 -6.43375529 -2.90071026 0 0 Z " fill="#BA4335" transform="translate(181.69140625,201.56640625)"/>
<path d="M0 0 C3.49857894 2.24957936 6.18727662 5.01006123 7.59375 9.0234375 C8.12637947 12.12237262 8.15132082 15.13030759 8.16796875 18.2734375 C8.18214844 19.4903125 8.19632813 20.7071875 8.2109375 21.9609375 C7.996335 25.0453938 7.60805649 26.70017626 5.98046875 29.2734375 C5.32046875 29.2734375 4.66046875 29.2734375 3.98046875 29.2734375 C3.54734375 30.2015625 3.54734375 30.2015625 3.10546875 31.1484375 C1.63381917 33.92822004 0.40330798 35.07828093 -2.45703125 36.3984375 C-8.72382204 37.93764927 -14.61073527 37.9447413 -20.83203125 36.2109375 C-25.5851333 33.32179704 -28.5708649 29.7098309 -31.39453125 24.9609375 C-33.10213887 17.61822472 -32.59773851 11.71164861 -28.5859375 5.25390625 C-21.28866187 -3.97232503 -10.1294092 -5.05574052 0 0 Z " fill="#BA4335" transform="translate(131.01953125,201.7265625)"/>
<path d="M0 0 C5.0376833 3.12336365 8.85413605 7.41960887 11.125 12.9375 C12.35751043 20.3562647 10.87517034 25.5573839 6.92578125 31.84375 C4.86870003 34.23549736 2.90493987 35.46853024 0.125 36.9375 C-0.52984375 37.32164062 -1.1846875 37.70578125 -1.859375 38.1015625 C-6.58186507 40.06011458 -12.35930225 39.68289193 -17.1953125 38.25 C-21.9928457 36.06101147 -24.90102629 33.26327994 -27.875 28.9375 C-29.05577926 25.50045463 -29.07487274 22.11333965 -29.125 18.5 C-29.15078125 17.38753906 -29.1765625 16.27507812 -29.203125 15.12890625 C-28.59922585 9.25526809 -24.81228859 5.15602349 -20.875 0.9375 C-14.69611064 -2.17296131 -6.51950009 -2.3574978 0 0 Z " fill="#BA4335" transform="translate(427.875,300.0625)"/>
<path d="M0 0 C5.69860511 2.15673146 9.50828676 6.13276336 13 11 C14.94442205 16.83326615 14.60081612 22.96390093 12.875 28.8125 C10.09211299 33.54340792 7.19514208 36.90242896 2.25 39.375 C-4.99413949 40.76810375 -11.50176432 40.87394819 -18 37 C-22.06811442 33.11039407 -25.58687037 29.00497444 -26.37109375 23.30078125 C-26.53129861 16.09156246 -25.78564286 10.61896376 -21 5 C-18.71039757 3.23120843 -16.66941999 2.20879396 -14 1 C-9.7785068 -1.1107466 -4.58368307 -0.50610302 0 0 Z " fill="#BA4335" transform="translate(225,299)"/>
<path d="M0 0 C4.06236292 3.89655219 6.83823982 7.14850659 7.16796875 12.9609375 C7.17763672 14.65089844 7.17763672 14.65089844 7.1875 16.375 C7.20167969 17.49648438 7.21585938 18.61796875 7.23046875 19.7734375 C6.81435797 25.59898849 4.38041 30.12116367 0 34 C-5.53327941 37.30271466 -11.69981196 37.8627646 -18 37 C-24.45794968 35.28246019 -27.47157149 31.59976557 -30.87109375 26.0234375 C-33.63234655 21.07420237 -33.79904313 16.61549754 -33 11 C-30.52130588 5.73669697 -26.85565289 0.35643512 -21.5 -2.1875 C-14.05474548 -3.91586266 -6.67996658 -4.06037184 0 0 Z " fill="#BA4335" transform="translate(132,302)"/>
<path d="M0 0 C4.10432491 2.37663167 7.65581831 5.55387878 9.23828125 10.16015625 C9.74503597 13.06247874 9.83413236 15.86662448 9.875 18.8125 C9.90078125 19.92496094 9.9265625 21.03742188 9.953125 22.18359375 C9.58896648 25.72546888 8.65695751 27.4943133 6.625 30.375 C6.068125 31.24125 5.51125 32.1075 4.9375 33 C0.64808436 37.40534579 -4.33823786 38.53388021 -10.375 38.8125 C-15.43429096 38.61850878 -19.34491372 37.49033436 -23.375 34.375 C-28.8805606 28.41364136 -30.86038726 23.41498355 -30.78515625 15.30078125 C-30.00842977 9.76013238 -26.92357222 5.58131792 -22.74609375 1.96484375 C-16.13834482 -2.65561227 -7.34979361 -3.37390526 0 0 Z " fill="#BA4335" transform="translate(379.375,300.625)"/>
<path d="M0 0 C4.65963596 4.39817342 7.6395747 7.86204027 8.203125 14.33203125 C8.32196914 20.62086722 7.97165263 25.89196718 3.3828125 30.69140625 C-2.69246586 36.10179363 -6.92594632 37.4087149 -15.08984375 37.25 C-21.33738224 36.71329871 -25.01261837 33.63398406 -29 29 C-32.67759626 23.6738261 -32.79995338 18.25741314 -32 12 C-30.31656621 6.64197417 -27.37449936 2.54126139 -23 -1 C-15.72823891 -4.55132518 -6.871909 -4.14907713 0 0 Z " fill="#BA4335" transform="translate(231,202)"/>
</svg>
