<?xml version="1.0" encoding="UTF-8"?>
<svg version="1.1" xmlns="http://www.w3.org/2000/svg" width="630" height="630">
<path d="M0 0 C207.9 0 415.8 0 630 0 C630 207.9 630 415.8 630 630 C422.1 630 214.2 630 0 630 C0 422.1 0 214.2 0 0 Z " fill="#7E3E57" transform="translate(0,0)"/>
<path d="M0 0 C7.57088143 4.98464522 12.48831946 13.13581281 14.859375 21.78515625 C16.20097615 32.53208757 13.86269353 43.04937297 7.171875 51.72265625 C1.19660997 57.9295207 -7.12448605 62.31058205 -15.69140625 63.12109375 C-23.44151814 63.20157259 -29.51353735 62.98579055 -36.140625 58.78515625 C-36.83671875 58.34945312 -37.5328125 57.91375 -38.25 57.46484375 C-45.10752885 52.74707014 -50.32905348 46.54991236 -52.66796875 38.46875 C-54.3168916 29.10668389 -54.30506464 19.95816353 -49.140625 11.78515625 C-48.71652344 11.0890625 -48.29242188 10.39296875 -47.85546875 9.67578125 C-44.20107894 4.26036237 -39.77085442 0.99528706 -34.140625 -2.21484375 C-33.109375 -2.83359375 -32.078125 -3.45234375 -31.015625 -4.08984375 C-20.59723185 -8.14548864 -9.25617573 -5.25304863 0 0 Z " fill="#F2EFCE" transform="translate(417.140625,204.21484375)"/>
<path d="M0 0 C0.68320312 0.48597656 1.36640625 0.97195313 2.0703125 1.47265625 C2.71226562 1.90707031 3.35421875 2.34148437 4.015625 2.7890625 C10.81118813 7.9519254 15.60266955 16.10709145 17.0703125 24.47265625 C18.0519699 34.24321506 15.95203653 42.69147636 10.3203125 50.78515625 C3.82989795 58.69990118 -4.48981554 63.31726249 -14.62109375 64.890625 C-23.98648666 65.39502025 -33.19659063 62.09919624 -40.4296875 56.16015625 C-46.89882403 49.86844329 -50.48148047 42.90934931 -51.23046875 33.82421875 C-51.26946652 21.42292909 -49.53251983 13.64663097 -40.9296875 4.47265625 C-30.5303318 -5.15992668 -12.20597252 -7.42702396 0 0 Z " fill="#643145" transform="translate(332.9296875,367.52734375)"/>
<path d="M0 0 C8.4252325 5.86242413 13.30649618 13.76002844 15.7421875 23.6796875 C17.21592781 33.16947327 14.40114668 42.16460582 9.1328125 50.10546875 C3.57387742 56.87563969 -2.77438557 60.6415196 -11.2578125 62.6796875 C-23.31891859 63.80104439 -32.91385019 62.07965526 -42.4375 54.4453125 C-48.60003262 48.46792034 -51.8519239 41.60306345 -52.55859375 33.03125 C-52.59710514 20.78462694 -50.96740472 12.64246554 -42.2578125 3.6796875 C-29.55113085 -6.96331775 -14.38890682 -8.41427423 0 0 Z " fill="#643145" transform="translate(334.2578125,451.3203125)"/>
<path d="M0 0 C8.51347758 5.18328445 14.38824849 12.31426683 17 22 C18.28054814 34.23908509 16.89164836 43.32417054 9.20703125 53.3359375 C3.41284776 59.7632998 -3.28948548 63.46824362 -11.91015625 64.44140625 C-22.75840709 64.95248625 -31.6473467 62.63463872 -40.18359375 55.75390625 C-47.55608646 48.63509071 -50.99526965 39.62850154 -51.4375 29.5 C-51.14227473 20.39936011 -47.14483978 12.6000131 -41 6 C-29.23147312 -4.95690434 -14.42253691 -7.31954576 0 0 Z " fill="#643145" transform="translate(250,285)"/>
<path d="M0 0 C8.3499447 6.08028877 14.16652939 13.0276554 17 23 C18.22688695 33.66745916 16.41513878 42.41563671 10.42578125 51.34765625 C6.42360337 56.33871725 1.78378084 59.36357693 -4 62 C-4.76828125 62.36609375 -5.5365625 62.7321875 -6.328125 63.109375 C-14.41576219 65.80525406 -24.68569142 64.74005655 -32.43359375 61.44921875 C-41.57406929 56.28770212 -47.40881466 49.0974542 -50.59375 39.14453125 C-52.65296134 28.2742714 -51.09548431 19.25507022 -45 10 C-34.51423382 -4.29108455 -15.65790262 -8.652441 0 0 Z " fill="#F3EFCE" transform="translate(167,120)"/>
<path d="M0 0 C7.50041841 5.19915367 13.62357857 12.95124789 15.5 21.9921875 C15.603125 23.2090625 15.70625 24.4259375 15.8125 25.6796875 C15.87695312 26.35902344 15.94140625 27.03835938 16.0078125 27.73828125 C16.5201748 37.31945624 12.74605064 45.50630457 6.66015625 52.7421875 C-0.55212731 60.30517407 -8.63857887 62.96366121 -19 63.2421875 C-28.82973533 63.22040733 -36.34222398 59.56974126 -43.625 52.9921875 C-51.290304 44.47873922 -53.14836806 35.78522529 -52.60546875 24.64453125 C-52.070214 19.56711467 -50.97123571 15.92900369 -48.1875 11.6796875 C-47.76339844 10.98617188 -47.33929688 10.29265625 -46.90234375 9.578125 C-42.04408537 2.35163483 -34.97687228 -2.4200291 -26.6328125 -4.84765625 C-16.73130011 -6.76152686 -8.56522759 -5.16972665 0 0 Z " fill="#643145" transform="translate(499.1875,286.3203125)"/>
<path d="M0 0 C7.07913029 4.88860695 13.21261221 12.03993227 14.8203125 20.6796875 C16.0368053 32.83232772 14.82223617 41.77934515 7.21484375 51.79296875 C1.77556546 57.82656248 -6.44128653 62.24592889 -14.55078125 62.98828125 C-26.24818693 63.4978712 -34.75462041 61.04958137 -43.6171875 52.9296875 C-50.91407765 45.00952132 -53.56465801 36.17406162 -53.46484375 25.59375 C-52.45653971 15.28971145 -46.33275391 7.03460728 -38.65234375 0.515625 C-26.86151654 -8.23901764 -12.22076262 -7.4025408 0 0 Z " fill="#643145" transform="translate(252.1796875,204.3203125)"/>
<path d="M0 0 C8.49590605 7.37638695 13.37912801 14.59572812 14.6171875 25.90234375 C15.00597458 36.33256271 11.75272319 43.99673972 5.14453125 51.96875 C-1.14589876 58.67057944 -8.27628742 61.96536975 -17.47045898 62.34667969 C-29.28791725 62.52703632 -36.89422823 59.63351792 -45.50390625 51.45703125 C-53.00812405 42.88838539 -54.67588715 33.02661708 -53.98535156 22.00537109 C-53.27160419 16.71237087 -50.58647368 12.33307384 -47.70703125 7.94140625 C-47.13275391 7.02101562 -47.13275391 7.02101562 -46.546875 6.08203125 C-41.92294754 -0.34837682 -33.73469255 -4.50990452 -26.05078125 -5.80859375 C-16.10634469 -6.86933365 -8.17328642 -6.21547178 0 0 Z " fill="#643145" transform="translate(417.70703125,122.05859375)"/>
<path d="M0 0 C7.58918001 6.23999245 13.64460337 13.26858898 14.8125 23.3125 C15.37752387 33.48292957 13.84089892 41.90794384 7.8125 50.3125 C0.75588052 58.05422817 -6.15844082 62.31345895 -16.63183594 62.88256836 C-27.55360527 63.13590837 -35.85912795 60.49825242 -44.125 53.0625 C-51.58325631 44.89306521 -53.83994281 35.27017742 -53.58984375 24.53515625 C-53.01808023 15.50292042 -47.91934331 8.01208613 -41.40625 2 C-28.1339655 -8.09441357 -14.36532217 -7.60517056 0 0 Z " fill="#643145" transform="translate(169.1875,451.6875)"/>
<path d="M0 0 C7.96357469 6.40548399 13.14008482 13.15726376 14.875 23.3125 C15.81251593 34.17846335 13.568351 42.86215939 6.70703125 51.42578125 C-0.86381333 59.2226212 -8.97817713 62.5537699 -19.8125 62.8125 C-29.40110688 62.83142122 -36.91833437 59.51677839 -44.0625 53.0625 C-51.52111542 44.89267186 -53.7598498 35.27887226 -53.54296875 24.546875 C-53.0284489 16.30712748 -48.42520057 9.39717048 -43.125 3.3125 C-29.60081782 -7.91024392 -15.100402 -8.15421708 0 0 Z " fill="#643145" transform="translate(417.125,286.6875)"/>
<path d="M0 0 C7.97457657 6.41433333 13.11936618 13.15383253 14.875 23.3125 C15.88582843 33.26193982 13.93430623 41.37133094 8.265625 49.66796875 C1.8444838 57.51766659 -5.76373952 61.62551029 -15.88671875 62.71875 C-27.10992474 62.98676686 -35.46513943 60.82964335 -44.0625 53.0625 C-51.52111542 44.89267186 -53.7598498 35.27887226 -53.54296875 24.546875 C-53.0284489 16.30712748 -48.42520057 9.39717048 -43.125 3.3125 C-29.60081782 -7.91024392 -15.100402 -8.15421708 0 0 Z " fill="#643145" transform="translate(169.125,286.6875)"/>
<path d="M0 0 C9.60780787 5.91866628 15.63829398 13.69037388 18.9765625 24.50390625 C20.8110163 34.28765983 18.37595148 43.28087648 12.90625 51.4609375 C7.50220367 58.29348485 0.95211755 63.56407136 -7.66015625 65.44140625 C-18.14087278 66.52796002 -26.60911996 65.70689084 -35.28125 59.59375 C-42.95057098 53.31470712 -48.18711519 46.13220817 -49.23046875 36.09375 C-49.80044899 26.45710737 -48.57248714 18.38116888 -42.66015625 10.44140625 C-31.94648558 -1.51528698 -15.15604295 -7.23757791 0 0 Z " fill="#643145" transform="translate(330.66015625,201.55859375)"/>
<path d="M0 0 C7.45445342 5.18693907 13.56519298 13.00871388 15.4296875 21.9921875 C15.5328125 23.2090625 15.6359375 24.4259375 15.7421875 25.6796875 C15.80664062 26.35902344 15.87109375 27.03835938 15.9375 27.73828125 C16.41190415 36.60963885 13.13417351 44.96211701 7.58203125 51.828125 C1.17763891 58.27330965 -6.03199765 62.86648529 -15.23461914 63.06030273 C-26.43223766 63.03186041 -34.21563622 61.33721638 -42.578125 53.39453125 C-49.71544339 46.10782712 -52.65448551 39.32222102 -52.7578125 29.1796875 C-52.67660202 22.58952825 -51.93868132 17.29845923 -48.2578125 11.6796875 C-47.83371094 10.98617188 -47.40960938 10.29265625 -46.97265625 9.578125 C-36.17027842 -6.4900359 -16.21959037 -9.48481236 0 0 Z " fill="#643145" transform="translate(499.2578125,451.3203125)"/>
<path d="M0 0 C5.72668074 4.55584116 10.58795229 11.66430917 12.375 18.8125 C13.63713694 30.59244479 12.5526135 39.25247521 5.625 49.0625 C-0.22294227 56.16806426 -8.52283604 60.5634612 -17.625 61.75390625 C-28.70809276 62.12413887 -36.94901823 59.7210219 -45.5390625 52.34765625 C-53.21959605 44.09516807 -55.58438677 35.6776158 -55.4609375 24.62890625 C-54.89497774 15.73076111 -50.86435832 7.61735868 -44.328125 1.51953125 C-30.81122759 -9.08966148 -14.1880975 -9.64683144 0 0 Z " fill="#643145" transform="translate(171.25,205.6875)"/>
<path d="M0 0 C8.83510118 6.11275432 13.54591692 14.27160366 15.81640625 24.6796875 C16.84236393 34.82088457 13.87789738 43.31538255 7.8359375 51.41796875 C4.61313752 55.02725538 1.06753358 57.41987771 -3.18359375 59.6796875 C-3.77398437 60.01871094 -4.364375 60.35773438 -4.97265625 60.70703125 C-12.5284033 64.31847863 -22.73231749 64.06690031 -30.60546875 61.61328125 C-40.52504717 56.99337607 -47.49388374 50.50348654 -51.328125 40.15234375 C-53.87979148 29.79420903 -53.54370808 19.63121302 -48.0859375 10.26953125 C-36.36995341 -5.68056619 -17.16379756 -10.37811015 0 0 Z " fill="#F3EFCF" transform="translate(334.18359375,121.3203125)"/>
<path d="M0 0 C7.30456663 5.20775857 13.11716404 12.1656748 15.296875 21 C17.01838839 31.95210424 15.26968635 40.75259387 8.95703125 49.859375 C3.9327788 56.12387113 -3.15626197 61.68161972 -11.28735352 62.91088867 C-13.4032545 63.04679066 -15.48549348 63.07730756 -17.60546875 63.046875 C-18.72586548 63.03442749 -18.72586548 63.03442749 -19.86889648 63.02172852 C-29.03384406 62.74255775 -35.78200046 59.92262843 -42.47265625 53.59765625 C-50.19966012 45.15764559 -52.74296959 37.21859051 -52.546875 25.83203125 C-51.7912899 16.24191266 -47.37241939 9.03027209 -40.29296875 2.609375 C-28.30551205 -7.51536913 -13.38815471 -8.11956231 0 0 Z " fill="#643145" transform="translate(416.29296875,451.390625)"/>
<path d="M0 0 C9.26411755 5.45325479 15.00719025 13.45907074 18.375 23.5625 C19.28664972 35.05526446 17.69094857 44.41756429 10.375 53.5625 C3.30639428 61.04207117 -5.8108477 65.5501954 -16.1875 65.875 C-26.19593478 65.69863992 -33.35378686 61.80383937 -40.4609375 54.93359375 C-48.06896792 46.59771927 -50.13403748 38.52936037 -49.92578125 27.31640625 C-49.11596334 17.2094581 -44.15111129 10.16913163 -36.625 3.5625 C-26.14927566 -4.27477812 -11.89149426 -5.3737512 0 0 Z " fill="#F3EFCF" transform="translate(165.625,366.4375)"/>
<path d="M0 0 C8.88768524 5.5365908 15.58819594 13.05842614 18.14453125 23.3359375 C19.03359761 32.1910384 19.18508671 40.64871871 14.14453125 48.3359375 C13.38076172 49.50576172 13.38076172 49.50576172 12.6015625 50.69921875 C6.93323961 58.624494 -0.29567945 63.32171933 -9.85546875 65.3359375 C-19.54075413 66.51601685 -28.16788708 64.15253425 -36.16796875 58.5859375 C-44.05630042 52.1171829 -48.83135364 43.72419651 -50.23828125 33.57421875 C-50.6396931 24.19456185 -47.59436059 15.48250604 -41.6953125 8.1875 C-30.71696016 -2.86077816 -14.44257913 -6.93834296 0 0 Z " fill="#643145" transform="translate(248.85546875,366.6640625)"/>
<path d="M0 0 C8.10911861 5.40192055 13.30220326 13.10528885 15.640625 22.6015625 C17.16247074 32.75822865 15.1650268 41.21077822 9.4375 49.75 C5.39953974 55.01722861 0.97598527 58.20210804 -5 61 C-5.75796875 61.36996094 -6.5159375 61.73992187 -7.296875 62.12109375 C-15.53384088 64.79929797 -25.77878936 64.15357846 -33.5625 60.5 C-42.27850581 55.40669619 -48.43457526 48.86845039 -51.58203125 39.21484375 C-53.41412589 29.50645437 -52.79183833 19.13476282 -47.55859375 10.66796875 C-36.11021925 -5.34913061 -17.2201996 -9.86423198 0 0 Z " fill="#F3EFCF" transform="translate(334,286)"/>
<path d="M0 0 C9.56727125 5.90966672 16.5452617 14.01061545 19.21484375 25.0703125 C19.25609375 26.1840625 19.29734375 27.2978125 19.33984375 28.4453125 C19.40042969 29.11820313 19.46101562 29.79109375 19.5234375 30.484375 C20.05244288 39.55761886 16.96512683 46.99118381 11.08984375 53.8203125 C4.76378556 60.36451063 -1.92235586 64.8970338 -11.17578125 65.78125 C-23.7123545 65.9123857 -31.29445409 63.66250449 -40.45703125 54.9609375 C-47.35799507 47.08111356 -49.14457293 38.58938353 -48.9296875 28.375 C-48.33316976 19.6779443 -45.26781151 12.78103093 -39.171875 6.52734375 C-28.00609556 -2.72827124 -13.62160567 -6.48216177 0 0 Z " fill="#643145" transform="translate(495.66015625,201.5546875)"/>
<path d="M0 0 C7.58777601 4.41470604 13.25829691 11.00867639 16.1640625 19.3359375 C18.53447959 29.72589652 18.15315448 39.17053495 12.76171875 48.4453125 C7.28124197 56.39261142 -0.29121341 62.20733557 -10 64 C-21.72328569 65.11314852 -30.05365828 63.11727541 -39.640625 56.0546875 C-46.73157382 49.87945724 -50.24824218 41.47811062 -51.31640625 32.2734375 C-51.76962319 21.89330769 -47.80251125 13.66141418 -41 6 C-30.05164701 -5.20902806 -13.64317141 -7.50140009 0 0 Z " fill="#643145" transform="translate(250,120)"/>
<path d="M0 0 C7.57881378 5.41702942 13.73078131 13.28549977 15.66796875 22.55859375 C16.90484675 33.00334127 14.8475989 41.45132929 8.90625 50.1328125 C2.49449057 58.00119881 -6.48092089 62.67872793 -16.59765625 63.8125 C-26.37138756 64.28889256 -34.85571306 60.83146407 -42.32421875 54.62109375 C-45.7844159 51.06664999 -48.15772826 46.99274608 -50.33203125 42.55859375 C-50.70457031 41.79933594 -51.07710938 41.04007812 -51.4609375 40.2578125 C-54.17236437 31.85603688 -53.45127333 21.68629909 -49.64453125 13.80859375 C-47.3140821 9.80808034 -44.92888705 6.52599978 -41.33203125 3.55859375 C-39.97078125 2.25921875 -39.97078125 2.25921875 -38.58203125 0.93359375 C-28.10409193 -7.43292203 -11.06798202 -6.84101401 0 0 Z " fill="#F3EFCF" transform="translate(499.33203125,368.44140625)"/>
<path d="M0 0 C6.82007533 5.06941032 11.637999 11.69251704 13.8125 19.9375 C15.08783518 32.1267612 13.80551428 41.4523978 5.9140625 51.30859375 C-0.00400088 57.68279245 -6.8031891 61.61155801 -15.54296875 62.140625 C-27.76220222 62.29009575 -36.15274356 60.70002273 -45.1875 51.9375 C-51.82808159 44.13951857 -54.94062397 35.02965721 -54.59375 24.796875 C-53.25431272 15.36929726 -48.49466044 6.99884948 -41.1875 0.9375 C-27.55403544 -7.45504831 -13.81179631 -8.87303278 0 0 Z " fill="#F3EFCF" transform="translate(253.1875,452.0625)"/>
<path d="M0 0 C7.65341535 5.08506855 13.12519967 12.61016953 15.375 21.5625 C15.62266513 23.03559157 15.83186986 24.51572608 16 26 C16.0825 26.71800781 16.165 27.43601563 16.25 28.17578125 C16.77968062 37.49484968 12.93823382 45.92611105 7.0625 52.9921875 C-0.34910261 60.20727034 -8.93643955 63.43988558 -19.12768555 63.35913086 C-29.27157095 63.06565687 -36.54009981 59.68106239 -43.76171875 52.59765625 C-50.88557262 44.33000734 -53.01306291 36.34935091 -52.3828125 25.703125 C-51.37255039 15.93038544 -47.50364795 8.5353221 -39.82421875 2.20703125 C-27.08258182 -6.70551272 -13.8267856 -7.81600219 0 0 Z " fill="#643145" transform="translate(499,121)"/>
<path d="M0 0 C8.05858059 5.87959883 12.93883388 13.25864884 15.5859375 22.88671875 C16.88287732 33.12571736 14.5607286 42.48971504 8.5859375 50.88671875 C2.01702609 58.51159296 -6.36250535 62.80992691 -16.3046875 64.328125 C-25.798724 64.74857519 -33.61770905 61.78814637 -40.7890625 55.63671875 C-48.6485956 48.02669464 -52.3844932 40.69059613 -52.7890625 29.63671875 C-52.55743641 18.99410937 -49.23000791 11.7050639 -41.859375 4.0546875 C-30.44974281 -6.06088097 -13.17698028 -7.74373225 0 0 Z " fill="#643145" transform="translate(416.4140625,368.11328125)"/>
</svg>
