<?xml version="1.0" encoding="UTF-8"?>
<svg version="1.1" xmlns="http://www.w3.org/2000/svg" width="630" height="659">
<path d="M0 0 C207.9 0 415.8 0 630 0 C630 217.47 630 434.94 630 659 C422.1 659 214.2 659 0 659 C0 441.53 0 224.06 0 0 Z " fill="#252525" transform="translate(0,0)"/>
<path d="M0 0 C0.71849121 0.23605957 1.43698242 0.47211914 2.17724609 0.71533203 C26.92359267 8.96411422 47.54895681 25.63008384 59.375 49.0625 C63.75107451 58.08244027 67.0540969 66.97342714 68 77 C68.33 77.33 68.66 77.66 69 78 C70.1551382 92.06082014 69.48047707 105.61732913 65 119 C64.63777344 120.18464844 64.27554688 121.36929688 63.90234375 122.58984375 C60.01507667 134.51518852 54.188145 144.73847971 46.25 154.375 C45.79028809 154.940979 45.33057617 155.50695801 44.85693359 156.09008789 C43.515625 157.6484375 43.515625 157.6484375 41 160 C39.68 160 38.36 160 37 160 C35.30243556 157.64279266 33.93819909 155.41479556 32.5625 152.875 C31.68462643 151.31712596 30.80566406 149.75986511 29.92578125 148.203125 C29.22316162 146.94532227 29.22316162 146.94532227 28.50634766 145.66210938 C25.83264985 140.93698768 23.03119458 136.28736757 20.25 131.625 C16.00217544 124.49990829 11.94451798 117.29708358 8 110 C2.24882826 99.5124332 -3.6343632 89.10182116 -9.58154297 78.72436523 C-14.09840076 70.8408095 -18.55996833 62.92702623 -23 55 C-23.66 55 -24.32 55 -25 55 C-25.31114746 55.54712646 -25.62229492 56.09425293 -25.94287109 56.65795898 C-34.06740136 70.93477117 -42.27108095 85.15460285 -50.74609375 99.2265625 C-51.40697998 100.32452148 -52.06786621 101.42248047 -52.7487793 102.55371094 C-54.04610824 104.70679901 -55.34561669 106.85857594 -56.64770508 109.00878906 C-60.08621304 114.71114521 -63.38792517 120.4598786 -66.54833984 126.32080078 C-68.94808756 130.74980035 -71.43985557 135.12566121 -73.9375 139.5 C-74.71746338 140.86692993 -74.71746338 140.86692993 -75.51318359 142.26147461 C-78.76225549 147.92485063 -82.09777513 153.49140561 -85.6953125 158.94140625 C-86.9430287 160.91010815 -87.99859155 162.89704225 -89 165 C-102.69060179 156.44337388 -111.38161075 140.71074436 -117 126 C-117.5557193 124.76775286 -118.11709704 123.53801924 -118.6875 122.3125 C-126.52901915 102.52199928 -125.28934774 76.62170092 -117.0234375 57.32421875 C-116.68570313 56.55722656 -116.34796875 55.79023437 -116 55 C-115.55527344 53.89591797 -115.55527344 53.89591797 -115.1015625 52.76953125 C-110.65603249 42.03566605 -103.99892515 33.3322137 -96 25 C-95.01 23.93265625 -95.01 23.93265625 -94 22.84375 C-89.15538781 17.76472109 -83.93512524 13.73598728 -78 10 C-76.60201172 9.11828125 -76.60201172 9.11828125 -75.17578125 8.21875 C-52.87494957 -4.80196606 -24.49419992 -8.45611412 0 0 Z " fill="#FDFDFD" transform="translate(344,47)"/>
<path d="M0 0 C1.49176758 -0.01836914 1.49176758 -0.01836914 3.01367188 -0.03710938 C9.22230653 -0.04933912 14.67926003 0.61228268 20.6875 2.1875 C19.67446744 6.03702372 18.16391081 9.20542138 16.09765625 12.5703125 C12.24707314 18.90302298 8.496827 25.29312607 4.75 31.6875 C4.38233521 32.31455841 4.01467041 32.94161682 3.63586426 33.587677 C-1.63464474 42.578637 -6.86517292 51.59150189 -12.0625 60.625 C-19.91340682 74.2685389 -27.92194034 87.81579806 -35.9765625 101.33984375 C-36.57645996 102.34950195 -37.17635742 103.35916016 -37.79443359 104.39941406 C-38.94850005 106.34166233 -40.10496814 108.28248615 -41.26416016 110.22167969 C-41.78026855 111.09083008 -42.29637695 111.95998047 -42.828125 112.85546875 C-43.51310059 114.00438599 -43.51310059 114.00438599 -44.21191406 115.17651367 C-45.44470674 117.2873659 -45.44470674 117.2873659 -46.3125 120.1875 C-0.4425 120.1875 45.4275 120.1875 92.6875 120.1875 C91.84241542 125.25800749 90.61901873 129.26156332 88.5625 133.875 C88.24901611 134.57979492 87.93553223 135.28458984 87.61254883 136.01074219 C76.99984968 159.30185977 58.45224175 176.66171983 34.6875 186 C11.4469719 194.68987368 -14.21066334 195.16467116 -37.3125 185.1875 C-48.93936627 179.78666605 -58.33217102 173.3099228 -67.3125 164.1875 C-67.9621875 163.60742188 -68.611875 163.02734375 -69.28125 162.4296875 C-75.25596582 157.02528546 -79.27534182 150.07574875 -83.3125 143.1875 C-83.68084961 142.56697754 -84.04919922 141.94645508 -84.42871094 141.30712891 C-96.4494002 120.64891493 -98.54732702 95.3349617 -93.3125 72.1875 C-91.40104842 65.27686736 -89.25153764 57.98375695 -84.8125 52.25 C-83.13204502 50.12170971 -83.13204502 50.12170971 -82.0625 47 C-80.0368717 42.07761827 -76.69694381 38.24199531 -73.3125 34.1875 C-72.72597656 33.45402344 -72.13945313 32.72054687 -71.53515625 31.96484375 C-57.66802884 15.3418813 -38.15663155 5.72096897 -17.3125 1.1875 C-16.384375 0.98511719 -15.45625 0.78273438 -14.5 0.57421875 C-9.6683246 -0.01197716 -4.86263063 0.00311507 0 0 Z " fill="#FCFCFC" transform="translate(124.3125,396.8125)"/>
<path d="M0 0 C20.53647506 15.30359722 35.25364248 37.0643518 39.19018555 62.56494141 C40.98553512 77.22079056 40.79173628 91.38298021 35.85302734 105.38085938 C35.61165039 106.09338867 35.37027344 106.80591797 35.12158203 107.54003906 C26.59560828 132.47449059 10.76585591 152.42444509 -13.14697266 164.38085938 C-39.12375765 176.14103509 -65.15801661 177.78309683 -92.14697266 168.06835938 C-117.29938298 157.50499115 -135.00894808 137.87039844 -146.14697266 113.38085938 C-147.58729026 109.63153262 -148.14697266 107.43907539 -148.14697266 103.38085938 C-101.61697266 103.38085938 -55.08697266 103.38085938 -7.14697266 103.38085938 C-25.61953439 69.92508903 -25.61953439 69.92508903 -45.01416016 36.99804688 C-47.31691 33.16290754 -49.42753022 29.22625694 -51.55859375 25.29394531 C-54.16035553 20.52231582 -56.84251017 15.79665729 -59.52197266 11.06835938 C-60.08489014 10.07231689 -60.64780762 9.07627441 -61.2277832 8.05004883 C-63.72292168 3.63914725 -66.22474236 -0.76706677 -68.76806641 -5.15039062 C-69.14463379 -5.80096436 -69.52120117 -6.45153809 -69.90917969 -7.12182617 C-70.88698672 -8.80673634 -71.87027803 -10.48846053 -72.85400391 -12.16992188 C-74.14697266 -14.61914062 -74.14697266 -14.61914062 -74.14697266 -16.61914062 C-49.66805066 -22.89059998 -20.20548475 -14.02479167 0 0 Z " fill="#FCFCFC" transform="translate(565.14697265625,414.619140625)"/>
<path d="M0 0 C0.66 0.33 1.32 0.66 2 1 C-3.61 6.61 -9.22 12.22 -15 18 C-15.66 17.67 -16.32 17.34 -17 17 C-15.29657414 15.09955869 -13.58752883 13.20471126 -11.875 11.3125 C-11.400625 10.78205078 -10.92625 10.25160156 -10.4375 9.70507812 C-7.18500869 6.12294242 -3.77952775 3.02250068 0 0 Z " fill="#D4D4D4" transform="translate(65,417)"/>
<path d="M0 0 C0.33 0.99 0.66 1.98 1 3 C-0.73709111 5.0126297 -2.48801719 7.00936293 -4.25 9 C-4.98669922 9.85851562 -4.98669922 9.85851562 -5.73828125 10.734375 C-7.07691594 12.23364585 -8.53445886 13.62452005 -10 15 C-11.32 15 -12.64 15 -14 15 C-13 13 -13 13 -11.234375 12.2265625 C-8.117771 10.51569947 -6.44536187 8.15148707 -4.25 5.375 C-3.45078125 4.37210938 -2.6515625 3.36921875 -1.828125 2.3359375 C-1.22484375 1.56507813 -0.6215625 0.79421875 0 0 Z " fill="#494949" transform="translate(395,194)"/>
<path d="M0 0 C0.66 0.66 1.32 1.32 2 2 C-0.97 4.64 -3.94 7.28 -7 10 C-7.66 9.67 -8.32 9.34 -9 9 C-8.51789063 8.60167969 -8.03578125 8.20335937 -7.5390625 7.79296875 C-6.90742188 7.26316406 -6.27578125 6.73335937 -5.625 6.1875 C-4.99851563 5.66542969 -4.37203125 5.14335938 -3.7265625 4.60546875 C-1.7778952 2.91774261 -1.7778952 2.91774261 0 0 Z " fill="#505050" transform="translate(195,557)"/>
<path d="M0 0 C0.33 1.32 0.66 2.64 1 4 C-0.21484375 5.921875 -0.21484375 5.921875 -1.9375 7.75 C-2.50339844 8.36359375 -3.06929687 8.9771875 -3.65234375 9.609375 C-4.31943359 10.29773438 -4.31943359 10.29773438 -5 11 C-5.66 10.67 -6.32 10.34 -7 10 C-3.535 5.05 -3.535 5.05 0 0 Z " fill="#505050" transform="translate(205,544)"/>
<path d="M0 0 C0.99 0.33 1.98 0.66 3 1 C0.69 2.65 -1.62 4.3 -4 6 C-4.66 5.34 -5.32 4.68 -6 4 C-3.1875 1.9375 -3.1875 1.9375 0 0 Z " fill="#505050" transform="translate(176,573)"/>
<path d="M0 0 C0.8125 1.6875 0.8125 1.6875 1 4 C-1.4375 6.75 -1.4375 6.75 -4 9 C-2.94124926 5.59687262 -1.99097846 2.98646769 0 0 Z " fill="#4B4B4B" transform="translate(140,408)"/>
</svg>
