<?xml version="1.0" encoding="UTF-8"?>
<svg version="1.1" xmlns="http://www.w3.org/2000/svg" width="630" height="630">
<path d="M0 0 C207.9 0 415.8 0 630 0 C630 207.9 630 415.8 630 630 C422.1 630 214.2 630 0 630 C0 422.1 0 214.2 0 0 Z " fill="#5D883B" transform="translate(0,0)"/>
<path d="M0 0 C4.48024996 3.84747971 8.76299281 7.88833101 13 12 C13.89332031 12.85335937 14.78664063 13.70671875 15.70703125 14.5859375 C29.33684284 27.85982467 40.48809262 43.56864628 50 60 C50.35416992 60.61117676 50.70833984 61.22235352 51.07324219 61.85205078 C60.35903996 78.07556065 67.66763812 95.79594421 72 114 C72.25257568 115.04969971 72.25257568 115.04969971 72.51025391 116.12060547 C80.03852078 147.89982055 80.37506553 180.9917477 74 213 C73.82871582 213.88751953 73.65743164 214.77503906 73.48095703 215.68945312 C69.4084347 236.07944967 60.998517 255.8238266 51 274 C50.61875977 274.69528809 50.23751953 275.39057617 49.84472656 276.10693359 C44.32542466 286.0625801 38.25545702 295.23365678 31 304 C30.54399414 304.55751953 30.08798828 305.11503906 29.61816406 305.68945312 C-4.8337712 347.637108 -53.88183387 377.16154923 -108 385 C-108.73025391 385.11279297 -109.46050781 385.22558594 -110.21289062 385.34179688 C-166.28974026 393.72109625 -224.46659443 378.36383216 -270.02734375 345.01171875 C-275.91483877 340.60212539 -281.50140018 335.88144677 -287 331 C-288.485 329.69869141 -288.485 329.69869141 -290 328.37109375 C-295.43033166 323.5383937 -300.34989564 318.57622577 -305 313 C-305.83144531 312.05640625 -306.66289062 311.1128125 -307.51953125 310.140625 C-318.55262477 297.56047009 -327.09395354 283.70440899 -335 269 C-335.59425781 267.91847656 -336.18851563 266.83695312 -336.80078125 265.72265625 C-348.31096946 243.89298896 -354.90889833 220.37973645 -358 196 C-358.14574463 194.85265381 -358.14574463 194.85265381 -358.29443359 193.68212891 C-359.23181467 185.04374994 -359.22132881 176.3760081 -359.24023438 167.69677734 C-359.24987976 165.03320343 -359.28096307 162.37042318 -359.3125 159.70703125 C-359.41496682 143.35463238 -357.18213506 127.83068729 -352.8125 112.0625 C-352.51206787 110.96695801 -352.21163574 109.87141602 -351.90209961 108.74267578 C-342.767366 76.43857281 -326.15814192 47.75734538 -304.27832031 22.47802734 C-303.1145038 21.13239228 -301.95912454 19.77947166 -300.8046875 18.42578125 C-297.12756181 14.17906158 -293.3234546 10.34260378 -289.02734375 6.72265625 C-287.70050701 5.5952285 -286.39921967 4.43684683 -285.12890625 3.24609375 C-211.71873228 -65.29868857 -92.67675221 -67.94491689 0 0 Z " fill="#5E883C" transform="translate(456,147)"/>
<path d="M0 0 C15.09874088 14.23841377 24.72452751 32.64676461 29.7421875 52.5859375 C30.01144043 53.54536255 30.01144043 53.54536255 30.28613281 54.52416992 C34.50295297 70.84266044 33.38526833 90.74474002 27.7421875 106.5859375 C27.36835938 107.70355469 26.99453125 108.82117188 26.609375 109.97265625 C16.56347865 138.0812073 -2.86504011 158.01857976 -29.53125 170.859375 C-30.77206209 171.43785523 -32.01420914 172.01348253 -33.2578125 172.5859375 C-34.38703125 173.11058594 -35.51625 173.63523437 -36.6796875 174.17578125 C-56.77926391 182.09712086 -80.88040216 182.28536008 -101.2578125 175.5859375 C-102.28390625 175.2971875 -103.31 175.0084375 -104.3671875 174.7109375 C-118.85689816 170.4176899 -130.93676682 162.3698828 -142.2578125 152.5859375 C-143.39669922 151.60173828 -143.39669922 151.60173828 -144.55859375 150.59765625 C-159.31070676 136.79157053 -168.17544593 117.83195355 -173.2578125 98.5859375 C-173.53709595 97.59013672 -173.53709595 97.59013672 -173.82202148 96.57421875 C-175.53572221 89.89314807 -175.6038999 83.33052099 -175.5703125 76.4609375 C-175.56467285 75.26041748 -175.5590332 74.05989746 -175.55322266 72.82299805 C-175.21146676 47.81898597 -166.05727269 25.11867533 -149.2578125 6.5859375 C-148.81985352 6.09883301 -148.38189453 5.61172852 -147.93066406 5.10986328 C-134.96520005 -9.13201727 -119.30878505 -18.32046613 -101.0078125 -24.2265625 C-100.05177124 -24.53750854 -100.05177124 -24.53750854 -99.07641602 -24.85473633 C-63.98576841 -35.56395572 -26.81001861 -23.11208501 0 0 Z " fill="#5E883C" transform="translate(387.2578125,239.4140625)"/>
<path d="M0 0 C4.48024996 3.84747971 8.76299281 7.88833101 13 12 C13.89332031 12.85335937 14.78664063 13.70671875 15.70703125 14.5859375 C29.33684284 27.85982467 40.48809262 43.56864628 50 60 C50.35416992 60.61117676 50.70833984 61.22235352 51.07324219 61.85205078 C60.35903996 78.07556065 67.66763812 95.79594421 72 114 C72.25257568 115.04969971 72.25257568 115.04969971 72.51025391 116.12060547 C80.03852078 147.89982055 80.37506553 180.9917477 74 213 C73.82871582 213.88751953 73.65743164 214.77503906 73.48095703 215.68945312 C69.4084347 236.07944967 60.998517 255.8238266 51 274 C50.61875977 274.69528809 50.23751953 275.39057617 49.84472656 276.10693359 C44.32542466 286.0625801 38.25545702 295.23365678 31 304 C30.54399414 304.55751953 30.08798828 305.11503906 29.61816406 305.68945312 C-4.8337712 347.637108 -53.88183387 377.16154923 -108 385 C-108.73025391 385.11279297 -109.46050781 385.22558594 -110.21289062 385.34179688 C-166.28974026 393.72109625 -224.46659443 378.36383216 -270.02734375 345.01171875 C-275.91483877 340.60212539 -281.50140018 335.88144677 -287 331 C-288.485 329.69869141 -288.485 329.69869141 -290 328.37109375 C-295.43033166 323.5383937 -300.34989564 318.57622577 -305 313 C-305.83144531 312.05640625 -306.66289062 311.1128125 -307.51953125 310.140625 C-318.55262477 297.56047009 -327.09395354 283.70440899 -335 269 C-335.59425781 267.91847656 -336.18851563 266.83695312 -336.80078125 265.72265625 C-348.31096946 243.89298896 -354.90889833 220.37973645 -358 196 C-358.14574463 194.85265381 -358.14574463 194.85265381 -358.29443359 193.68212891 C-359.23181467 185.04374994 -359.22132881 176.3760081 -359.24023438 167.69677734 C-359.24987976 165.03320343 -359.28096307 162.37042318 -359.3125 159.70703125 C-359.41496682 143.35463238 -357.18213506 127.83068729 -352.8125 112.0625 C-352.51206787 110.96695801 -352.21163574 109.87141602 -351.90209961 108.74267578 C-342.767366 76.43857281 -326.15814192 47.75734538 -304.27832031 22.47802734 C-303.1145038 21.13239228 -301.95912454 19.77947166 -300.8046875 18.42578125 C-297.12756181 14.17906158 -293.3234546 10.34260378 -289.02734375 6.72265625 C-287.70050701 5.5952285 -286.39921967 4.43684683 -285.12890625 3.24609375 C-211.71873228 -65.29868857 -92.67675221 -67.94491689 0 0 Z M-270.703125 21.890625 C-272.75935351 23.77899812 -274.86286408 25.57980583 -277 27.375 C-310.61951745 56.89293633 -331.86409635 103.79215365 -335.8125 147.9375 C-335.91114315 150.29042934 -335.96693411 152.64523598 -336 155 C-336.01901367 155.92893066 -336.03802734 156.85786133 -336.05761719 157.81494141 C-336.31788655 171.67961849 -336.1591149 185.28798697 -334 199 C-333.87641113 199.81742676 -333.75282227 200.63485352 -333.62548828 201.47705078 C-326.16457338 249.43490739 -298.64185047 294.84712368 -259.65380859 323.79125977 C-229.49428111 345.80236851 -192.654934 363.01050678 -154.6484375 363.203125 C-153.75371735 363.20882507 -152.85899719 363.21452515 -151.93716431 363.22039795 C-150.04275681 363.22981355 -148.1483332 363.2363682 -146.25390625 363.24023438 C-143.43197605 363.24980673 -140.61081801 363.28080601 -137.7890625 363.3125 C-120.26759061 363.41704797 -103.28318649 361.61785785 -86.5 356.375 C-85.37053955 356.03017578 -84.2410791 355.68535156 -83.07739258 355.33007812 C-67.26090326 350.36297146 -51.99195948 343.95453849 -38 335 C-37.36787598 334.59555664 -36.73575195 334.19111328 -36.08447266 333.77441406 C6.52958049 306.15477171 38.86121934 263.15557044 50.1875 213.25 C50.83494854 210.17420506 51.42540239 207.09014368 52 204 C52.15098145 203.22269531 52.30196289 202.44539062 52.45751953 201.64453125 C56.7803827 178.77579231 56.58669377 154.8081738 52 132 C51.82839355 131.13616699 51.65678711 130.27233398 51.47998047 129.38232422 C43.73738993 91.58270663 25.57006676 58.78464458 -1 31 C-1.87398438 30.07316406 -2.74796875 29.14632812 -3.6484375 28.19140625 C-27.35341657 3.6869924 -58.82781157 -12.80695716 -91.5 -21.75 C-92.17385742 -21.9368335 -92.84771484 -22.12366699 -93.54199219 -22.31616211 C-109.00453037 -26.28892741 -124.52330819 -27.58489325 -140.4375 -27.5 C-141.80222443 -27.49685791 -141.80222443 -27.49685791 -143.19451904 -27.49365234 C-190.42562411 -27.27088844 -235.84811262 -10.30031 -270.703125 21.890625 Z " fill="#F2EFCE" transform="translate(456,147)"/>
<path d="M0 0 C22.61792892 20.04843068 38.82139238 45.62232061 44.78515625 75.46875 C45.00945312 76.54866211 45.00945312 76.54866211 45.23828125 77.65039062 C52.46141345 113.36130717 45.37914985 149.68226549 25.60400391 180.29736328 C20.65551505 187.54993281 14.80092301 194.09414803 8.78515625 200.46875 C8.11226562 201.20609375 7.439375 201.9434375 6.74609375 202.703125 C-11.97629719 222.47733565 -39.3833135 236.38495734 -66.21484375 240.46875 C-67.34921875 240.65179688 -68.48359375 240.83484375 -69.65234375 241.0234375 C-75.52637798 241.7299989 -81.44056375 241.6547577 -87.34887695 241.65405273 C-89.38058843 241.65622672 -91.41174436 241.67439993 -93.44335938 241.69335938 C-101.87689269 241.73036656 -109.9301852 241.0618189 -118.21484375 239.46875 C-119.01398193 239.31833252 -119.81312012 239.16791504 -120.63647461 239.01293945 C-140.1914701 235.03583651 -158.77490586 226.07741477 -174.21484375 213.46875 C-174.80587891 212.9929248 -175.39691406 212.51709961 -176.00585938 212.02685547 C-204.89338116 188.60721994 -222.53335824 156.42646404 -227.21484375 119.46875 C-227.39994326 114.95574389 -227.40066256 110.44418788 -227.40014648 105.92797852 C-227.40232047 103.80399138 -227.42048318 101.68053537 -227.43945312 99.55664062 C-227.57416411 68.1272135 -214.83967612 36.45746646 -193.22265625 13.59765625 C-191.48874724 11.75917296 -189.91348301 9.88004324 -188.33984375 7.90625 C-184.23601292 3.09018407 -179.18846199 -0.66138465 -174.21484375 -4.53125 C-173.01794922 -5.50384766 -173.01794922 -5.50384766 -171.796875 -6.49609375 C-121.27770136 -45.77093621 -47.83211576 -40.19274187 0 0 Z M-158.21484375 26.46875 C-158.68873535 26.90026367 -159.16262695 27.33177734 -159.65087891 27.77636719 C-178.06000922 44.76122771 -191.93774178 68.76851393 -193.36987305 94.22436523 C-194.58129798 126.25843698 -186.4435218 152.10358258 -165.21484375 176.46875 C-164.67472656 177.09394531 -164.13460937 177.71914063 -163.578125 178.36328125 C-148.30425642 194.79134645 -123.16881946 207.36663517 -100.73510742 208.60571289 C-67.69827935 209.771256 -42.0625663 201.32593295 -16.9765625 179.5234375 C-0.21652467 163.86485864 12.43189175 139.18668835 14.00805664 116.22094727 C14.48593072 101.53070584 14.45908421 87.49053388 9.78515625 73.46875 C9.42292969 72.34082031 9.06070313 71.21289062 8.6875 70.05078125 C4.24971406 57.45950386 -2.58582255 46.58618315 -11.21484375 36.46875 C-11.97796875 35.458125 -12.74109375 34.4475 -13.52734375 33.40625 C-24.84864586 21.03180351 -39.68817619 12.38912755 -55.21484375 6.46875 C-56.43107422 5.99308594 -56.43107422 5.99308594 -57.671875 5.5078125 C-67.84375058 1.80561634 -78.41664227 1.12498842 -89.15234375 1.21875 C-90.29823975 1.22696777 -91.44413574 1.23518555 -92.62475586 1.24365234 C-117.07481024 1.5677249 -139.97015364 9.83993421 -158.21484375 26.46875 Z " fill="#5E883C" transform="translate(405.21484375,210.53125)"/>
<path d="M0 0 C0.70108887 0.1232666 1.40217773 0.2465332 2.12451172 0.37353516 C32.78515811 6.06384642 59.8892635 23.70691785 82 45 C82.64066406 45.58910156 83.28132813 46.17820313 83.94140625 46.78515625 C98.59045055 60.61847651 109.28843125 79.57340941 117 98 C117.44859375 99.06734375 117.8971875 100.1346875 118.359375 101.234375 C134.03804791 141.68922238 130.48835607 187.06980307 113.33569336 226.32519531 C95.80055193 264.88022546 62.25568786 294.32564465 22.9375 309.25 C-15.8544565 323.41467832 -59.48764143 322.93252541 -97.3215332 305.74047852 C-99.22365224 304.84489241 -101.11352711 303.92805455 -103 303 C-103.63099609 302.69336426 -104.26199219 302.38672852 -104.91210938 302.07080078 C-120.85237884 294.2347203 -134.09119171 283.92359756 -146.6171875 271.37890625 C-147.98843001 270.00991168 -149.37847783 268.65814905 -150.81640625 267.359375 C-169.94324828 249.73016042 -182.24467648 222.84238186 -188.875 198.125 C-189.06610352 197.4136792 -189.25720703 196.7023584 -189.45410156 195.96948242 C-192.52046445 183.72211742 -193.35033397 171.52594518 -193.31567383 158.9597168 C-193.31250779 156.5683855 -193.33610109 154.17828966 -193.36132812 151.78710938 C-193.40216621 141.79644092 -192.37007294 132.71586902 -190 123 C-189.82686279 122.23647217 -189.65372559 121.47294434 -189.4753418 120.6862793 C-182.00960975 88.39941212 -163.79030711 57.07412245 -138 36 C-137.51289551 35.59523437 -137.02579102 35.19046875 -136.52392578 34.7734375 C-97.81890285 2.73200248 -49.2853027 -8.88298814 0 0 Z M-65 24 C-66.16917969 24.23203125 -67.33835937 24.4640625 -68.54296875 24.703125 C-86.13407972 28.61652373 -103.09067459 37.64127418 -117 49 C-117.59103516 49.4758252 -118.18207031 49.95165039 -118.79101562 50.44189453 C-140.63051213 68.14756871 -156.77918735 90.97913219 -165 118 C-165.29390625 118.95132813 -165.5878125 119.90265625 -165.890625 120.8828125 C-169.34255084 132.76149848 -170.38000909 144.42580033 -170.3125 156.75 C-170.31034485 157.45854126 -170.3081897 158.16708252 -170.30596924 158.89709473 C-170.25548063 169.23704456 -169.80723631 178.9681027 -167 189 C-166.80132324 189.76103027 -166.60264648 190.52206055 -166.39794922 191.30615234 C-160.59067254 213.46080411 -151.03048072 233.03791191 -135.1640625 249.71484375 C-133 252 -133 252 -130.5625 255.125 C-126.51790966 259.66283307 -121.7811136 263.26715195 -117 267 C-116.20078125 267.6496875 -115.4015625 268.299375 -114.578125 268.96875 C-101.49828347 279.13270329 -85.9381144 286.62628488 -70 291 C-68.93265625 291.30421875 -67.8653125 291.6084375 -66.765625 291.921875 C-32.19738001 301.22196122 6.29380051 294.57062837 37 277 C69.40879982 257.48502377 92.26213913 226.9667202 101.68457031 190.33886719 C110.40181071 153.4479343 103.20696313 116.27348702 84 84 C78.40886973 75.15287195 71.18228931 67.55797829 64 60 C63.14535156 59.04867187 63.14535156 59.04867187 62.2734375 58.078125 C43.85237613 38.2400589 15.41467989 25.62378262 -11 22 C-12.08893555 21.82944092 -13.17787109 21.65888184 -14.29980469 21.4831543 C-30.81494488 19.32668409 -48.83159487 20.04039058 -65 24 Z " fill="#F2EFCE" transform="translate(348,157)"/>
<path d="M0 0 C15.09874088 14.23841377 24.72452751 32.64676461 29.7421875 52.5859375 C30.01144043 53.54536255 30.01144043 53.54536255 30.28613281 54.52416992 C34.50295297 70.84266044 33.38526833 90.74474002 27.7421875 106.5859375 C27.36835938 107.70355469 26.99453125 108.82117188 26.609375 109.97265625 C16.56347865 138.0812073 -2.86504011 158.01857976 -29.53125 170.859375 C-30.77206209 171.43785523 -32.01420914 172.01348253 -33.2578125 172.5859375 C-34.38703125 173.11058594 -35.51625 173.63523437 -36.6796875 174.17578125 C-56.77926391 182.09712086 -80.88040216 182.28536008 -101.2578125 175.5859375 C-102.28390625 175.2971875 -103.31 175.0084375 -104.3671875 174.7109375 C-118.85689816 170.4176899 -130.93676682 162.3698828 -142.2578125 152.5859375 C-143.39669922 151.60173828 -143.39669922 151.60173828 -144.55859375 150.59765625 C-159.31070676 136.79157053 -168.17544593 117.83195355 -173.2578125 98.5859375 C-173.53709595 97.59013672 -173.53709595 97.59013672 -173.82202148 96.57421875 C-175.53572221 89.89314807 -175.6038999 83.33052099 -175.5703125 76.4609375 C-175.56467285 75.26041748 -175.5590332 74.05989746 -175.55322266 72.82299805 C-175.21146676 47.81898597 -166.05727269 25.11867533 -149.2578125 6.5859375 C-148.81985352 6.09883301 -148.38189453 5.61172852 -147.93066406 5.10986328 C-134.96520005 -9.13201727 -119.30878505 -18.32046613 -101.0078125 -24.2265625 C-100.05177124 -24.53750854 -100.05177124 -24.53750854 -99.07641602 -24.85473633 C-63.98576841 -35.56395572 -26.81001861 -23.11208501 0 0 Z M-124.2578125 14.5859375 C-125.2271875 15.359375 -126.1965625 16.1328125 -127.1953125 16.9296875 C-140.65182684 28.16311656 -150.17950514 47.30702936 -152.2578125 64.5859375 C-153.13597486 76.08457429 -153.1840139 87.6272629 -149.2578125 98.5859375 C-148.72994141 100.16181641 -148.72994141 100.16181641 -148.19140625 101.76953125 C-140.36011777 123.7126465 -125.57193312 139.4699151 -104.875 149.89453125 C-100.40484201 151.98478871 -96.06250503 153.50672964 -91.2578125 154.5859375 C-90.61158936 154.75222656 -89.96536621 154.91851562 -89.29956055 155.08984375 C-83.7399444 156.45627735 -78.5353646 156.90397383 -72.8203125 156.8359375 C-71.98338867 156.82844482 -71.14646484 156.82095215 -70.28417969 156.81323242 C-64.38989844 156.71047859 -58.92802196 156.28788217 -53.2578125 154.5859375 C-52.08863281 154.24433594 -50.91945313 153.90273438 -49.71484375 153.55078125 C-37.2782281 149.75153626 -27.04046699 144.19340298 -17.2578125 135.5859375 C-16.484375 134.90789062 -15.7109375 134.22984375 -14.9140625 133.53125 C-0.79351706 120.32950718 8.16254304 100.77877686 9.0234375 81.5234375 C9.66299992 56.91922621 2.05004904 36.18131195 -14.76806641 18.09619141 C-29.73980395 2.91835325 -50.7410015 -4.58107171 -71.6953125 -4.7265625 C-91.49026376 -4.7265625 -109.23078826 1.47412223 -124.2578125 14.5859375 Z " fill="#F2EFCE" transform="translate(387.2578125,239.4140625)"/>
<path d="M0 0 C9.16944356 7.25313288 13.84768496 17.48578955 16.67578125 28.5625 C17.88364255 43.35880091 15.17402787 56.14075184 6.0390625 68.09375 C-2.66295257 77.27234602 -14.39816195 82.83273226 -26.984375 83.86328125 C-40.59037167 84.1836207 -52.7881187 79.70835344 -62.82421875 70.375 C-72.53209648 59.98024413 -76.4939903 47.16145034 -76.3515625 33.171875 C-75.39958372 20.99727312 -70.08183719 10.75382639 -61.07421875 2.625 C-60.58566406 2.14417969 -60.09710938 1.66335938 -59.59375 1.16796875 C-42.84832224 -14.54329958 -17.98336217 -11.92117417 0 0 Z " fill="#F2EFCE" transform="translate(345.07421875,278.375)"/>
<path d="M0 0 C5.82053259 3.25727738 8.79421054 7.72977276 12.0625 13.375 C13.85915941 20.92096953 13.01029083 26.95242219 9.24609375 33.734375 C5.75611573 38.80752601 1.55632674 42.11147422 -4.3125 44 C-11.70905004 44.83951285 -18.5864225 45.13725126 -24.703125 40.484375 C-30.5874154 35.05711686 -34.37327415 29.2625659 -34.75 21.0625 C-34.53167018 14.53245355 -32.14821611 10.12556602 -27.9375 5.25 C-19.45913719 -2.01716812 -10.5811754 -4.77756101 0 0 Z " fill="#5E893C" transform="translate(326.3125,294)"/>
</svg>
