<?xml version="1.0" encoding="UTF-8"?>
<svg version="1.1" xmlns="http://www.w3.org/2000/svg" width="538" height="538">
<path d="M0 0 C177.54 0 355.08 0 538 0 C538 177.21 538 354.42 538 537 C360.46 537 182.92 537 0 537 C0 359.79 0 182.58 0 0 Z " fill="#CFBB28" transform="translate(0,0)"/>
<path d="M0 0 C104.94 0 209.88 0 318 0 C318 103.95 318 207.9 318 315 C299.85 315 281.7 315 263 315 C263 333.15 263 351.3 263 370 C158.06 370 53.12 370 -55 370 C-55 265.72 -55 161.44 -55 54 C-36.85 54 -18.7 54 0 54 C0 36.18 0 18.36 0 0 Z " fill="#F3F0CF" transform="translate(138,84)"/>
<path d="M0 0 C74.25 0 148.5 0 225 0 C225 72.93 225 145.86 225 221 C150.75 221 76.5 221 0 221 C0 148.07 0 75.14 0 0 Z " fill="#CFBB28" transform="translate(157,158)"/>
<path d="M0 0 C11.88 0 23.76 0 36 0 C36 79.53 36 159.06 36 241 C116.52 241 197.04 241 280 241 C280 252.55 280 264.1 280 276 C187.6 276 95.2 276 0 276 C0 184.92 0 93.84 0 0 Z " fill="#CFBC2B" transform="translate(102,158)"/>
<path d="M0 0 C92.07 0 184.14 0 279 0 C279 91.08 279 182.16 279 276 C267.45 276 255.9 276 244 276 C244 196.47 244 116.94 244 35 C163.48 35 82.96 35 0 35 C0 23.45 0 11.9 0 0 Z " fill="#CFBB28" transform="translate(157,103)"/>
</svg>
