<?xml version="1.0" encoding="UTF-8"?>
<svg version="1.1" xmlns="http://www.w3.org/2000/svg" width="538" height="538">
<path d="M0 0 C177.54 0 355.08 0 538 0 C538 177.54 538 355.08 538 538 C360.46 538 182.92 538 0 538 C0 360.46 0 182.92 0 0 Z " fill="#307DC6" transform="translate(0,0)"/>
<path d="M0 0 C6.07302433 3.12075798 9.70853162 6.69593573 13.125 12.5625 C13.55554688 13.28566406 13.98609375 14.00882812 14.4296875 14.75390625 C17.86130552 21.36864581 18.38482321 28.10169741 16.359375 35.2734375 C12.97791631 44.21014974 8.26391816 50.45262905 0.125 55.5625 C-7.21359206 58.61940317 -15.91605192 58.81110495 -23.60546875 56.875 C-31.52612424 53.60312854 -37.31246736 48.33080034 -40.875 40.5625 C-41.32359375 39.63630859 -41.32359375 39.63630859 -41.78125 38.69140625 C-44.87581205 31.57104821 -44.91726722 24.71389425 -42.25 17.4375 C-41.4987224 15.79343702 -40.70752346 14.16695187 -39.875 12.5625 C-39.50890625 11.84964844 -39.1428125 11.13679688 -38.765625 10.40234375 C-30.52698264 -2.79474076 -13.53096642 -5.50517034 0 0 Z " fill="#26649F" transform="translate(282.875,386.4375)"/>
<path d="M0 0 C7.47036523 5.88447764 10.88670608 13.5087583 12.15625 22.78125 C12.66291062 31.85508109 8.42360868 38.43612518 3.72265625 45.90234375 C-3.92058899 52.88095897 -12.08294329 55.62710938 -22.39453125 55.171875 C-30.32734443 53.81125736 -37.54538075 50.03239397 -42.71484375 43.77734375 C-47.33902853 36.55467448 -50.56350128 28.15431709 -49.15234375 19.52734375 C-46.90052425 10.24025386 -42.579129 4.10644672 -35.21484375 -1.84765625 C-23.78785126 -7.91095839 -10.57506208 -7.23556879 0 0 Z " fill="#26649F" transform="translate(288.15234375,99.47265625)"/>
<path d="M0 0 C9.43060452 5.37456556 14.27480715 11.62121608 17.3125 22 C17.395 22.804375 17.4775 23.60875 17.5625 24.4375 C17.68625 25.613125 17.81 26.78875 17.9375 28 C17.81513657 36.07598652 13.59397875 44.27614728 8.09375 50.04296875 C0.41551313 57.03564876 -6.95464297 57.89375057 -16.98046875 57.765625 C-23.05851804 57.18872541 -27.44215366 54.76773089 -32.4375 51.4375 C-32.4375 50.7775 -32.4375 50.1175 -32.4375 49.4375 C-33.31148438 49.13972656 -33.31148438 49.13972656 -34.203125 48.8359375 C-39.17349654 45.72511056 -41.53841716 38.86038891 -43.4375 33.4375 C-45.38374585 24.18995315 -42.29281664 16.29643824 -37.4375 8.4375 C-35.35700945 5.87611747 -33.23454754 4.16820806 -30.4375 2.4375 C-29.71949219 1.95539063 -29.00148438 1.47328125 -28.26171875 0.9765625 C-19.23993253 -4.36858744 -9.4412792 -4.39568944 0 0 Z " fill="#F2EFCF" transform="translate(427.4375,386.5625)"/>
<path d="M0 0 C5.93524512 4.83158384 9.86511568 13.00180002 11.2890625 20.44140625 C11.55604912 28.1961541 8.75476565 36.05718434 4.75 42.625 C2.6875 43.75 2.6875 43.75 0.75 44.625 C0.47929687 45.24761719 0.20859375 45.87023437 -0.0703125 46.51171875 C-1.62169695 49.29085447 -3.21151007 49.95753177 -6.0625 51.3125 C-6.91457031 51.72886719 -7.76664063 52.14523437 -8.64453125 52.57421875 C-16.9650314 55.92986274 -24.24858343 54.75057884 -32.51171875 51.828125 C-35.93475983 50.32413548 -37.91366073 48.52772455 -40.25 45.625 C-41.075 44.965 -41.9 44.305 -42.75 43.625 C-47.42936975 38.0097563 -51.33052621 29.28311508 -50.7265625 21.78125 C-48.64156394 12.34748601 -45.21366167 4.39865471 -37.25 -1.375 C-24.56891054 -8.50811282 -12.3664282 -7.74994727 0 0 Z " fill="#26649F" transform="translate(143.25,245.375)"/>
<path d="M0 0 C7.91833456 6.51063064 12.35013561 13.37986298 14.2265625 23.55859375 C14.7313095 30.79772834 11.85344008 39.60178324 7.26953125 45.1953125 C5.8125 46.3125 5.8125 46.3125 3.8125 46.3125 C3.57789063 46.91578125 3.34328125 47.5190625 3.1015625 48.140625 C0.47205859 52.57094067 -4.43749392 53.92730879 -9.1875 55.3125 C-18.5745763 56.48704977 -27.38503314 56.28320493 -35.1875 50.3125 C-42.11873489 44.28691426 -46.04995501 37.30774794 -47.52734375 28.22265625 C-47.63221333 26.17140731 -47.48442764 24.34531233 -47.1875 22.3125 C-47.06632813 21.45914062 -46.94515625 20.60578125 -46.8203125 19.7265625 C-45.05869403 11.11152424 -40.2782678 5.03966928 -33.21875 -0.12890625 C-31.4375 -1.1875 -31.4375 -1.1875 -28.1875 -2.6875 C-27.424375 -3.1 -26.66125 -3.5125 -25.875 -3.9375 C-16.95085051 -6.42796032 -8.01372865 -4.24256223 0 0 Z " fill="#F2EFCF" transform="translate(286.1875,243.6875)"/>
<path d="M0 0 C7.35960633 4.59337427 11.18015705 11.58994638 13.81640625 19.7578125 C15.3206955 29.25186445 12.01758045 37.27899264 7.09765625 45.2265625 C5.81640625 46.7578125 5.81640625 46.7578125 2.81640625 47.7578125 C2.81640625 48.4178125 2.81640625 49.0778125 2.81640625 49.7578125 C-6.76743473 55.39536602 -15.7754866 57.87185087 -26.91796875 55.0703125 C-36.4059162 51.14426528 -41.27482119 45.07168461 -45.18359375 35.7578125 C-45.61671875 34.7265625 -46.04984375 33.6953125 -46.49609375 32.6328125 C-48.60744578 23.80352221 -46.2641244 16.71982352 -42.18359375 8.7578125 C-31.97473322 -5.65469648 -15.0528739 -7.78909239 0 0 Z " fill="#26649F" transform="translate(140.18359375,388.2421875)"/>
<path d="M0 0 C8.86109232 5.41594777 13.45474228 11.92886341 16.375 21.9375 C17.92649019 30.13643189 15.14215044 37.68715518 11.375 44.9375 C7.21609066 50.48916038 1.29706791 55.57029822 -5.625 56.9375 C-8.58063891 57.17429554 -11.5357572 57.16834496 -14.5 57.1875 C-15.29019531 57.208125 -16.08039063 57.22875 -16.89453125 57.25 C-24.05697798 57.29767019 -28.62068044 55.14631217 -34 50.375 C-34.68835938 49.77558594 -35.37671875 49.17617187 -36.0859375 48.55859375 C-37.625 46.9375 -37.625 46.9375 -37.625 44.9375 C-38.615 44.6075 -39.605 44.2775 -40.625 43.9375 C-44.26383913 35.75923947 -46.37446046 27.37952394 -43.6015625 18.75390625 C-42.41143963 15.69204467 -41.26576907 12.78458097 -39.625 9.9375 C-38.635 9.6075 -37.645 9.2775 -36.625 8.9375 C-36.33753906 8.16019531 -36.05007812 7.38289062 -35.75390625 6.58203125 C-33.88114746 2.19498037 -30.4964579 1.05882401 -26.31640625 -0.8828125 C-17.88016776 -3.57883792 -8.1511108 -3.72764213 0 0 Z " fill="#26649F" transform="translate(283.625,169.0625)"/>
<path d="M0 0 C8.17054414 4.66707552 14.013657 11.51229755 17.18359375 20.35546875 C18.80700803 26.79079961 18.41912597 32.8233283 15.8359375 38.94140625 C15.4440625 40.07578125 15.0521875 41.21015625 14.6484375 42.37890625 C11.02549867 49.49985499 4.46920038 55.39698529 -3.1640625 57.94140625 C-12.54202132 58.95777775 -22.38499994 59.56287059 -30.2265625 53.6953125 C-30.8659375 53.11652344 -31.5053125 52.53773438 -32.1640625 51.94140625 C-32.7415625 51.43480469 -33.3190625 50.92820313 -33.9140625 50.40625 C-39.41523528 44.80880669 -43.26946973 36.3410972 -43.7890625 28.50390625 C-43.32481979 21.24845583 -40.30145611 13.73189236 -35.9140625 8.00390625 C-25.0443811 -0.1483548 -13.60130323 -4.55055948 0 0 Z " fill="#26649F" transform="translate(136.1640625,168.05859375)"/>
<path d="M0 0 C0.74701172 -0.01224609 1.49402344 -0.02449219 2.26367188 -0.03710938 C11.44788946 -0.06129959 16.88325246 3.25492471 23.6875 9.1875 C29.10101786 14.60101786 31.86614941 21.9732255 32.25 29.5625 C31.91072749 37.54671298 28.91632956 45.20810918 23.5 51.125 C21.6640625 52.71875 21.6640625 52.71875 19.6875 54.1875 C19.01460938 54.6928125 18.34171875 55.198125 17.6484375 55.71875 C9.92249101 60.49768597 0.46887551 60.60888013 -8.3125 59.1875 C-12.49350077 57.79229311 -16.04558614 56.17568907 -19.3125 53.1875 C-19.99855391 51.52871965 -20.66792666 49.86283502 -21.3125 48.1875 C-22.3025 47.8575 -23.2925 47.5275 -24.3125 47.1875 C-28.29687866 40.37477368 -30.8090255 33.05001476 -29.3125 25.1875 C-27.8792788 20.74451429 -26.18803961 16.46105096 -24.3125 12.1875 C-23.6525 12.1875 -22.9925 12.1875 -22.3125 12.1875 C-21.95478516 11.31158203 -21.95478516 11.31158203 -21.58984375 10.41796875 C-20.04968789 7.72858344 -18.33952092 6.36558973 -15.875 4.5 C-15.09253906 3.89800781 -14.31007812 3.29601562 -13.50390625 2.67578125 C-9.21048825 -0.24006948 -4.99711947 0.00424564 0 0 Z " fill="#26649F" transform="translate(268.3125,311.8125)"/>
<path d="M0 0 C7.12850678 5.00677336 12.96855994 11.26899741 14.72265625 19.97265625 C15.18619072 23.36102791 15.27467178 26.604058 15 30 C14.94328125 30.78375 14.8865625 31.5675 14.828125 32.375 C13.7770563 40.38314251 9.5348697 46.44883306 3.19921875 51.41015625 C1.5 52.4375 1.5 52.4375 -2 54 C-2.59167969 54.29519531 -3.18335938 54.59039062 -3.79296875 54.89453125 C-10.55278054 57.94689987 -17.87983789 58.21978484 -24.96875 56.12109375 C-33.68263536 52.49429806 -39.33330842 47.36237301 -43.2734375 38.796875 C-46.43786711 30.97086628 -45.75562122 21.87320347 -43 14 C-39.45008649 6.44026515 -33.88482225 1.55970313 -26.3125 -1.875 C-18.0444082 -4.60932957 -7.71179718 -4.14124972 0 0 Z " fill="#26649F" transform="translate(212,97)"/>
<path d="M0 0 C6.10095871 4.00195212 11.25688326 9.71776722 13.3125 16.8125 C14.95750145 25.02168993 14.6509475 33.37061137 11 41 C6.27140538 47.64925999 0.3395473 53.69197964 -7.828125 55.6796875 C-17.7441347 57.14212059 -26.20329102 56.20677362 -34.7734375 50.90234375 C-40.4076197 46.68385708 -44.33273993 40.20169486 -45.7109375 33.32421875 C-47.05474581 22.51927359 -46.11714324 14.79184466 -39.49609375 6.00390625 C-28.98225325 -5.77666202 -13.60309607 -6.94123228 0 0 Z " fill="#26649F" transform="translate(213,388)"/>
<path d="M0 0 C1.1588269 -0.00954712 1.1588269 -0.00954712 2.34106445 -0.01928711 C7.22311093 0.08967069 10.53844435 0.94189854 14.8125 3.5 C15.8025 4.0775 16.7925 4.655 17.8125 5.25 C25.62557633 11.10980724 29.46956518 18.15778627 31.23046875 27.78515625 C31.77464426 35.88895905 27.97089797 44.18642556 23 50.4375 C17.61971488 56.12364112 11.71482484 59.29667245 3.9140625 59.703125 C2.42194329 59.72428981 0.92973406 59.7397441 -0.5625 59.75 C-1.305 59.770625 -2.0475 59.79125 -2.8125 59.8125 C-11.57164757 59.8744021 -16.65275125 55.69707967 -22.91015625 49.91015625 C-27.03151255 45.54844641 -29.61444368 40.51709134 -30.1875 34.5 C-30.26226562 33.80519531 -30.33703125 33.11039063 -30.4140625 32.39453125 C-30.9063386 24.24606639 -28.45337246 16.94093823 -23.61328125 10.359375 C-21.91048389 8.53353168 -20.16552741 7.02093723 -18.1875 5.5 C-17.58808594 4.9946875 -16.98867188 4.489375 -16.37109375 3.96875 C-11.18259032 0.31344426 -6.15704325 0.04400987 0 0 Z " fill="#26649F" transform="translate(414.1875,166.5)"/>
<path d="M0 0 C6.66767204 4.36429443 9.989889 9.74306573 13 17 C13.36480469 17.85464844 13.72960937 18.70929688 14.10546875 19.58984375 C16.82237294 26.9100616 14.27574037 33.66810825 11.6015625 40.65234375 C7.85479367 48.48400444 1.8679968 52.89885291 -6.06640625 56.15625 C-14.16985422 58.48693543 -21.47278726 57.50404731 -29 54 C-30.546875 53.38125 -30.546875 53.38125 -32.125 52.75 C-39.65986866 48.16355821 -43.27951809 40.73493971 -45.75 32.5 C-45.87375 31.2625 -45.87375 31.2625 -46 30 C-46.165 28.700625 -46.33 27.40125 -46.5 26.0625 C-46.46859255 21.41419782 -44.77150508 17.6638228 -42.75 13.5625 C-42.45029297 12.94705322 -42.15058594 12.33160645 -41.84179688 11.69750977 C-40.06296658 8.3017756 -38.70693535 6.23837885 -35 5 C-35 4.34 -35 3.68 -35 3 C-25.25892309 -4.42177288 -10.97772872 -5.93390741 0 0 Z " fill="#26649F" transform="translate(430,97)"/>
<path d="M0 0 C6.98644324 3.7083467 11.58595794 8.96576764 14.41796875 16.390625 C16.76208673 24.6196266 16.36068487 32.6635234 12.6640625 40.4140625 C10.85891866 43.26588638 8.8509903 45.84705367 6.6640625 48.4140625 C6.0659375 49.1565625 5.4678125 49.8990625 4.8515625 50.6640625 C-2.19574392 56.30190764 -9.63083879 57.25365376 -18.4453125 56.87109375 C-26.84486937 55.88439882 -33.94961533 51.46847918 -39.35546875 44.99609375 C-44.97479416 36.31613358 -45.73083375 28.46135869 -44.3359375 18.4140625 C-41.84979521 12.6199127 -39.25906769 7.06925879 -33.3359375 4.4140625 C-33.0059375 3.4240625 -32.6759375 2.4340625 -32.3359375 1.4140625 C-21.28130844 -5.14846813 -11.47877954 -5.3093063 0 0 Z " fill="#26649F" transform="translate(211.3359375,242.5859375)"/>
<path d="M0 0 C0.474375 0.474375 0.94875 0.94875 1.4375 1.4375 C1.4375 2.0975 1.4375 2.7575 1.4375 3.4375 C2.03175781 3.65792969 2.62601563 3.87835938 3.23828125 4.10546875 C6.14283532 5.86471021 7.05173314 7.7611974 8.625 10.75 C9.38876953 12.16732422 9.38876953 12.16732422 10.16796875 13.61328125 C13.99330666 22.12318682 12.45932508 29.96233479 9.4375 38.4375 C6.40759411 46.31525532 -0.14189954 51.01322399 -7.62890625 54.51171875 C-15.68905231 57.05533342 -24.02382711 56.73247774 -31.5625 52.875 C-33.26415426 51.78180075 -34.93484145 50.63809962 -36.5625 49.4375 C-37.57957031 48.71240234 -37.57957031 48.71240234 -38.6171875 47.97265625 C-45.07636697 42.52532249 -47.33865644 34.1985197 -49.04296875 26.17578125 C-49.60017628 18.99232196 -45.64620714 10.95988233 -41.1875 5.5625 C-39.888125 4.510625 -39.888125 4.510625 -38.5625 3.4375 C-38.03785156 2.92574219 -37.51320313 2.41398437 -36.97265625 1.88671875 C-27.16584298 -7.43086574 -11.18020066 -6.81719553 0 0 Z " fill="#26649F" transform="translate(141.5625,98.5625)"/>
<path d="M0 0 C8.19401526 5.1591948 14.52263629 11.21070287 17.30859375 20.64453125 C19.21494432 29.79844886 17.29429201 37.67106616 12.7421875 45.7265625 C10.68447409 48.51953827 8.48411789 50.61392761 5.7421875 52.7265625 C5.154375 53.231875 4.5665625 53.7371875 3.9609375 54.2578125 C-3.36840028 59.49305377 -13.67110103 59.11120578 -22.2578125 57.7265625 C-27.42672683 55.79651281 -31.61693996 52.87943274 -35.2578125 48.7265625 C-35.2578125 48.0665625 -35.2578125 47.4065625 -35.2578125 46.7265625 C-36.2478125 46.3965625 -37.2378125 46.0665625 -38.2578125 45.7265625 C-42.90109893 37.5891642 -43.800349 27.94003816 -41.5625 18.92578125 C-39.52505546 13.28428566 -36.72042214 8.73998167 -32.2578125 4.7265625 C-31.61714844 4.14519531 -30.97648437 3.56382812 -30.31640625 2.96484375 C-22.25102633 -3.05263101 -9.30163242 -3.63588989 0 0 Z " fill="#26649F" transform="translate(136.2578125,313.2734375)"/>
<path d="M0 0 C6.39452683 4.23679546 10.97069793 9.52509373 13 17 C14.36726486 26.92331501 14.20982757 36.736031 8 45 C7.50371094 45.66386719 7.00742187 46.32773437 6.49609375 47.01171875 C1.16862001 53.13510423 -5.56807207 55.52073912 -13.50390625 56.37890625 C-23.62505215 56.7173696 -30.93875907 54.57471844 -38.4296875 47.7109375 C-45.74650596 39.73888157 -46.61925595 31.76549464 -46.41796875 21.29296875 C-45.95099206 13.58363877 -41.57292662 8.04055355 -36 3 C-35.34 3 -34.68 3 -34 3 C-33.67 2.01 -33.34 1.02 -33 0 C-22.52528264 -5.87606096 -10.37894298 -5.89832004 0 0 Z " fill="#26649F" transform="translate(358,243)"/>
<path d="M0 0 C5.90183001 4.3092727 10.33936887 9.8141826 12 17 C13.27137337 27.58362565 12.33839687 36.03348735 6 45 C0.71515047 51.35210625 -6.50681661 54.43285172 -14.58984375 55.453125 C-23.26472457 55.84063237 -30.13031264 54.57992392 -37 49 C-37.495 47.515 -37.495 47.515 -38 46 C-38.62519531 45.70738281 -39.25039063 45.41476562 -39.89453125 45.11328125 C-42.70428713 43.62760328 -43.33618888 42.03079501 -44.6875 39.1875 C-45.10386719 38.33542969 -45.52023437 37.48335938 -45.94921875 36.60546875 C-48.75433577 29.6500299 -49.26527631 22.56974507 -46.75390625 15.484375 C-42.7308699 6.3049492 -37.36071388 0.2176269 -28.125 -3.9375 C-18.24382947 -7.03632863 -8.95611271 -4.76733648 0 0 Z " fill="#26649F" transform="translate(432,244)"/>
<path d="M0 0 C8.22985239 4.46045435 13.23177464 10.70392685 16.7578125 19.2890625 C18.25668002 28.61534929 17.68476949 37.74237702 12.3203125 45.7890625 C11.6603125 45.7890625 11.0003125 45.7890625 10.3203125 45.7890625 C10.1140625 46.5315625 9.9078125 47.2740625 9.6953125 48.0390625 C7.89376667 51.64215416 5.76174462 52.76469066 2.3203125 54.7890625 C1.59972656 55.315 0.87914062 55.8409375 0.13671875 56.3828125 C-3.5564534 58.22683743 -6.89374456 58.24121632 -10.9296875 58.1640625 C-11.68749512 58.15391113 -12.44530273 58.14375977 -13.22607422 58.13330078 C-21.44038962 57.9057623 -27.8948349 56.38616317 -34.04296875 50.66796875 C-41.40067098 42.22153731 -43.24223295 34.705485 -42.6796875 23.7890625 C-41.83925242 16.10114815 -38.10089174 9.59633899 -32.1328125 4.69921875 C-22.45866633 -2.13699148 -11.47963552 -3.77779937 0 0 Z " fill="#26649F" transform="translate(209.6796875,168.2109375)"/>
<path d="M0 0 C0.77794922 -0.02900391 1.55589844 -0.05800781 2.35742188 -0.08789062 C10.66423706 -0.17795618 16.70178594 3.1814841 22.77734375 8.67578125 C29.18498676 15.50733958 30.77195358 23.84160981 30.63671875 32.90234375 C30.15160653 38.00478911 28.86440618 42.84026308 26.3125 47.3125 C25.3225 47.6425 24.3325 47.9725 23.3125 48.3125 C23.0134375 48.92738281 22.714375 49.54226563 22.40625 50.17578125 C21.00542514 52.91239267 19.39455932 53.86944631 16.8125 55.5 C15.62140625 56.26376953 15.62140625 56.26376953 14.40625 57.04296875 C7.81752541 61.03799765 -1.2050209 60.21155136 -8.6875 59.3125 C-12.68298816 57.93293479 -15.51704172 56.07386689 -18.6875 53.3125 C-19.265 52.879375 -19.8425 52.44625 -20.4375 52 C-26.1323696 47.21630953 -28.99755892 39.66812806 -30.13671875 32.4765625 C-30.45937567 24.71054413 -28.71897582 17.15666933 -23.8515625 10.984375 C-16.57936967 3.4614169 -10.587827 0.12838917 0 0 Z " fill="#26649F" transform="translate(413.6875,311.6875)"/>
<path d="M0 0 C5.17764113 3.93950955 9.09032307 10.18064614 12 16 C13.09223793 26.26427136 13.22985471 36.34495185 7 45 C6.34 45 5.68 45 5 45 C5 45.66 5 46.32 5 47 C-2.82645235 53.50392684 -10.73643069 56.72307911 -20.91015625 56.40234375 C-29.7942343 55.24550426 -35.71643748 51.05310066 -41.34375 44.28125 C-46.0977426 37.73329793 -47.19109543 33.15074706 -47.25 25.125 C-47.270625 24.43019531 -47.29125 23.73539063 -47.3125 23.01953125 C-47.37042957 15.32938027 -43.73106152 9.75545091 -39 4 C-28.2848059 -6.7151941 -13.09191805 -6.07624899 0 0 Z " fill="#26649F" transform="translate(359,98)"/>
<path d="M0 0 C6.5407561 4.16136293 11.57119124 8.46944093 13.57421875 16.22265625 C14.81119581 24.29137815 15.67032016 34.25721707 11.203125 41.3984375 C10.80609375 41.92695313 10.4090625 42.45546875 10 43 C9.60296875 43.54914063 9.2059375 44.09828125 8.796875 44.6640625 C3.92350728 50.9254147 -1.28006896 54.4196312 -9 56 C-19.14344701 57.05369975 -27.64471444 55.61838175 -35.8125 49.3125 C-39.57966486 45.83032161 -41.78660998 41.57311988 -44 37 C-44.33 36.34 -44.66 35.68 -45 35 C-45.1250348 32.21724882 -45.18517508 29.47043207 -45.1875 26.6875 C-45.19974609 25.92759766 -45.21199219 25.16769531 -45.22460938 24.38476562 C-45.24190777 17.74794918 -43.80181691 13.68132035 -39.625 8.4375 C-38.74714844 7.32181641 -38.74714844 7.32181641 -37.8515625 6.18359375 C-27.97368841 -5.46562907 -13.33287369 -7.41927505 0 0 Z " fill="#26649F" transform="translate(357,388)"/>
<path d="M0 0 C2.99969152 2.56223651 3.39054043 2.97430679 4 6.5625 C4.66 6.5625 5.32 6.5625 6 6.5625 C10.95869956 14.56040252 12.28297327 22.54734338 10.57421875 31.890625 C8.24746012 40.0556921 3.31284702 46.4529925 -3.75 51.125 C-11.50978127 54.94058305 -20.58472987 55.07834078 -29 53.5625 C-38.1462311 50.12103677 -43.15795313 43.48871458 -47.875 35.3125 C-50.42722172 26.80509426 -49.85460283 17.29166792 -45.8828125 9.3203125 C-41.98338531 2.77720587 -36.09065231 -3.02297303 -28.58203125 -5.109375 C-18.16290419 -6.43343956 -8.89301473 -5.83266553 0 0 Z " fill="#26649F" transform="translate(216,317.4375)"/>
<path d="M0 0 C7.39510073 4.50858473 12.52254331 10.92834308 15.375 19.0625 C17.02832765 28.86362207 16.27264921 38.24024861 10.57421875 46.5625 C4.12831412 53.88999372 -1.78488744 56.57989656 -11.359375 57.37109375 C-21.63204897 57.81811826 -27.86485765 56.28605115 -35.6796875 49.19921875 C-42.11907456 42.53271638 -43.75831339 36.06358622 -44 26.9375 C-43.74296414 17.3449217 -40.14651775 10.9324958 -33.625 4.0625 C-24.950174 -4.01634559 -10.66822543 -4.72308432 0 0 Z " fill="#26649F" transform="translate(355.625,168.9375)"/>
<path d="M0 0 C0 0.66 0 1.32 0 2 C0.75796875 2.23074219 1.5159375 2.46148437 2.296875 2.69921875 C5.56762822 4.27315057 6.46994903 5.68804212 8.25 8.8125 C8.75015625 9.66457031 9.2503125 10.51664062 9.765625 11.39453125 C13.31376784 18.88380742 13.17197952 28.93013359 10.9375 36.8125 C7.81277681 44.77032309 1.48896404 50.20667691 -6 54 C-13.33017649 56.44339216 -23.17155792 56.4334806 -30.421875 53.71875 C-36.27450121 50.16190534 -40.39410768 45.77947897 -44 40 C-44.66 39.01 -45.32 38.02 -46 37 C-47.84809063 30.15258729 -48.50812868 20.81624464 -45.875 14.125 C-41.19038912 6.31731519 -35.8918885 -1.12142284 -26.62109375 -3.6484375 C-17.30191698 -4.8984016 -8.3228826 -4.66081426 0 0 Z " fill="#26649F" transform="translate(359,316)"/>
</svg>
