<?xml version="1.0" encoding="UTF-8"?>
<svg version="1.1" xmlns="http://www.w3.org/2000/svg" width="538" height="538">
<path d="M0 0 C177.54 0 355.08 0 538 0 C538 177.54 538 355.08 538 538 C360.46 538 182.92 538 0 538 C0 360.46 0 182.92 0 0 Z " fill="#DE6717" transform="translate(0,0)"/>
<path d="M0 0 C8.19824391 5.84836166 13.15539888 12.78899128 15.375 22.65234375 C17.02591639 33.39804061 16.01824102 43.28996053 9.8125 52.453125 C3.55600355 59.98561744 -4.44767088 66.32008442 -14.36230469 67.83154297 C-26.70709568 68.90349212 -36.02060318 65.50925992 -46.1875 58.5 C-48.45495088 56.38714804 -49.64073305 55.05711304 -51.1875 52.5 C-51.72503906 51.62988281 -52.26257813 50.75976562 -52.81640625 49.86328125 C-57.73682516 40.76450196 -58.91303647 31.69635189 -57.1875 21.5 C-55.75127157 17.03499053 -53.8280953 13.36354382 -51.1875 9.5 C-50.73117187 8.81550781 -50.27484375 8.13101563 -49.8046875 7.42578125 C-38.24961069 -7.79390563 -15.55720609 -9.58555804 0 0 Z " fill="#F3EFCE" transform="translate(318.1875,193.5)"/>
<path d="M0 0 C7.51312076 6.67807147 12.46065459 14.82587227 13.38012695 24.97021484 C13.66225306 36.12162046 10.37400873 46.74989808 2.58325195 54.98974609 C-6.80624495 63.53353773 -16.00470554 65.9972275 -28.4362793 65.75927734 C-37.57976907 65.21483481 -45.52763201 59.80439789 -51.7722168 53.36865234 C-59.91023675 43.42837683 -60.82425684 32.91464311 -59.8581543 20.34130859 C-58.57870632 11.28887021 -52.31708735 4.2477386 -45.61987305 -1.61962891 C-32.50648329 -11.16934436 -12.39005658 -10.22653466 0 0 Z " fill="#F3EFCE" transform="translate(142.858154296875,195.65869140625)"/>
<path d="M0 0 C8.4740711 6.36871182 13.98375113 13.46760858 16.625 23.8125 C17.28407114 31.88612152 17.00622091 38.32495332 13.875 45.875 C13.483125 46.865 13.09125 47.855 12.6875 48.875 C7.0861641 58.14617667 -0.46966251 64.94581269 -11.125 67.875 C-19.60780686 69.19711905 -27.33561851 68.67696001 -35.125 64.875 C-36.33349609 64.31039062 -36.33349609 64.31039062 -37.56640625 63.734375 C-47.02754907 58.78600564 -52.32091567 51.16142869 -55.734375 41.07421875 C-57.76497775 29.64192524 -56.75408725 19.58397292 -50.125 9.875 C-39.07609654 -5.85653397 -16.27445082 -10.74358483 0 0 Z " fill="#B15212" transform="translate(439.125,193.125)"/>
<path d="M0 0 C0.66386719 0.33773437 1.32773438 0.67546875 2.01171875 1.0234375 C8.56738388 4.94210475 13.25718013 12.47440603 15.94921875 19.46484375 C16.49435516 21.66472049 16.81395045 23.74259878 17 26 C17.06832031 26.70382813 17.13664062 27.40765625 17.20703125 28.1328125 C17.74316624 39.21293569 14.17612566 48.6625926 7 57 C0.54094203 63.90553663 -7.5984628 67.48821262 -16.98046875 68.23828125 C-27.28946618 68.47685732 -34.69722984 66.1788057 -43 60 C-43.80308594 59.42378906 -44.60617188 58.84757812 -45.43359375 58.25390625 C-48.32107222 55.71802333 -49.87680926 53.28189143 -51.75 49.9375 C-52.34296875 48.89464844 -52.9359375 47.85179687 -53.546875 46.77734375 C-56.29020477 41.53404411 -56.24985471 37.09674877 -56.3125 31.3125 C-56.35600586 30.00249023 -56.35600586 30.00249023 -56.40039062 28.66601562 C-56.46066133 22.45813325 -55.28323803 18.25578843 -52 13 C-51.31357422 11.86884766 -51.31357422 11.86884766 -50.61328125 10.71484375 C-38.21493887 -6.22583428 -18.25035039 -10.036291 0 0 Z " fill="#F3EFCE" transform="translate(228,104)"/>
<path d="M0 0 C10.19100829 5.81004611 16.74867133 13.86715082 20.078125 25.0703125 C22.00129309 34.43685339 20.41578845 44.71506898 15.90625 53.08203125 C10.44180683 61.26749838 3.29335187 67.28207564 -6.4375 69.5625 C-8.11879562 69.79926473 -9.8079101 69.98484195 -11.5 70.125 C-12.4590625 70.20621094 -13.418125 70.28742188 -14.40625 70.37109375 C-25.37950075 70.83773972 -34.36824025 67.47521762 -42.5 60.125 C-49.82202496 53.14353434 -52.98844666 43.17112339 -53.25 33.1875 C-53.19212966 22.97892582 -48.41131909 13.55008086 -41.5 6.125 C-39.24123819 4.52082527 -36.87326887 3.1902646 -34.4375 1.875 C-33.81294922 1.524375 -33.18839844 1.17375 -32.54492188 0.8125 C-22.43291355 -4.7992869 -10.44866089 -4.85401259 0 0 Z " fill="#F3EFCE" transform="translate(313.5,279.875)"/>
<path d="M0 0 C7.36288975 6.31437697 13.36091338 15.52760263 14.203125 25.375 C14.41086695 37.00854919 12.20310582 47.36210058 4 56 C-2.71911491 61.64027111 -9.19028399 65.38130239 -18 66 C-19.43666016 66.11988281 -19.43666016 66.11988281 -20.90234375 66.2421875 C-30.27182627 66.65217773 -38.99296024 64.31951929 -46.44921875 58.46484375 C-49.45889176 55.62195363 -51.76089719 52.46937907 -54 49 C-54.48984375 48.29359375 -54.9796875 47.5871875 -55.484375 46.859375 C-60.1315302 39.18373663 -60.12345935 30.69866107 -59 22 C-57.50621284 15.97177265 -54.70170834 10.97417058 -51 6 C-50.4225 5.19691406 -49.845 4.39382813 -49.25 3.56640625 C-46.73091322 0.69307289 -44.31886199 -0.87484298 -41 -2.75 C-39.96875 -3.34296875 -38.9375 -3.9359375 -37.875 -4.546875 C-25.52597027 -10.78850416 -10.84477583 -7.57457281 0 0 Z " fill="#B15212" transform="translate(442,284)"/>
<path d="M0 0 C3.53676896 2.956664 6.41196214 6.01399401 9.1875 9.6875 C9.69152344 10.29980469 10.19554687 10.91210938 10.71484375 11.54296875 C15.14553627 17.99509129 16.16989043 27.06281067 15.1875 34.6875 C12.89034817 45.88611518 8.35902531 53.82938928 -0.8125 60.6875 C-10.88462952 67.23213259 -20.06406722 68.08389582 -31.75 65.9375 C-38.43014056 64.16521781 -43.06595983 60.69773684 -47.8125 55.6875 C-48.8025 55.0275 -49.7925 54.3675 -50.8125 53.6875 C-51.88651615 51.72625312 -52.87307514 49.71665769 -53.8125 47.6875 C-54.14362793 47.11362549 -54.47475586 46.53975098 -54.81591797 45.94848633 C-57.82459279 40.60679589 -58.54873054 36.08662034 -58.5 30 C-58.49782471 29.12802979 -58.49564941 28.25605957 -58.4934082 27.35766602 C-58.19894687 18.41577427 -55.13463438 11.6406029 -49.20703125 4.84765625 C-47.8125 3.6875 -47.8125 3.6875 -45.8125 3.6875 C-45.4825 2.6975 -45.1525 1.7075 -44.8125 0.6875 C-32.10503734 -8.87146187 -12.77360486 -9.52750726 0 0 Z " fill="#F3EFCE" transform="translate(229.8125,194.3125)"/>
<path d="M0 0 C8.21347056 5.3145986 14.52755484 12.30478783 17.6484375 21.7421875 C19.83244734 32.26514402 17.96854613 43.21006758 12.6953125 52.54296875 C9.93278426 56.49759573 7.81323025 58.54485978 3.12109375 60.01953125 C2.62609375 61.50453125 2.62609375 61.50453125 2.12109375 63.01953125 C-7.51365914 69.30691595 -19.17018122 69.59463132 -30.12890625 67.35546875 C-39.44924058 64.37813973 -46.42624602 57.87088175 -51.36328125 49.50390625 C-55.49645554 40.57420872 -57.12615072 30.60973287 -54.28271484 21.00585938 C-49.97657292 9.65616082 -42.87403309 1.98687282 -31.87890625 -2.98046875 C-20.30476489 -7.47002565 -10.47678608 -5.66412816 0 0 Z " fill="#B15212" transform="translate(437.87890625,370.98046875)"/>
<path d="M0 0 C0.65742188 0.32355469 1.31484375 0.64710938 1.9921875 0.98046875 C10.20803276 5.29995821 15.43776603 12.55191357 18.82421875 21.07421875 C21.47118866 30.329227 20.30108228 40.06983338 17 49 C15.28874478 51.97502704 13.31400633 54.47402363 11 57 C9.7934375 58.36125 9.7934375 58.36125 8.5625 59.75 C5.59297737 62.35738572 2.52220417 64.26119035 -1 66 C-2.134375 66.5775 -3.26875 67.155 -4.4375 67.75 C-12.93699633 70.74884763 -24.53332061 70.32518204 -32.625 66.45703125 C-42.55050164 60.36786659 -49.91312413 53.39459832 -53 42 C-53.29916326 39.03640287 -53.32492422 36.10184317 -53.3125 33.125 C-53.32861328 32.36058594 -53.34472656 31.59617187 -53.36132812 30.80859375 C-53.36999251 20.6019487 -49.16460546 13.25014757 -42.11328125 6.08203125 C-30.13238744 -4.95733849 -14.77692143 -7.70624397 0 0 Z " fill="#F3EFCE" transform="translate(225,370)"/>
<path d="M0 0 C7.92217159 6.16168902 11.98246888 14.27783918 14 24 C15.10770779 33.35564009 13.45044501 43.25305667 7.75 50.875 C0.72594576 59.0011548 -7.52095617 65.3359785 -18.59375 66.203125 C-29.12523879 66.37298772 -38.89802435 65.1812966 -47 58 C-47 57.34 -47 56.68 -47 56 C-47.66 56 -48.32 56 -49 56 C-56.81814706 47.18074874 -60.03800873 38.38140833 -59.3984375 26.78515625 C-58.34937584 16.81907051 -55.28250355 9.92725948 -48 3 C-47.443125 2.34 -46.88625 1.68 -46.3125 1 C-32.56476997 -10.88992867 -14.32187836 -9.51687886 0 0 Z " fill="#F3EFCE" transform="translate(231,284)"/>
<path d="M0 0 C2.125 1.38671875 2.125 1.38671875 3.125 4.38671875 C3.89585937 4.68835938 4.66671875 4.99 5.4609375 5.30078125 C10.38811911 7.30922185 12.65860425 11.85585841 15.125 16.38671875 C18.9127124 26.27464165 19.85908102 36.66286234 16.0625 46.63671875 C11.5542685 56.28282301 5.44276592 61.49146039 -3.875 66.38671875 C-4.926875 67.00546875 -5.97875 67.62421875 -7.0625 68.26171875 C-13.97277188 70.30081537 -23.00712232 70.99717773 -29.8125 68.13671875 C-30.823125 67.55921875 -31.83375 66.98171875 -32.875 66.38671875 C-33.5040625 66.11988281 -34.133125 65.85304688 -34.78125 65.578125 C-44.35828121 61.43421727 -50.09396245 53.92856458 -53.875 44.38671875 C-56.75488861 35.78445408 -56.0919633 24.67056885 -52.125 16.63671875 C-46.91984849 7.43569335 -40.34542919 0.40630846 -30.16015625 -2.9140625 C-19.63197059 -5.15490107 -9.84671939 -4.45510537 0 0 Z " fill="#B15212" transform="translate(437.875,102.61328125)"/>
<path d="M0 0 C2.125 1.38671875 2.125 1.38671875 3.125 4.38671875 C4.3315625 4.81984375 4.3315625 4.81984375 5.5625 5.26171875 C8.125 6.38671875 8.125 6.38671875 9.4375 9.01171875 C9.664375 9.79546875 9.89125 10.57921875 10.125 11.38671875 C10.785 11.38671875 11.445 11.38671875 12.125 11.38671875 C18.11162679 22.57531737 19.91704862 32.61978704 16.625 45.07421875 C13.02220392 55.60546884 5.8434795 61.49612907 -3.875 66.38671875 C-4.50921875 66.72703125 -5.1434375 67.06734375 -5.796875 67.41796875 C-12.99157053 70.73859746 -21.54552726 70.47434115 -29.09375 68.578125 C-39.19680029 64.81551993 -46.54009297 58.63204087 -51.4375 49.01171875 C-55.61375259 39.85472299 -56.87342117 29.52951672 -53.7109375 19.80859375 C-49.08457264 10.36606445 -42.90349132 2.3173088 -33.0625 -1.92578125 C-21.97290864 -5.61223941 -10.57419354 -4.78424789 0 0 Z " fill="#F3F0CE" transform="translate(315.875,102.61328125)"/>
<path d="M0 0 C4.80521373 2.7901241 8.40220228 5.53749294 11.32006836 10.33251953 C11.87178711 11.04021484 12.42350586 11.74791016 12.99194336 12.47705078 C19.03769787 21.28222077 18.80276984 32.07768464 17.32006836 42.33251953 C14.33326866 52.46667853 7.47559528 60.20542446 -1.67993164 65.33251953 C-10.36886759 69.76292203 -21.97210026 70.17600336 -31.19946289 67.19580078 C-40.60975884 62.68596083 -47.84505613 56.6879288 -52.67993164 47.33251953 C-55.85633927 38.26945886 -56.44053785 26.79544319 -52.99243164 17.70751953 C-52.27087762 16.22418547 -51.50267708 14.76220833 -50.67993164 13.33251953 C-50.31770508 12.69056641 -49.95547852 12.04861328 -49.58227539 11.38720703 C-38.61597828 -5.78712945 -17.0510561 -9.16871569 0 0 Z " fill="#F3F0CE" transform="translate(137.679931640625,370.66748046875)"/>
<path d="M0 0 C6.85375249 5.12074819 10.97204549 10.4528322 12.921875 18.8203125 C13.21094266 20.77963993 13.21094266 20.77963993 14.39453125 21.7890625 C15.43853905 31.56166011 13.91640101 42.50625786 8.39453125 50.7890625 C7.73453125 50.7890625 7.07453125 50.7890625 6.39453125 50.7890625 C6.22953125 51.4903125 6.06453125 52.1915625 5.89453125 52.9140625 C2.67782362 59.07941879 -4.19385564 62.75845417 -10.578125 65.08984375 C-22.69560561 67.88859088 -33.83512668 66.12512326 -44.4609375 59.66015625 C-48.92285953 56.36819835 -51.86397399 51.51849979 -54.60546875 46.7890625 C-54.95037354 46.20415039 -55.29527832 45.61923828 -55.65063477 45.01660156 C-58.40704843 40.01301102 -59.34714486 35.85629071 -59.29296875 30.1640625 C-59.28789307 29.38571045 -59.28281738 28.6073584 -59.27758789 27.80541992 C-58.89398989 18.06203067 -54.82388721 9.92219014 -48.23046875 2.7265625 C-33.8860503 -10.03835819 -15.82534404 -10.11825147 0 0 Z " fill="#F3F0CE" transform="translate(319.60546875,373.2109375)"/>
<path d="M0 0 C10.13112253 3.88934735 17.50817746 10.51790403 22.7734375 19.96875 C26.6505716 29.11221934 26.48213216 40.38709609 23.9296875 49.88671875 C20.09402551 58.50580804 13.36184936 65.42755991 5.01171875 69.7890625 C-4.31244738 73.349425 -15.55961737 74.15446817 -24.95703125 70.37109375 C-34.40995368 65.56714957 -41.46942001 58.99955278 -46.0390625 49.2890625 C-48.91796301 39.97262056 -48.43912526 27.01887642 -44.1015625 18.28125 C-38.13308471 10.00372381 -31.48946551 4.47020849 -22.1015625 0.28125 C-16.36049291 -2.5892848 -6.15531134 -1.42641976 0 0 Z " fill="#F3EFCE" transform="translate(130.1015625,277.71875)"/>
<path d="M0 0 C8.29018685 4.43829698 15.03608331 11.28330783 18.83984375 19.9140625 C21.6343549 30.19786355 21.65194319 41.66514064 16.81640625 51.3203125 C10.93596034 61.31238493 2.92684263 67.07999718 -8.18359375 70.5078125 C-19.77920482 72.34175299 -28.4267449 70.00391993 -38.18359375 63.5078125 C-45.27562858 57.88267718 -50.49675692 50.47595938 -52.18359375 41.5078125 C-53.07595247 32.42512262 -53.40955108 23.34674849 -48.18359375 15.5078125 C-47.68601562 14.74082031 -47.1884375 13.97382812 -46.67578125 13.18359375 C-35.83867331 -2.0639651 -17.26306579 -6.717329 0 0 Z " fill="#F3F0CE" transform="translate(135.18359375,101.4921875)"/>
</svg>
