<?xml version="1.0" encoding="UTF-8"?>
<svg version="1.1" xmlns="http://www.w3.org/2000/svg" width="630" height="630">
<path d="M0 0 C207.9 0 415.8 0 630 0 C630 207.9 630 415.8 630 630 C422.1 630 214.2 630 0 630 C0 422.1 0 214.2 0 0 Z " fill="#8758A7" transform="translate(0,0)"/>
<path d="M0 0 C29.04 0 58.08 0 88 0 C88 29.04 88 58.08 88 88 C58.96 88 29.92 88 0 88 C0 58.96 0 29.92 0 0 Z " fill="#6C4786" transform="translate(323,324)"/>
<path d="M0 0 C29.04 0 58.08 0 88 0 C88 29.04 88 58.08 88 88 C58.96 88 29.92 88 0 88 C0 58.96 0 29.92 0 0 Z " fill="#6C4786" transform="translate(219,324)"/>
<path d="M0 0 C29.04 0 58.08 0 88 0 C88 29.04 88 58.08 88 88 C58.96 88 29.92 88 0 88 C0 58.96 0 29.92 0 0 Z " fill="#6C4786" transform="translate(112,324)"/>
<path d="M0 0 C29.04 0 58.08 0 88 0 C88 29.04 88 58.08 88 88 C58.96 88 29.92 88 0 88 C0 58.96 0 29.92 0 0 Z " fill="#6C4786" transform="translate(323,111)"/>
<path d="M0 0 C29.04 0 58.08 0 88 0 C88 29.04 88 58.08 88 88 C58.96 88 29.92 88 0 88 C0 58.96 0 29.92 0 0 Z " fill="#6C4786" transform="translate(219,111)"/>
<path d="M0 0 C29.04 0 58.08 0 88 0 C88 29.04 88 58.08 88 88 C58.96 88 29.92 88 0 88 C0 58.96 0 29.92 0 0 Z " fill="#F2EFCF" transform="translate(112,111)"/>
<path d="M0 0 C29.04 0 58.08 0 88 0 C88 28.71 88 57.42 88 87 C58.96 87 29.92 87 0 87 C0 58.29 0 29.58 0 0 Z " fill="#6C4786" transform="translate(112,432)"/>
<path d="M0 0 C29.04 0 58.08 0 88 0 C88 28.71 88 57.42 88 87 C58.96 87 29.92 87 0 87 C0 58.29 0 29.58 0 0 Z " fill="#6C4786" transform="translate(112,219)"/>
<path d="M0 0 C28.71 0 57.42 0 87 0 C87 28.71 87 57.42 87 87 C58.29 87 29.58 87 0 87 C0 58.29 0 29.58 0 0 Z " fill="#F4F1D0" transform="translate(431,432)"/>
<path d="M0 0 C28.71 0 57.42 0 87 0 C87 28.71 87 57.42 87 87 C58.29 87 29.58 87 0 87 C0 58.29 0 29.58 0 0 Z " fill="#6C4786" transform="translate(324,432)"/>
<path d="M0 0 C28.71 0 57.42 0 87 0 C87 28.71 87 57.42 87 87 C58.29 87 29.58 87 0 87 C0 58.29 0 29.58 0 0 Z " fill="#6C4786" transform="translate(219,432)"/>
<path d="M0 0 C28.71 0 57.42 0 87 0 C87 28.71 87 57.42 87 87 C58.29 87 29.58 87 0 87 C0 58.29 0 29.58 0 0 Z " fill="#6C4786" transform="translate(431,325)"/>
<path d="M0 0 C28.71 0 57.42 0 87 0 C87 28.71 87 57.42 87 87 C58.29 87 29.58 87 0 87 C0 58.29 0 29.58 0 0 Z " fill="#6C4786" transform="translate(431,219)"/>
<path d="M0 0 C28.71 0 57.42 0 87 0 C87 28.71 87 57.42 87 87 C58.29 87 29.58 87 0 87 C0 58.29 0 29.58 0 0 Z " fill="#6C4786" transform="translate(324,219)"/>
<path d="M0 0 C28.71 0 57.42 0 87 0 C87 28.71 87 57.42 87 87 C58.29 87 29.58 87 0 87 C0 58.29 0 29.58 0 0 Z " fill="#6C4786" transform="translate(219,219)"/>
<path d="M0 0 C28.71 0 57.42 0 87 0 C87 28.71 87 57.42 87 87 C58.29 87 29.58 87 0 87 C0 58.29 0 29.58 0 0 Z " fill="#6C4786" transform="translate(431,112)"/>
</svg>
