<?xml version="1.0" encoding="UTF-8"?>
<svg version="1.1" xmlns="http://www.w3.org/2000/svg" width="553" height="282">
<path d="M0 0 C3.63847279 2.65234465 6.35535521 5.46159448 9.125 9 C12.54582664 13.24182504 16.00872857 17.42434068 19.625 21.5 C20.91277344 22.96953125 20.91277344 22.96953125 22.2265625 24.46875 C29.53063438 31.13500152 39.55504218 31.60292931 48.96362305 33.22412109 C56.92400291 34.6099636 63.61118906 35.89243236 70 41 C71.00546875 41.75539062 72.0109375 42.51078125 73.046875 43.2890625 C79.5989764 48.95113857 83.01613021 53.56243032 85 62 C85.31324219 63.13115234 85.31324219 63.13115234 85.6328125 64.28515625 C86.61447167 68.31548933 87.03778965 72.20848559 87.12890625 76.34765625 C87.28684736 88.38964507 87.28684736 88.38964507 94 98 C98.26011455 102.5181017 101.37911288 106.97183355 103.9375 112.625 C104.26814453 113.34864746 104.59878906 114.07229492 104.93945312 114.81787109 C117.86789248 143.90685965 117.86789248 143.90685965 115 158 C113.73471589 160.04373039 112.40724379 162.05129718 111 164 C110.773125 164.94875 110.54625 165.8975 110.3125 166.875 C104.45242405 180.82756178 82.96099559 187.67013113 70 193 C68.37975288 193.59513414 66.75482452 194.17771236 65.125 194.74609375 C54.46921595 198.47367267 47.84748657 202.94914868 40 211 C27.91068293 222.19635615 11.44550827 228.84582708 -4 234 C-4.90234375 234.33902344 -5.8046875 234.67804688 -6.734375 235.02734375 C-17.29337866 238.5852689 -31.42764288 239.26824303 -41.6875 234.625 C-53.11494074 227.71388956 -59.55546041 216.15631416 -65.234375 204.45703125 C-69.52059874 196.59431562 -77.52066876 193.25634188 -85.08447266 189.07666016 C-99.46653753 180.99293519 -108.52374151 165.60107738 -113 150 C-114.31416871 141.51902749 -111.62410432 133.64188509 -106.68359375 126.78515625 C-105.81138629 125.64729347 -104.93764695 124.51060353 -104.0625 123.375 C-100.20770609 118.29374505 -97.62288277 113.42070608 -95.75 107.3125 C-95.53351807 106.64847168 -95.31703613 105.98444336 -95.09399414 105.30029297 C-92.37913096 95.37850383 -96.61453452 85.8232591 -100.125 76.625 C-103.69358115 66.78769559 -106.74638333 57.73677957 -102.4375 47.5625 C-98.64849254 41.23859319 -92.96907983 37.22851536 -86 35 C-80.35837356 33.77990017 -74.65629597 32.89955008 -68.95898438 31.98242188 C-60.94876149 30.60809713 -53.37931969 29.10112195 -47.5625 22.9375 C-46.99402344 22.33550781 -46.42554687 21.73351562 -45.83984375 21.11328125 C-43.70726374 18.66375729 -41.66461951 16.15243146 -39.625 13.625 C-28.65290002 0.10081565 -17.30633021 -10.23220983 0 0 Z " fill="#F2F2F2" transform="translate(146,45)"/>
<path d="M0 0 C2 1 2 1 2.59765625 2.65234375 C3.46488806 6.91562617 4.04260127 11.03588221 4.13671875 15.38671875 C4.29028895 27.40818553 4.29028895 27.40818553 11 37 C15.26011455 41.5181017 18.37911288 45.97183355 20.9375 51.625 C21.26814453 52.34864746 21.59878906 53.07229492 21.93945312 53.81787109 C34.86789248 82.90685965 34.86789248 82.90685965 32 97 C30.73471589 99.04373039 29.40724379 101.05129718 28 103 C27.6596875 104.423125 27.6596875 104.423125 27.3125 105.875 C21.45242405 119.82756178 -0.03900441 126.67013113 -13 132 C-14.62024712 132.59513414 -16.24517548 133.17771236 -17.875 133.74609375 C-28.53078405 137.47367267 -35.15251343 141.94914868 -43 150 C-55.08931707 161.19635615 -71.55449173 167.84582708 -87 173 C-87.90234375 173.33902344 -88.8046875 173.67804688 -89.734375 174.02734375 C-100.29337866 177.5852689 -114.42764288 178.26824303 -124.6875 173.625 C-136.11494074 166.71388956 -142.55546041 155.15631416 -148.234375 143.45703125 C-152.52059874 135.59431562 -160.52066876 132.25634188 -168.08447266 128.07666016 C-178.64779307 122.13933629 -185.0337449 113.40849164 -190.4375 102.75 C-190.95086914 101.73993896 -190.95086914 101.73993896 -191.47460938 100.70947266 C-193.36677308 96.81242471 -194.51951793 93.35817542 -195 89 C-194.34 89 -193.68 89 -193 89 C-193.33 88.01 -193.66 87.02 -194 86 C-192.68 86.33 -191.36 86.66 -190 87 C-190.495 87.495 -190.495 87.495 -191 88 C-189.49609573 91.75976069 -188.08405769 94.87511429 -185.8125 98.25 C-184 101 -184 101 -184 104 C-183.34 104 -182.68 104 -182 104 C-181.505 103.01 -181.505 103.01 -181 102 C-181 102.99 -181 103.98 -181 105 C-179.02 104.505 -179.02 104.505 -177 104 C-176.34 104.99 -175.68 105.98 -175 107 C-175.66 107 -176.32 107 -177 107 C-176.67 107.99 -176.34 108.98 -176 110 C-175.34 110.33 -174.68 110.66 -174 111 C-174 111.66 -174 112.32 -174 113 C-173.34 113 -172.68 113 -172 113 C-171.34 113.66 -170.68 114.32 -170 115 C-169.34 115.33 -168.68 115.66 -168 116 C-167.505 116.495 -167.505 116.495 -167 117 C-164.67451993 117.69356423 -162.34119555 118.36149212 -160 119 C-160 118.01 -160 117.02 -160 116 C-159.01 115.67 -158.02 115.34 -157 115 C-156.79375 115.639375 -156.5875 116.27875 -156.375 116.9375 C-155.12114709 119.34069672 -155.12114709 119.34069672 -152 119.625 C-150.515 119.810625 -150.515 119.810625 -149 120 C-148.01 120.99 -148.01 120.99 -147 122 C-147.66 122 -148.32 122 -149 122 C-148.175 122.94875 -147.35 123.8975 -146.5 124.875 C-144 127.75 -144 127.75 -144 130 C-143.071875 130.3403125 -143.071875 130.3403125 -142.125 130.6875 C-139.38589791 132.37929835 -138.94975528 133.99244161 -138 137 C-137.01 137 -136.02 137 -135 137 C-133.82004809 138.38222938 -132.64804857 139.772438 -131.52734375 141.203125 C-128.07888347 145.2601371 -124.08961587 149.30346138 -119 151 C-119.33 150.01 -119.66 149.02 -120 148 C-118.68 147.67 -117.36 147.34 -116 147 C-115.34 147.99 -114.68 148.98 -114 150 C-114.66 150.33 -115.32 150.66 -116 151 C-115.67 151.99 -115.34 152.98 -115 154 C-113.14255793 154.61067144 -113.14255793 154.61067144 -111 155 C-110.38125 155.350625 -109.7625 155.70125 -109.125 156.0625 C-106.35260474 157.28561556 -103.99836851 157.06663041 -101 157 C-100.67 157.33 -100.34 157.66 -100 158 C-96.1359765 158.17563743 -92.76691162 157.78032893 -89 157 C-88.14019531 156.86980469 -87.28039062 156.73960937 -86.39453125 156.60546875 C-85.54246094 156.46753906 -84.69039063 156.32960938 -83.8125 156.1875 C-82.95269531 156.05730469 -82.09289062 155.92710937 -81.20703125 155.79296875 C-78.8232299 155.21451057 -78.8232299 155.21451057 -77.91015625 152.96875 C-77.60980469 152.3190625 -77.30945313 151.669375 -77 151 C-73.625 150.3125 -73.625 150.3125 -70 150 C-68.66216607 149.68521554 -67.32796291 149.35412344 -66 149 C-64.33480481 148.65939189 -62.66842534 148.32441604 -61 148 C-60.89459074 145.78918149 -60.89459074 145.78918149 -62 143 C-59.31158141 140.74754119 -57.35358125 139.11786042 -54 138 C-53.34 137.01 -52.68 136.02 -52 135 C-51.34 134.67 -50.68 134.34 -50 134 C-49.34 133.34 -48.68 132.68 -48 132 C-47.34 132.33 -46.68 132.66 -46 133 C-45.443125 132.360625 -44.88625 131.72125 -44.3125 131.0625 C-41.72931876 128.7585816 -40.31085404 128.60989416 -37 128 C-36.01 126.515 -36.01 126.515 -35 125 C-32.375 124.8125 -32.375 124.8125 -30 125 C-30 124.34 -30 123.68 -30 123 C-27.77673128 121.76485071 -25.94863244 120.98997706 -23.4375 120.5 C-20.48807176 119.89498908 -18.65320983 118.55271601 -16.375 116.625 C-12.83638786 114.20384433 -8.94141276 112.65909896 -5 111 C-5 110.01 -5 109.02 -5 108 C-3.73585657 104.62895087 -2.12736386 102.80060343 1 101 C1.99 101.33 2.98 101.66 4 102 C6.40081183 101.06944759 6.40081183 101.06944759 7.4375 97.625 C9 94 9 94 10.75 92.375 C11.1625 91.92125 11.575 91.4675 12 91 C11.72793135 89.3222433 11.38499891 87.65549531 11 86 C11.29259485 83.99363529 11.62633887 81.99285937 12 80 C12.03786901 78.33376361 12.04627845 76.66602403 12 75 C12 74.34 12 73.68 12 73 C11.67 72.34 11.34 71.68 11 71 C10.01 71 9.02 71 8 71 C8 70.34 8 69.68 8 69 C8.50144531 68.56042969 9.00289062 68.12085938 9.51953125 67.66796875 C11.23817276 66.08943225 11.23817276 66.08943225 11.07421875 63.73828125 C10.88279297 62.53751953 10.88279297 62.53751953 10.6875 61.3125 C10.56761719 60.50425781 10.44773438 59.69601563 10.32421875 58.86328125 C10.16373047 57.94095703 10.16373047 57.94095703 10 57 C9.01 56.67 8.02 56.34 7 56 C6.896875 55.21625 6.79375 54.4325 6.6875 53.625 C6.22404978 50.66954819 6.22404978 50.66954819 3 49 C2.8125 46.375 2.8125 46.375 3 44 C2.01 43.67 1.02 43.34 0 43 C-1.1875 40.9375 -1.1875 40.9375 -2 39 C-1.01 38.34 -0.02 37.68 1 37 C1 36.34 1 35.68 1 35 C0.34 34.67 -0.32 34.34 -1 34 C-1 31.43699272 -0.7373971 28.92701884 -0.5 26.375 C-0.4071875 25.37210938 -0.314375 24.36921875 -0.21875 23.3359375 C-0.1465625 22.56507813 -0.074375 21.79421875 0 21 C-0.99 20.34 -1.98 19.68 -3 19 C-2.9278125 18.443125 -2.855625 17.88625 -2.78125 17.3125 C-2.15508783 12.1640555 -1.90572055 7.18536962 -2 2 C-1.34 2 -0.68 2 0 2 C0 1.34 0 0.68 0 0 Z M3 42 C3 42.66 3 43.32 3 44 C3.99 44.33 4.98 44.66 6 45 C6 44.34 6 43.68 6 43 C5.01 42.67 4.02 42.34 3 42 Z M1 103 C2 105 2 105 2 105 Z " fill="#EEEEEE" transform="translate(229,106)"/>
<path d="M0 0 C0 1.66666667 0 3.33333333 0 5 C1.98 5.495 1.98 5.495 4 6 C3.01 6 2.02 6 1 6 C1.33 6.99 1.66 7.98 2 9 C4.50447516 10.21869929 4.50447516 10.21869929 7 11 C6.34 12.32 5.68 13.64 5 15 C6.65 15 8.3 15 10 15 C9.67 15.99 9.34 16.98 9 18 C9 18.99 9 19.98 9 21 C9.66 21.33 10.32 21.66 11 22 C10.67 22.66 10.34 23.32 10 24 C10.40929986 26.05396726 10.40929986 26.05396726 11 28 C11 28.33 11 28.66 11 29 C11.66 29 12.32 29 13 29 C12.34 30.65 11.68 32.3 11 34 C10.67 34 10.34 34 10 34 C9.67 37.3 9.34 40.6 9 44 C9.66 43.67 10.32 43.34 11 43 C11 44.32 11 45.64 11 47 C9.68 47 8.36 47 7 47 C8.32 47.99 9.64 48.98 11 50 C10 52 10 52 8 54 C8.99 55.98 8.99 55.98 10 58 C10.33 57.01 10.66 56.02 11 55 C11.33 55.66 11.66 56.32 12 57 C10.39701907 60.68685613 8.52394612 63.87511433 6 67 C5.01 66.67 4.02 66.34 3 66 C3 64.68 3 63.36 3 62 C-0.91402949 63.26941497 -2.79072873 64.51167694 -5 68 C-4.34 68 -3.68 68 -3 68 C-2.67 68.99 -2.34 69.98 -2 71 C-2.99 71 -3.98 71 -5 71 C-5.99 71.33 -6.98 71.66 -8 72 C-8.66 71.67 -9.32 71.34 -10 71 C-10.33 72.32 -10.66 73.64 -11 75 C-11.33 74.34 -11.66 73.68 -12 73 C-12.33 73.66 -12.66 74.32 -13 75 C-13.66 74.67 -14.32 74.34 -15 74 C-14.67 75.98 -14.34 77.96 -14 80 C-15.0725 80.12375 -16.145 80.2475 -17.25 80.375 C-21.61395035 81.10232506 -23.89903097 81.89903097 -27 85 C-27.33 84.01 -27.66 83.02 -28 82 C-28.495 83.485 -28.495 83.485 -29 85 C-31.19117012 85.78256076 -33.32140494 86.04591499 -35.625 86.375 C-38.3540951 86.81236489 -38.3540951 86.81236489 -40 90 C-41.485 89.505 -41.485 89.505 -43 89 C-43.66 89.66 -44.32 90.32 -45 91 C-45.99 91 -46.98 91 -48 91 C-48.66 91.99 -49.32 92.98 -50 94 C-50.33 93.67 -50.66 93.34 -51 93 C-51.33 94.65 -51.66 96.3 -52 98 C-53.485 97.505 -53.485 97.505 -55 97 C-55.99 97.495 -55.99 97.495 -57 98 C-57 97.01 -57 96.02 -57 95 C-58.16569697 96.03603962 -58.16569697 96.03603962 -58.8125 98 C-60 100 -60 100 -62.125 100.75 C-62.74375 100.8325 -63.3625 100.915 -64 101 C-64.2236068 103.9254644 -64.2236068 103.9254644 -63 106 C-64.98 106.99 -64.98 106.99 -67 108 C-68.485 107.01 -68.485 107.01 -70 106 C-69.79375 106.61875 -69.5875 107.2375 -69.375 107.875 C-69.25125 108.57625 -69.1275 109.2775 -69 110 C-69.66 110.66 -70.32 111.32 -71 112 C-71.66 110.68 -72.32 109.36 -73 108 C-73.33 108.66 -73.66 109.32 -74 110 C-75.375 111.625 -75.375 111.625 -77 113 C-77.99 113 -78.98 113 -80 113 C-80.103125 113.639375 -80.20625 114.27875 -80.3125 114.9375 C-80.539375 115.618125 -80.76625 116.29875 -81 117 C-82.485 117.495 -82.485 117.495 -84 118 C-84.33 117.67 -84.66 117.34 -85 117 C-85.66 117.66 -86.32 118.32 -87 119 C-87.33 118.67 -87.66 118.34 -88 118 C-88.66 118.66 -89.32 119.32 -90 120 C-91.32 120 -92.64 120 -94 120 C-94 120.66 -94 121.32 -94 122 C-94.66 122 -95.32 122 -96 122 C-96.99 121.01 -96.99 121.01 -98 120 C-98.33 120.66 -98.66 121.32 -99 122 C-99.99 121.67 -100.98 121.34 -102 121 C-102.99 121.33 -103.98 121.66 -105 122 C-106.93424377 122.20096039 -108.8726514 122.36335658 -110.8125 122.5 C-114.92546346 122.81408085 -118.94526157 123.21157864 -123 124 C-123.99 122.02 -124.98 120.04 -126 118 C-126.33 118.66 -126.66 119.32 -127 120 C-129 119 -129 119 -130 116 C-131.32 116.99 -132.64 117.98 -134 119 C-134.2475 118.38125 -134.495 117.7625 -134.75 117.125 C-136.23281451 114.60421533 -137.40863958 114.2147002 -140 113 C-140.66 112.01 -141.32 111.02 -142 110 C-143.11327187 108.77495324 -143.11327187 108.77495324 -145.5 107.8125 C-148 106 -148 106 -148.5625 102.9375 C-148.706875 101.968125 -148.85125 100.99875 -149 100 C-150.95163118 98.56362302 -150.95163118 98.56362302 -153 98 C-152.34 97.01 -151.68 96.02 -151 95 C-151.495 95.495 -151.495 95.495 -152 96 C-153.5 94.625 -153.5 94.625 -155 93 C-155 92.34 -155 91.68 -155 91 C-152.125 90.875 -152.125 90.875 -149 91 C-148.34 91.66 -147.68 92.32 -147 93 C-146.34 93 -145.68 93 -145 93 C-143.84465585 94.39320913 -142.6931552 95.789806 -141.5625 97.203125 C-138.05723329 101.23418172 -134.11063856 105.29645381 -129 107 C-129.33 106.01 -129.66 105.02 -130 104 C-128.02 103.505 -128.02 103.505 -126 103 C-125.34 103.99 -124.68 104.98 -124 106 C-124.99 106.495 -124.99 106.495 -126 107 C-125.67 107.99 -125.34 108.98 -125 110 C-123.14255793 110.61067144 -123.14255793 110.61067144 -121 111 C-120.38125 111.350625 -119.7625 111.70125 -119.125 112.0625 C-116.35260474 113.28561556 -113.99836851 113.06663041 -111 113 C-110.67 113.33 -110.34 113.66 -110 114 C-106.1359765 114.17563743 -102.76691162 113.78032893 -99 113 C-98.14019531 112.86980469 -97.28039062 112.73960937 -96.39453125 112.60546875 C-95.54246094 112.46753906 -94.69039062 112.32960938 -93.8125 112.1875 C-92.95269531 112.05730469 -92.09289062 111.92710937 -91.20703125 111.79296875 C-88.8232299 111.21451057 -88.8232299 111.21451057 -87.91015625 108.96875 C-87.60980469 108.3190625 -87.30945313 107.669375 -87 107 C-83.625 106.3125 -83.625 106.3125 -80 106 C-78.66216607 105.68521554 -77.32796291 105.35412344 -76 105 C-74.33480481 104.65939189 -72.66842534 104.32441604 -71 104 C-70.89459074 101.78918149 -70.89459074 101.78918149 -72 99 C-69.31158141 96.74754119 -67.35358125 95.11786042 -64 94 C-63.01 92.515 -63.01 92.515 -62 91 C-61.34 90.67 -60.68 90.34 -60 90 C-59.34 89.34 -58.68 88.68 -58 88 C-57.34 88.33 -56.68 88.66 -56 89 C-55.443125 88.360625 -54.88625 87.72125 -54.3125 87.0625 C-51.72931876 84.7585816 -50.31085404 84.60989416 -47 84 C-46.01 82.515 -46.01 82.515 -45 81 C-42.375 80.8125 -42.375 80.8125 -40 81 C-40 80.34 -40 79.68 -40 79 C-37.77673128 77.76485071 -35.94863244 76.98997706 -33.4375 76.5 C-30.48807176 75.89498908 -28.65320983 74.55271601 -26.375 72.625 C-22.83638786 70.20384433 -18.94141276 68.65909896 -15 67 C-15 66.01 -15 65.02 -15 64 C-13.73585657 60.62895087 -12.12736386 58.80060343 -9 57 C-8.01 57.33 -7.02 57.66 -6 58 C-3.59918817 57.06944759 -3.59918817 57.06944759 -2.5625 53.625 C-1 50 -1 50 0.75 48.375 C1.1625 47.92125 1.575 47.4675 2 47 C1.72793135 45.3222433 1.38499891 43.65549531 1 42 C1.29259485 39.99363529 1.62633887 37.99285937 2 36 C2.03786901 34.33376361 2.04627845 32.66602403 2 31 C2 30.34 2 29.68 2 29 C1.67 28.34 1.34 27.68 1 27 C0.01 27 -0.98 27 -2 27 C-2 26.34 -2 25.68 -2 25 C-1.49855469 24.56042969 -0.99710938 24.12085938 -0.48046875 23.66796875 C1.23817276 22.08943225 1.23817276 22.08943225 1.07421875 19.73828125 C0.88279297 18.53751953 0.88279297 18.53751953 0.6875 17.3125 C0.56761719 16.50425781 0.44773438 15.69601563 0.32421875 14.86328125 C0.16373047 13.94095703 0.16373047 13.94095703 0 13 C-0.99 12.67 -1.98 12.34 -3 12 C-3.103125 11.21625 -3.20625 10.4325 -3.3125 9.625 C-3.77595022 6.66954819 -3.77595022 6.66954819 -7 5 C-7.1875 2.375 -7.1875 2.375 -7 0 C-2.25 -1.125 -2.25 -1.125 0 0 Z M4 57 C5.32 57.99 6.64 58.98 8 60 C7.67 59.01 7.34 58.02 7 57 C6.01 57 5.02 57 4 57 Z M-9 59 C-8 61 -8 61 -8 61 Z " fill="#E5E5E5" transform="translate(239,150)"/>
<path d="M0 0 C3.3 0 6.6 0 10 0 C10.33 9.9 10.66 19.8 11 30 C13.97 27.525 13.97 27.525 17 25 C24.12479952 22.279622 30.65593534 22.24753975 37.7890625 24.828125 C44.20150568 28.22694647 47.63814563 34.36332735 50 41 C50.44128564 43.7848057 50.52484031 46.49599146 50.5 49.3125 C50.49500488 50.05725586 50.49000977 50.80201172 50.48486328 51.56933594 C50.24107688 59.30661203 47.93972049 65.51796177 42.25 70.9375 C35.68667735 75.10268553 30.0449181 76.6224883 22.296875 75.515625 C17.68674422 74.48069768 14.07995711 72.5932833 11 69 C10.34 70.65 9.68 72.3 9 74 C6.03 74 3.06 74 0 74 C0 49.58 0 25.16 0 0 Z M12.1875 39.125 C9.87801504 44.71638463 9.19048217 50.50894651 11.125 56.3125 C12.99510859 60.5697979 15.79387513 63.89693756 20 66 C25.0111158 66.54978069 28.89696493 66.56154513 33.4375 64.25 C37.40608056 60.76539268 39.760803 57.93016326 40.203125 52.51171875 C40.31904936 45.52727607 39.70217762 41.12439287 35 35.6875 C31.2186527 32.49698821 27.23734167 32.66359514 22.5078125 32.71875 C17.80348567 33.24633806 15.16218996 35.63743247 12.1875 39.125 Z " fill="#FFFFFF" transform="translate(500,106)"/>
<path d="M0 0 C3.3 0 6.6 0 10 0 C9.42141286 10.32783538 7.89061406 20.39657662 6.08129883 30.56420898 C2.90060401 44.86889732 2.90060401 44.86889732 5.3996582 58.76049805 C8.08880932 62.52366864 11.58503224 63.21186199 16 64 C22.0007525 64.24633631 26.42593584 63.05428414 31 59 C35.8304797 53.03653405 37.13905779 47.03279737 38.203125 39.5703125 C38.45530792 37.96299759 38.45530792 37.96299759 38.71258545 36.32321167 C39.24222876 32.92619014 39.74692633 29.52604785 40.25 26.125 C40.77254119 22.70350789 41.30014429 19.28284429 41.83026123 15.86251831 C42.15746092 13.73993215 42.47928038 11.61650834 42.79522705 9.49221802 C42.93917908 8.53717377 43.0831311 7.58212952 43.23144531 6.59814453 C43.41867157 5.33528122 43.41867157 5.33528122 43.60968018 4.04690552 C44 2 44 2 45 0 C48.3 0 51.6 0 55 0 C53.73638777 10.71961316 52.2534131 21.38693287 50.50537109 32.03857422 C50.25017774 33.60609694 50.00024033 35.17448371 49.75537109 36.74365234 C45.89963785 61.44587975 45.89963785 61.44587975 37 69 C29.25064541 74.41470329 20.51083603 76.03375391 11.1953125 74.5546875 C5.08477777 72.93883181 -0.47282714 70.4517483 -4.28125 65.25 C-9.27258073 56.40821414 -8.04267209 46.90360242 -6.34765625 37.3046875 C-6.16867294 36.23123077 -5.98968964 35.15777405 -5.80528259 34.05178833 C-5.23646972 30.65734821 -4.64980525 27.26628418 -4.0625 23.875 C-3.67133765 21.56009633 -3.28135196 19.24499351 -2.89257812 16.9296875 C-1.94197351 11.28406475 -0.97535794 5.64139669 0 0 Z " fill="#FFFFFF" transform="translate(270,107)"/>
<path d="M0 0 C3.63 0 7.26 0 11 0 C21.95744681 19.53191489 21.95744681 19.53191489 26 28 C27.11771003 26.57745997 28.23512715 25.15468911 29.35131836 23.73095703 C30.33560655 22.48073834 31.32481418 21.2343789 32.31860352 19.99169922 C34.92518613 16.71816349 37.4232788 13.4270732 39.7578125 9.953125 C46.3182075 0.43804828 46.3182075 0.43804828 51.359375 -0.875 C54.37412555 -0.875 57.06022408 -0.64644287 60 0 C58.52920916 3.24460895 56.68575824 5.80554495 54.4375 8.5625 C53.72335937 9.44164063 53.00921875 10.32078125 52.2734375 11.2265625 C51.52320313 12.14179687 50.77296875 13.05703125 50 14 C49.27039063 14.89460938 48.54078125 15.78921875 47.7890625 16.7109375 C46.68691406 18.06058594 46.68691406 18.06058594 45.5625 19.4375 C44.82515625 20.34757812 44.0878125 21.25765625 43.328125 22.1953125 C41.71270798 24.14140213 40.05270201 26.05099629 38.359375 27.9296875 C37.51890625 28.88101563 36.6784375 29.83234375 35.8125 30.8125 C35.03519531 31.66457031 34.25789063 32.51664063 33.45703125 33.39453125 C31.64914427 35.92584469 31.64914427 35.92584469 32.69165039 38.71826172 C34.11236883 42.28185516 35.73314607 45.70029013 37.4765625 49.11328125 C37.80667328 49.76830124 38.13678406 50.42332123 38.47689819 51.09819031 C39.52244034 53.17158633 40.57334253 55.24219998 41.625 57.3125 C42.68305805 59.4010125 43.7399374 61.490101 44.79452515 63.58036804 C45.44892923 64.87689697 46.10546854 66.17235075 46.76431274 67.46662903 C49 71.88831564 49 71.88831564 49 73 C45.04 73 41.08 73 37 73 C27.04255319 54.65957447 27.04255319 54.65957447 24 46 C19.60107972 50.20693704 15.77818256 54.7836581 11.9375 59.5 C11.02000977 60.61955078 11.02000977 60.61955078 10.08398438 61.76171875 C9.48779297 62.49003906 8.89160156 63.21835938 8.27734375 63.96875 C7.70258301 64.66395752 7.12782227 65.35916504 6.53564453 66.07543945 C4.85144303 68.13060429 4.85144303 68.13060429 2.98828125 71.01171875 C1 73 1 73 -2.234375 73.48828125 C-3.39453125 73.43027344 -4.5546875 73.37226563 -5.75 73.3125 C-6.92046875 73.26738281 -8.0909375 73.22226563 -9.296875 73.17578125 C-10.18890625 73.11777344 -11.0809375 73.05976563 -12 73 C-8.27253474 67.82296492 -4.29335057 62.94743896 -0.125 58.125 C7.14900144 49.7344715 7.14900144 49.7344715 14 41 C14.5990918 40.29198242 15.19818359 39.58396484 15.81542969 38.85449219 C17.40927372 35.89516829 17.40927372 35.89516829 15.7800293 32.34301758 C15.06693863 30.93209184 14.32999345 29.53306081 13.57421875 28.14453125 C13.19264114 27.40168381 12.81106354 26.65883636 12.41792297 25.89347839 C11.19474719 23.52194132 9.94239617 21.16738172 8.6875 18.8125 C7.44965486 16.44406245 6.2179264 14.0725725 4.98921204 11.6993866 C4.22243093 10.22350195 3.44914073 8.75097785 2.66886902 7.28218079 C0 2.21630151 0 2.21630151 0 0 Z " fill="#FFFFFF" transform="translate(334,107)"/>
<path d="M0 0 C4.38693589 3.70410791 6.47335352 7.48205336 8 13 C8.16237778 15.78486623 8.23437565 18.46222484 8.1953125 21.2421875 C8.1924826 22.01055939 8.18965271 22.77893127 8.18673706 23.57058716 C8.17561311 26.00555521 8.1505236 28.44014462 8.125 30.875 C8.11496011 32.53384882 8.10583603 34.19270346 8.09765625 35.8515625 C8.07569937 39.90118579 8.04122406 43.95052887 8 48 C5.03 48 2.06 48 -1 48 C-1.66 46.68 -2.32 45.36 -3 44 C-3.66 44.61875 -4.32 45.2375 -5 45.875 C-10.89580463 50.05119495 -16.6924629 50.45374908 -23.66796875 49.54296875 C-28.05290146 48.52202127 -30.89330165 46.25934639 -33.8125 42.9375 C-36.24231423 38.97306626 -36.30894303 35.55690967 -36 31 C-34.23171639 26.08810109 -31.51374618 22.63634733 -27 20 C-19.30956712 16.976411 -10.15666933 17.38031096 -2 17 C-2.61697319 15.51746733 -3.24383896 14.03904826 -3.875 12.5625 C-4.22304688 11.73878906 -4.57109375 10.91507813 -4.9296875 10.06640625 C-5.8244937 7.84253285 -5.8244937 7.84253285 -8 7 C-9.78859511 6.87792129 -11.58228381 6.82451552 -13.375 6.8125 C-14.33148438 6.79832031 -15.28796875 6.78414062 -16.2734375 6.76953125 C-19.08615804 7.0072827 -20.68119799 7.41041401 -23 9 C-24.29231642 12.04199472 -24.29231642 12.04199472 -25 15 C-27.97 15 -30.94 15 -34 15 C-34.50657287 9.68098483 -33.32610043 7.13515188 -30 3 C-22.24066954 -4.75933046 -9.41341943 -4.9416102 0 0 Z M-25 30 C-25.62723208 31.93425486 -25.62723208 31.93425486 -25.5 34 C-25.5103125 34.680625 -25.520625 35.36125 -25.53125 36.0625 C-25.12900543 38.15499257 -25.12900543 38.15499257 -23.27734375 39.7265625 C-19.34385493 41.92607769 -15.37956146 41.52611615 -11 41 C-7.29078639 39.42161123 -4.8839818 37.57956543 -3 34 C-2.46704746 31.00925664 -2.18778836 28.03051553 -2 25 C-14.39269947 24.52276019 -14.39269947 24.52276019 -25 30 Z " fill="#FFFFFF" transform="translate(480,132)"/>
<path d="M0 0 C3.63 0 7.26 0 11 0 C11 20.79 11 41.58 11 63 C21.23 63 31.46 63 42 63 C42 66.3 42 69.6 42 73 C28.14 73 14.28 73 0 73 C0 48.91 0 24.82 0 0 Z " fill="#FFFFFF" transform="translate(396,107)"/>
<path d="M0 0 C0 0.99 0 1.98 0 3 C0.94978897 5.15028304 0.94978897 5.15028304 2 7 C0.02 7.99 0.02 7.99 -2 9 C-2.99 8.34 -3.98 7.68 -5 7 C-4.79375 7.61875 -4.5875 8.2375 -4.375 8.875 C-4.25125 9.57625 -4.1275 10.2775 -4 11 C-4.66 11.66 -5.32 12.32 -6 13 C-6.66 11.68 -7.32 10.36 -8 9 C-8.33 9.66 -8.66 10.32 -9 11 C-10.375 12.625 -10.375 12.625 -12 14 C-12.99 14 -13.98 14 -15 14 C-15.103125 14.639375 -15.20625 15.27875 -15.3125 15.9375 C-15.539375 16.618125 -15.76625 17.29875 -16 18 C-16.99 18.33 -17.98 18.66 -19 19 C-19.33 18.67 -19.66 18.34 -20 18 C-20.66 18.66 -21.32 19.32 -22 20 C-22.33 19.67 -22.66 19.34 -23 19 C-23.66 19.66 -24.32 20.32 -25 21 C-24.67 19.68 -24.34 18.36 -24 17 C-23.34 17 -22.68 17 -22 17 C-21.67 16.34 -21.34 15.68 -21 15 C-18.9375 14.375 -18.9375 14.375 -17 14 C-17 13.34 -17 12.68 -17 12 C-15.68 11.34 -14.36 10.68 -13 10 C-13.33 8.68 -13.66 7.36 -14 6 C-12.989375 6.12375 -11.97875 6.2475 -10.9375 6.375 C-5.73405161 5.87943349 -3.55255526 3.62814154 0 0 Z " fill="#DBDBDB" transform="translate(174,249)"/>
<path d="M0 0 C0.99 0.33 1.98 0.66 3 1 C3.66 0.67 4.32 0.34 5 0 C5.66 0.66 6.32 1.32 7 2 C7.99 1.67 8.98 1.34 10 1 C10 2.65 10 4.3 10 6 C9.34 5.67 8.68 5.34 8 5 C7.67 6.65 7.34 8.3 7 10 C6.01 9.67 5.02 9.34 4 9 C3.01 9.495 3.01 9.495 2 10 C2 9.01 2 8.02 2 7 C0.68 6.67 -0.64 6.34 -2 6 C-2.33 6.66 -2.66 7.32 -3 8 C-3.33 6.68 -3.66 5.36 -4 4 C-3.01 3.34 -2.02 2.68 -1 2 C-0.67 1.34 -0.34 0.68 0 0 Z M5 3 C4.34 3.66 3.68 4.32 3 5 C3.66 5 4.32 5 5 5 C5.33 5.66 5.66 6.32 6 7 C5.67 5.68 5.34 4.36 5 3 Z " fill="#DFDFDF" transform="translate(180,238)"/>
<path d="M0 0 C0.66 0.33 1.32 0.66 2 1 C1.52556358 5.11178233 0.99930753 8.37625511 -1 12 C-1.71447643 14.10332891 -1.71447643 14.10332891 -2 16 C-1.67 16.33 -1.34 16.66 -1 17 C-1.4375 19.0625 -1.4375 19.0625 -2 21 C-2.99 21 -3.98 21 -5 21 C-5.49067456 13.51721294 -4.04453537 7.84714782 -1 1 C-0.67 0.67 -0.34 0.34 0 0 Z " fill="#F8F8F8" transform="translate(38,174)"/>
<path d="M0 0 C1.32 0 2.64 0 4 0 C4.4375 2.625 4.4375 2.625 4 6 C1.9050512 8.33122122 -0.46073827 10.17328621 -3 12 C-3.99 10.68 -4.98 9.36 -6 8 C-4.6875 6.5 -4.6875 6.5 -3 5 C-2.01 5 -1.02 5 0 5 C0.66 4.01 1.32 3.02 2 2 C1.34 2 0.68 2 0 2 C0 1.34 0 0.68 0 0 Z M-5 12 C-3 13 -3 13 -3 13 Z " fill="#F7F7F7" transform="translate(179,244)"/>
<path d="M0 0 C0.66 0.66 1.32 1.32 2 2 C0.27256146 5.61939504 -1.47650757 8.87567603 -4 12 C-4.99 11.67 -5.98 11.34 -7 11 C-7 10.01 -7 9.02 -7 8 C-6.34 8 -5.68 8 -5 8 C-5.33 6.68 -5.66 5.36 -6 4 C-4.02 4.495 -4.02 4.495 -2 5 C-2 4.34 -2 3.68 -2 3 C-1.34 3 -0.68 3 0 3 C0 2.01 0 1.02 0 0 Z " fill="#DEDEDE" transform="translate(249,205)"/>
<path d="M0 0 C0.66 0 1.32 0 2 0 C2.99 2.97 3.98 5.94 5 9 C4.34 9 3.68 9 3 9 C2.34 9.66 1.68 10.32 1 11 C0.896875 10.21625 0.79375 9.4325 0.6875 8.625 C0.22404978 5.66954819 0.22404978 5.66954819 -3 4 C-2.34 4 -1.68 4 -1 4 C-0.67 2.68 -0.34 1.36 0 0 Z " fill="#E5E5E5" transform="translate(162,243)"/>
<path d="M0 0 C-0.33 0.99 -0.66 1.98 -1 3 C-2.64551962 3.71727778 -4.31422289 4.38325228 -6 5 C-6.66 5.66 -7.32 6.32 -8 7 C-8.33 6.34 -8.66 5.68 -9 5 C-6.5489288 0.21457528 -5.31640569 -1.59492171 0 0 Z " fill="#D5D5D5" transform="translate(220,228)"/>
<path d="M0 0 C0 0.99 0 1.98 0 3 C-2.98241547 3.77321882 -5.97580475 4.41196203 -9 5 C-8.75 3.125 -8.75 3.125 -8 1 C-5.08518252 -1.1107299 -3.34823603 -1.19579858 0 0 Z " fill="#DADADA" transform="translate(210,232)"/>
<path d="M0 0 C0.33 0.66 0.66 1.32 1 2 C1.66 2 2.32 2 3 2 C3.33 1.34 3.66 0.68 4 0 C4 0.66 4 1.32 4 2 C4.66 2.33 5.32 2.66 6 3 C4.8125 4.5 4.8125 4.5 3 6 C0.3125 6.1875 0.3125 6.1875 -2 6 C-2 3 -2 3 0 0 Z " fill="#ECECEC" transform="translate(164,250)"/>
<path d="M0 0 C0.33 0.99 0.66 1.98 1 3 C0.01 3 -0.98 3 -2 3 C-2.99 3.33 -3.98 3.66 -5 4 C-5.66 3.67 -6.32 3.34 -7 3 C-7.33 4.32 -7.66 5.64 -8 7 C-8.33 5.68 -8.66 4.36 -9 3 C-5.55930376 0.70620251 -4.27709699 0 0 0 Z " fill="#D8D8D8" transform="translate(236,218)"/>
<path d="M0 0 C0.99 0.66 1.98 1.32 3 2 C3.66 2.33 4.32 2.66 5 3 C5.33 3.66 5.66 4.32 6 5 C4.02 5.33 2.04 5.66 0 6 C-0.99 4.35 -1.98 2.7 -3 1 C-2.01 0.67 -1.02 0.34 0 0 Z " fill="#E8E8E8" transform="translate(230,144)"/>
<path d="M0 0 C1.65 0 3.3 0 5 0 C5.33 0.99 5.66 1.98 6 3 C5.01 3.33 4.02 3.66 3 4 C2.67 3.67 2.34 3.34 2 3 C1.34 3.66 0.68 4.32 0 5 C-0.33 4.67 -0.66 4.34 -1 4 C-1.66 4.66 -2.32 5.32 -3 6 C-2.67 4.68 -2.34 3.36 -2 2 C-1.34 2 -0.68 2 0 2 C0 1.34 0 0.68 0 0 Z " fill="#D1D1D1" transform="translate(152,264)"/>
<path d="M0 0 C0.66 0 1.32 0 2 0 C2 1.65 2 3.3 2 5 C1.34 4.67 0.68 4.34 0 4 C-0.33 5.65 -0.66 7.3 -1 9 C-1.99 8.01 -2.98 7.02 -4 6 C-3.34 6 -2.68 6 -2 6 C-1.855625 5.195625 -1.71125 4.39125 -1.5625 3.5625 C-1 1 -1 1 0 0 Z " fill="#D1D1D1" transform="translate(188,239)"/>
<path d="M0 0 C0.66 0.99 1.32 1.98 2 3 C1.67 3.99 1.34 4.98 1 6 C0.01 6 -0.98 6 -2 6 C-2.33 6.66 -2.66 7.32 -3 8 C-3.33 6.68 -3.66 5.36 -4 4 C-3.34 4 -2.68 4 -2 4 C-2 3.01 -2 2.02 -2 1 C-1.34 0.67 -0.68 0.34 0 0 Z " fill="#E7E7E7" transform="translate(71,221)"/>
<path d="M0 0 C5.57142857 5.14285714 5.57142857 5.14285714 6 9 C5.01 9 4.02 9 3 9 C1.76078698 6.02588876 0.69941596 3.14737182 0 0 Z " fill="#FFFFFF" transform="translate(223,93)"/>
<path d="M0 0 C1.98 0 3.96 0 6 0 C5.67 0.99 5.34 1.98 5 3 C5.33 3.66 5.66 4.32 6 5 C4.35 4.67 2.7 4.34 1 4 C0.67 2.68 0.34 1.36 0 0 Z " fill="#D4D4D4" transform="translate(243,165)"/>
<path d="M0 0 C0.99 0.33 1.98 0.66 3 1 C2.67 1.99 2.34 2.98 2 4 C1.34 4 0.68 4 0 4 C0 4.66 0 5.32 0 6 C-0.66 6 -1.32 6 -2 6 C-2.33 5.01 -2.66 4.02 -3 3 C-2.01 2.01 -1.02 1.02 0 0 Z " fill="#D7D7D7" transform="translate(145,266)"/>
</svg>
