<svg width="108" height="49" viewBox="0 0 108 49" fill="none" xmlns="http://www.w3.org/2000/svg">
<g filter="url(#filter0_f_281_150)">
<path d="M20.0328 5.98529C21.8287 3.89036 25.0698 3.89036 26.8657 5.98529L30.1806 9.85219C30.8479 10.6306 31.7611 11.1578 32.7689 11.3465L37.7752 12.2839C40.4874 12.7918 42.108 15.5986 41.1917 18.2014L39.5003 23.0057C39.1598 23.9728 39.1598 25.0272 39.5003 25.9943L41.1917 30.7986C42.108 33.4014 40.4874 36.2082 37.7752 36.7161L32.7689 37.6535C31.7611 37.8422 30.848 38.3694 30.1806 39.1478L26.8657 43.0147C25.0698 45.1096 21.8287 45.1096 20.0328 43.0147L16.7178 39.1478C16.0505 38.3694 15.1373 37.8422 14.1296 37.6535L9.12324 36.7161C6.41102 36.2082 4.79048 33.4014 5.70678 30.7986L7.39814 25.9943C7.73862 25.0272 7.73862 23.9728 7.39814 23.0057L5.70678 18.2014C4.79048 15.5986 6.41101 12.7918 9.12323 12.2839L14.1296 11.3465C15.1373 11.1578 16.0505 10.6306 16.7178 9.85219L20.0328 5.98529Z" fill="url(#paint0_linear_281_150)"/>
</g>
<path d="M49.5892 26.8L51.0692 17.54H52.9292L51.4692 26.8C51.1092 29.04 52.2492 30.4 54.5092 30.4C56.7292 30.4 58.1292 29.12 58.5092 26.8L59.9692 17.54H61.8492L60.3492 26.9C59.8092 30.3 57.7092 32.24 54.3692 32.24C51.1692 32.24 49.0892 30.02 49.5892 26.8ZM67.4536 24.76L63.8536 17.54H65.8936L67.6136 20.86C68.0336 21.68 68.4136 22.56 68.7736 23.5L73.4336 17.54H75.7136L69.8136 24.78L73.4736 32H71.3736L69.6736 28.74C69.3936 28.14 68.8736 26.96 68.4936 26.06L63.7936 32H61.4736L67.4536 24.76ZM78.1713 17.54V30.18H84.5312V32H76.2113V17.54H78.1713ZM89.2005 32.24C87.1005 32.24 85.8605 31.06 85.8605 29.28C85.8605 27.48 87.2005 26.36 89.5005 26.18L92.5805 25.94V25.66C92.5805 24.02 91.6005 23.44 90.2805 23.44C88.7005 23.44 87.8005 24.14 87.8005 25.32H86.1605C86.1605 23.28 87.8405 21.94 90.3605 21.94C92.7805 21.94 94.4205 23.22 94.4205 25.86V32H92.8205L92.6205 30.42C92.1205 31.54 90.7805 32.24 89.2005 32.24ZM89.7405 30.78C91.5205 30.78 92.6005 29.62 92.6005 27.78V27.26L90.1005 27.46C88.4405 27.62 87.7605 28.26 87.7605 29.22C87.7605 30.26 88.5205 30.78 89.7405 30.78ZM98.7241 32H97.0241V17.28H98.9041V23.9C99.5441 22.62 100.864 21.94 102.464 21.94C105.264 21.94 106.944 24.14 106.944 27.16C106.944 30.12 105.184 32.24 102.344 32.24C100.804 32.24 99.5041 31.56 98.8641 30.22L98.7241 32ZM98.9241 27.08C98.9241 29.12 100.084 30.54 102.004 30.54C103.924 30.54 105.064 29.1 105.064 27.08C105.064 25.08 103.924 23.64 102.004 23.64C100.084 23.64 98.9241 25.08 98.9241 27.08Z" fill="white"/>
<defs>
<filter id="filter0_f_281_150" x="1.44922" y="0.414062" width="44" height="48.1719" filterUnits="userSpaceOnUse" color-interpolation-filters="sRGB">
<feFlood flood-opacity="0" result="BackgroundImageFix"/>
<feBlend mode="normal" in="SourceGraphic" in2="BackgroundImageFix" result="shape"/>
<feGaussianBlur stdDeviation="2" result="effect1_foregroundBlur_281_150"/>
</filter>
<linearGradient id="paint0_linear_281_150" x1="21.4242" y1="9.2" x2="35.1492" y2="41.6" gradientUnits="userSpaceOnUse">
<stop stop-color="white"/>
<stop offset="1" stop-color="#E6E6E6"/>
</linearGradient>
</defs>
</svg>
